{
.appVersion = "3176";
.formatVersion = 3;
DisplayStrings = (
"v/v.v v",
"r/r.a a r/r.s s r/r.v v  ",
"a/a.c c",
"Ī",
"̄/macroncombnar/macroncombnar.case",
"/macroncombnar ī",
"l/macroncombnar.case ḹ",
"zẕ",
"฿",
"̏ȕ",
r,
"/Esh.localGAD",
"/Eng.loclNSM",
"ʘ",
"↑",
"Ɑ",
"₪",
"́ó",
"/macronbelowcomb.case Ⱡ",
"ȽⱠ",
"̃ṏ",
"ï",
"̈ḯ",
"a/a.c c",
"oʕoo",
"̛ư"
);
axes = (
{
name = Weight;
tag = wght;
}
);
classes = (
{
automatic = 1;

glyphs = (
{
color = 1;
glyphname = A;
kernLeft = KO_A;
kernRight = KO_A;
lastChange = "2023-02-16 15:34:21 +0000";
layers = (
{
anchors = (
{
name = bottom;
pos = (309,0);
},
{
name = ogonek;
pos = (521,0);
},
{
name = top;
pos = (355,639);
}
);
layerId = "220B7CD1-1E4F-4884-BA06-A44A5DCE8B14";
shapes = (
{
closed = 1;
nodes = (
(45,-13,o),
(47,-11,o),
(50,-4,cs),
(60,23,o),
(157,224,o),
(172,247,c),
(204,248,o),
(263,251,o),
(315,251,cs),
(376,251,o),
(434,249,o),
(455,248,c),
(481,169,o),
(516,52,o),
(523,22,cs),
(526,10,o),
(529,6,o),
(532,3,cs),
(540,-5,o),
(558,-13,o),
(586,-13,cs),
(596,-13,o),
(597,-10,o),
(597,-5,cs),
(597,-1,o),
(596,1,o),
(593,10,cs),
(563,102,o),
(408,563,o),
(387,634,cs),
(385,642,o),
(361,652,o),
(337,652,cs),
(330,652,o),
(327,651,o),
(325,646,cs),
(269,533,o),
(40,82,o),
(5,26,cs),
(3,22,o),
(0,16,o),
(0,14,cs),
(0,-4,o),
(20,-13,o),
(40,-13,cs)
);
},
{
closed = 1;
nodes = (
(217,336,o),
(308,524,o),
(344,578,c),
(360,533,o),
(424,350,o),
(441,290,c),
(193,290,l)
);
}
);
width = 637;
},
{
anchors = (
{
name = bottom;
pos = (303,0);
},
{
name = ogonek;
pos = (534,0);
},
{
name = top;
pos = (363,639);
}
);
layerId = "63F4CE79-9D5F-46D3-B41C-385689F27F0A";
shapes = (
{
closed = 1;
nodes = (
(118,-13,o),
(119,-8,o),
(121,-3,c),
(143,58,o),
(175,139,o),
(181,154,c),
(195,155,o),
(234,157,o),
(280,157,cs),
(306,157,o),
(368,155,o),
(398,152,c),
(404,124,o),
(409,96,o),
(412,68,cs),
(414,51,o),
(420,41,o),
(428,33,cs),
(459,2,o),
(543,-13,o),
(598,-13,cs),
(644,-13,o),
(652,-4,o),
(652,14,cs),
(652,17,o),
(651,24,o),
(647,41,cs),
(630,121,o),
(551,425,o),
(518,588,cs),
(511,623,o),
(421,652,o),
(327,652,cs),
(282,652,o),
(275,646,o),
(269,626,cs),
(254,579,o),
(128,311,o),
(24,87,cs),
(16,70,o),
(15,66,o),
(15,58,cs),
(15,16,o),
(60,-13,o),
(101,-13,c)
);
},
{
closed = 1;
nodes = (
(248,318,o),
(301,439,o),
(323,475,c),
(332,437,o),
(364,302,o),
(376,247,c),
(218,247,l)
);
}
);
width = 658;
}
);
note = A;
unicode = 65;
},
{
color = 7;
glyphname = "Alpha-latin";
lastChange = "2023-02-20 03:57:03 +0000";
layers = (
{
background = {
shapes = (
{
closed = 1;
nodes = (
(104,-13,o),
(106,-10,o),
(106,-5,cs),
(106,107,o),
(109,214,o),
(116,309,c),
(194,313,o),
(272,315,o),
(349,315,cs),
(421,315,o),
(493,313,o),
(563,310,c),
(554,160,o),
(543,20,o),
(543,14,cs),
(543,-4,o),
(573,-13,o),
(596,-13,cs),
(604,-13,o),
(607,-10,o),
(607,-5,cs),
(607,317,o),
(642,612,o),
(642,626,cs),
(642,644,o),
(611,652,o),
(588,652,cs),
(579,652,o),
(578,650,o),
(578,645,cs),
(577,597,o),
(572,476,o),
(565,353,c),
(118,353,l),
(128,509,o),
(141,618,o),
(141,626,cs),
(141,644,o),
(111,652,o),
(88,652,cs),
(79,652,o),
(78,650,o),
(78,645,cs),
(75,537,o),
(43,26,o),
(43,14,cs),
(43,-4,o),
(73,-13,o),
(96,-13,cs)
);
}
);
};
layerId = "220B7CD1-1E4F-4884-BA06-A44A5DCE8B14";
shapes = (
{
closed = 1;
nodes = (
(663,-16,o),
(715,52,o),
(775,125,cs),
(778,129,o),
(779,132,o),
(779,137,cs),
(779,151,o),
(767,172,o),
(762,172,cs),
(759,172,o),
(757,168,o),
(754,165,c),
(725,128,o),
(655,39,o),
(630,39,cs),
(612,39,o),
(607,49,o),
(607,102,cs),
(607,129,o),
(613,285,o),
(617,339,cs),
(624,427,o),
(637,570,o),
(642,626,cs),
(644,644,o),
(607,652,o),
(588,652,cs),
(585,652,o),
(578,650,o),
(578,645,cs),
(578,631,o),
(577,597,o),
(574,544,c),
(531,615,o),
(472,655,o),
(386,655,cs),
(236,655,o),
(65,565,o),
(65,274,cs),
(65,54,o),
(169,-16,o),
(320,-16,cs),
(417,-16,o),
(503,38,o),
(545,137,c),
(545,70,o),
(545,33,o),
(548,26,cs),
(553,13,o),
(599,-16,o),
(613,-16,cs)
);
},
{
closed = 1;
nodes = (
(187,26,o),
(126,106,o),
(126,282,cs),
(126,496,o),
(237,615,o),
(373,615,cs),
(485,615,o),
(570,516,o),
(570,435,c),
(570,421,o),
(569,376,o),
(568,361,cs),
(559,170,o),
(479,26,o),
(326,26,cs)
);
}
);
userData = {
RMXScaler = {
height = 125;
width = 130;
};
};
width = 810;
},
{
background = {
shapes = (
{
pos = (10,0);
ref = H;
}
);
};
layerId = "63F4CE79-9D5F-46D3-B41C-385689F27F0A";
shapes = (
{
closed = 1;
nodes = (
(701,-13,o),
(795,73,o),
(835,126,cs),
(843,137,o),
(847,147,o),
(847,158,cs),
(847,180,o),
(815,207,o),
(804,207,cs),
(797,207,o),
(795,201,o),
(791,196,cs),
(780,182,o),
(773,165,o),
(759,165,cs),
(748,165,o),
(740,173,o),
(740,198,cs),
(740,227,o),
(752,309,o),
(760,360,cs),
(771,431,o),
(777,540,o),
(777,579,cs),
(777,632,o),
(670,652,o),
(602,652,cs),
(574,652,o),
(564,644,o),
(562,619,cs),
(561,606,o),
(565,596,o),
(562,582,c),
(529,626,o),
(468,650,o),
(391,650,cs),
(203,650,o),
(45,510,o),
(45,272,cs),
(45,14,o),
(208,-13,o),
(357,-13,cs),
(408,-13,o),
(480,22,o),
(539,169,c),
(539,53,o),
(536,25,o),
(550,13,cs),
(565,-1,o),
(610,-13,o),
(622,-13,cs)
);
},
{
closed = 1;
nodes = (
(295,91,o),
(272,154,o),
(272,261,cs),
(272,429,o),
(339,543,o),
(408,542,cs),
(493,541,o),
(534,510,o),
(540,437,c),
(536,418,o),
(537,396,o),
(534,371,cs),
(515,217,o),
(437,91,o),
(362,91,cs)
);
}
);
userData = {
RMXScaler = {
height = 124;
width = 130;
};
};
width = 820;
}
);
unicode = 11373;
userData = {
RMXScaler = {
source = "alpha-latin";
};
};
},
{
color = 6;
glyphname = Astroke;
lastChange = "2023-02-10 00:40:08 +0000";
layers = (
{
anchors = (
{
name = bottom;
pos = (309,0);
},
{
name = ogonek;
pos = (521,0);
},
{
name = top;
pos = (361,652);
}
);
layerId = "220B7CD1-1E4F-4884-BA06-A44A5DCE8B14";
shapes = (
{
closed = 1;
nodes = (
(45,-13,o),
(47,-11,o),
(50,-4,cs),
(60,23,o),
(157,224,o),
(172,247,c),
(204,248,o),
(263,251,o),
(315,251,cs),
(376,251,o),
(434,249,o),
(455,248,c),
(481,169,o),
(516,52,o),
(523,22,cs),
(526,10,o),
(529,6,o),
(532,3,cs),
(540,-5,o),
(558,-13,o),
(586,-13,cs),
(596,-13,o),
(597,-10,o),
(597,-5,cs),
(597,-1,o),
(596,1,o),
(593,10,cs),
(563,102,o),
(408,563,o),
(387,634,cs),
(385,642,o),
(361,652,o),
(337,652,cs),
(330,652,o),
(327,651,o),
(325,646,cs),
(269,533,o),
(40,82,o),
(5,26,cs),
(3,22,o),
(0,16,o),
(0,14,cs),
(0,-4,o),
(20,-13,o),
(40,-13,cs)
);
},
{
closed = 1;
nodes = (
(217,336,o),
(308,524,o),
(344,578,c),
(360,533,o),
(424,350,o),
(441,290,c),
(193,290,l)
);
},
{
closed = 1;
nodes = (
(514,676,l),
(517,684,o),
(518,689,o),
(517,694,cs),
(509,718,o),
(491,725,o),
(484,726,cs),
(481,726,o),
(479,720,o),
(476,711,c),
(236,-35,l),
(233,-43,o),
(232,-48,o),
(233,-53,cs),
(241,-77,o),
(260,-84,o),
(267,-85,cs),
(270,-85,o),
(272,-79,o),
(275,-70,c)
);
}
);
width = 637;
},
{
anchors = (
{
name = bottom;
pos = (303,0);
},
{
name = ogonek;
pos = (534,0);
},
{
name = top;
pos = (387,652);
}
);
layerId = "63F4CE79-9D5F-46D3-B41C-385689F27F0A";
shapes = (
{
closed = 1;
nodes = (
(118,-13,o),
(119,-8,o),
(121,-3,c),
(143,58,o),
(175,139,o),
(181,154,c),
(195,155,o),
(234,157,o),
(280,157,cs),
(306,157,o),
(368,155,o),
(398,152,c),
(404,124,o),
(409,96,o),
(412,68,cs),
(414,51,o),
(420,41,o),
(428,33,cs),
(459,2,o),
(543,-13,o),
(598,-13,cs),
(644,-13,o),
(652,-4,o),
(652,14,cs),
(652,17,o),
(651,24,o),
(647,41,cs),
(630,121,o),
(551,425,o),
(518,588,cs),
(511,623,o),
(421,652,o),
(327,652,cs),
(282,652,o),
(275,646,o),
(269,626,cs),
(254,579,o),
(128,311,o),
(24,87,cs),
(16,70,o),
(15,66,o),
(15,58,cs),
(15,16,o),
(60,-13,o),
(101,-13,c)
);
},
{
closed = 1;
nodes = (
(248,318,o),
(301,439,o),
(323,475,c),
(332,437,o),
(364,302,o),
(376,247,c),
(218,247,l)
);
},
{
closed = 1;
nodes = (
(511,684,l),
(514,692,o),
(515,697,o),
(514,702,cs),
(506,726,o),
(462,725,o),
(455,726,cs),
(452,726,o),
(450,720,o),
(447,711,c),
(227,-35,l),
(224,-43,o),
(223,-48,o),
(224,-53,cs),
(232,-77,o),
(276,-86,o),
(283,-87,cs),
(286,-87,o),
(288,-81,o),
(291,-72,c)
);
}
);
width = 658;
}
);
unicode = 570;
},
{
color = 1;
glyphname = AE;
kernLeft = KO_AE;
kernRight = KO_E;
lastChange = "2022-10-09 03:52:39 +0000";
layers = (
{
anchors = (
{
name = bottom;
pos = (400,0);
},
{
name = top;
pos = (412,652);
}
);
layerId = "220B7CD1-1E4F-4884-BA06-A44A5DCE8B14";
shapes = (
{
closed = 1;
nodes = (
(-1,-13,o),
(3,-5,o),
(21,31,cs),
(43,75,o),
(115,209,o),
(158,270,c),
(174,271,o),
(248,271,o),
(298,271,cs),
(338,271,l),
(330,188,o),
(324,38,o),
(320,0,c),
(683,0,ls),
(690,0,o),
(700,26,o),
(700,44,cs),
(700,52,o),
(700,58,o),
(698,58,cs),
(695,58,o),
(616,37,o),
(475,37,cs),
(398,37,o),
(387,43,o),
(387,82,cs),
(387,149,o),
(388,228,o),
(393,312,c),
(433,312,ls),
(574,312,o),
(622,304,o),
(626,304,cs),
(630,304,o),
(636,326,o),
(636,341,cs),
(636,349,o),
(634,355,o),
(631,355,cs),
(396,355,l),
(402,458,o),
(411,552,o),
(417,596,c),
(450,596,ls),
(591,596,o),
(639,587,o),
(642,587,cs),
(646,587,o),
(653,610,o),
(653,625,cs),
(653,633,o),
(650,639,o),
(648,639,cs),
(345,639,ls),
(334,639,o),
(332,634,o),
(326,626,cs),
(228,478,o),
(66,209,o),
(-23,71,cs),
(-36,51,o),
(-37,43,o),
(-37,29,cs),
(-37,7,o),
(-10,-13,o),
(-6,-13,cs)
);
},
{
closed = 1;
nodes = (
(226,392,o),
(305,514,o),
(354,586,c),
(353,520,o),
(345,401,o),
(341,310,c),
(180,310,l)
);
}
);
width = 754;
},
{
anchors = (
{
name = bottom;
pos = (424,0);
},
{
name = top;
pos = (436,652);
}
);
layerId = "63F4CE79-9D5F-46D3-B41C-385689F27F0A";
shapes = (
{
closed = 1;
nodes = (
(125,-13,o),
(126,-8,o),
(128,-3,c),
(150,58,o),
(187,139,o),
(197,154,c),
(211,155,o),
(250,157,o),
(296,157,c),
(345,157,l),
(341,76,o),
(337,15,o),
(337,0,c),
(767,0,l),
(796,0,o),
(802,67,o),
(802,86,c),
(802,112,o),
(802,119,o),
(795,119,c),
(785,119,o),
(713,106,o),
(637,106,c),
(560,106,o),
(549,115,o),
(549,146,c),
(549,190,o),
(554,264,o),
(554,277,c),
(576,277,l),
(655,277,o),
(729,272,o),
(738,272,c),
(748,272,o),
(754,313,o),
(754,342,c),
(754,367,o),
(749,374,o),
(733,374,c),
(557,374,l),
(557,418,o),
(564,524,o),
(569,541,c),
(595,541,l),
(657,541,o),
(740,537,o),
(749,537,c),
(759,537,o),
(765,577,o),
(765,606,c),
(765,631,o),
(760,639,o),
(744,639,c),
(369,639,l),
(324,639,o),
(321,632,o),
(311,613,c),
(292,576,o),
(135,284,o),
(31,87,c),
(22,70,o),
(22,66,o),
(22,58,c),
(22,16,o),
(67,-13,o),
(108,-13,c)
);
},
{
closed = 1;
nodes = (
(262,302,o),
(339,443,o),
(361,476,c),
(360,439,o),
(352,271,o),
(351,247,c),
(232,247,l)
);
}
);
width = 814;
}
);
metricRight = E;
note = AE;
unicode = 198;
},
{
color = 1;
glyphname = B;
kernLeft = KO_B;
kernRight = KO_B;
lastChange = "2023-02-09 04:17:22 +0000";
layers = (
{
anchors = (
{
name = bottom;
pos = (246,0);
},
{
name = top;
pos = (286,652);
}
);
layerId = "220B7CD1-1E4F-4884-BA06-A44A5DCE8B14";
shapes = (
{
closed = 1;
nodes = (
(256,0,ls),
(403,0,o),
(482,102,o),
(482,196,cs),
(482,272,o),
(433,341,o),
(327,350,c),
(353,360,o),
(462,397,o),
(462,510,cs),
(462,593,o),
(400,639,o),
(277,639,cs),
(134,639,l),
(125,422,o),
(105,76,o),
(98,0,c)
);
},
{
closed = 1;
nodes = (
(176,37,o),
(164,43,o),
(164,82,cs),
(164,142,o),
(168,278,o),
(172,320,c),
(201,320,o),
(230,320,o),
(259,320,cs),
(321,320,o),
(422,305,o),
(422,199,cs),
(422,91,o),
(355,37,o),
(253,37,cs)
);
},
{
closed = 1;
nodes = (
(181,460,o),
(188,551,o),
(195,596,c),
(214,598,o),
(250,602,o),
(269,602,cs),
(357,602,o),
(403,575,o),
(403,503,cs),
(403,460,o),
(383,419,o),
(355,397,cs),
(313,364,o),
(266,357,o),
(176,357,c)
);
}
);
width = 561;
},
{
anchors = (
{
name = bottom;
pos = (358,0);
},
{
name = top;
pos = (393,652);
}
);
layerId = "63F4CE79-9D5F-46D3-B41C-385689F27F0A";
shapes = (
{
closed = 1;
nodes = (
(413,0,ls),
(579,0,o),
(680,85,o),
(680,205,cs),
(680,294,o),
(614,342,o),
(525,351,c),
(589,364,o),
(668,413,o),
(668,502,cs),
(668,603,o),
(590,639,o),
(454,639,cs),
(92,639,l),
(92,441,o),
(63,42,o),
(63,0,c)
);
},
{
closed = 1;
nodes = (
(302,88,o),
(285,100,o),
(287,135,c),
(290,193,o),
(292,250,o),
(295,308,c),
(304,308,o),
(314,308,o),
(327,306,cs),
(393,296,o),
(452,265,o),
(452,185,cs),
(452,140,o),
(416,88,o),
(343,88,c)
);
},
{
closed = 1;
nodes = (
(296,386,o),
(305,529,o),
(310,553,c),
(322,553,o),
(333,553,o),
(345,553,cs),
(410,553,o),
(443,520,o),
(443,471,cs),
(443,441,o),
(432,411,o),
(406,388,cs),
(383,368,o),
(348,354,o),
(298,354,c)
);
}
);
width = 713;
}
);
metricLeft = "=H";
note = B;
unicode = 66;
},
{
color = 6;
glyphname = Bhook;
kernRight = KO_B;
lastChange = "2023-02-10 03:44:43 +0000";
layers = (
{
layerId = "220B7CD1-1E4F-4884-BA06-A44A5DCE8B14";
shapes = (
{
closed = 1;
nodes = (
(287,460,o),
(294,551,o),
(301,596,c),
(320,598,o),
(356,602,o),
(375,602,cs),
(463,602,o),
(509,575,o),
(509,503,cs),
(509,460,o),
(489,419,o),
(461,397,cs),
(419,364,o),
(372,357,o),
(282,357,c)
);
},
{
closed = 1;
nodes = (
(282,37,o),
(270,43,o),
(270,82,cs),
(270,142,o),
(274,278,o),
(278,320,c),
(307,320,o),
(336,320,o),
(365,320,cs),
(427,320,o),
(528,305,o),
(528,199,cs),
(528,91,o),
(461,37,o),
(359,37,cs)
);
},
{
closed = 1;
nodes = (
(362,0,ls),
(509,0,o),
(588,102,o),
(588,196,cs),
(588,272,o),
(539,341,o),
(433,350,c),
(459,360,o),
(568,397,o),
(568,510,cs),
(568,593,o),
(506,639,o),
(383,639,cs),
(240,639,ls),
(184,639,o),
(128,618,o),
(87,574,cs),
(54,539,o),
(34,501,o),
(34,460,cs),
(34,418,o),
(56,367,o),
(73,342,cs),
(77,337,o),
(81,336,o),
(87,336,cs),
(99,336,o),
(112,340,o),
(112,346,cs),
(112,351,o),
(106,364,o),
(105,367,cs),
(103,373,o),
(86,422,o),
(86,484,cs),
(86,531,o),
(145,595,o),
(237,595,c),
(227,380,o),
(210,69,o),
(204,0,c)
);
}
);
width = 667;
},
{
layerId = "63F4CE79-9D5F-46D3-B41C-385689F27F0A";
shapes = (
{
closed = 1;
nodes = (
(441,386,o),
(450,529,o),
(455,553,c),
(467,553,o),
(478,553,o),
(490,553,cs),
(555,553,o),
(588,520,o),
(588,471,cs),
(588,441,o),
(577,411,o),
(551,388,cs),
(528,368,o),
(493,354,o),
(443,354,c)
);
},
{
closed = 1;
nodes = (
(447,88,o),
(430,100,o),
(432,135,cs),
(435,193,o),
(437,250,o),
(440,308,c),
(449,308,o),
(459,308,o),
(472,306,cs),
(538,296,o),
(597,265,o),
(597,185,cs),
(597,140,o),
(561,88,o),
(488,88,cs)
);
},
{
closed = 1;
nodes = (
(558,0,ls),
(724,0,o),
(825,85,o),
(825,205,cs),
(825,294,o),
(759,342,o),
(670,351,c),
(734,364,o),
(813,413,o),
(813,502,cs),
(813,603,o),
(735,639,o),
(599,639,cs),
(237,639,ls),
(182,638,o),
(123,628,o),
(80,580,cs),
(33,527,o),
(28,463,o),
(28,414,cs),
(28,367,o),
(38,326,o),
(46,311,cs),
(54,296,o),
(71,292,o),
(94,292,cs),
(110,292,o),
(127,300,o),
(127,310,cs),
(127,313,o),
(126,317,o),
(125,325,cs),
(124,335,o),
(123,345,o),
(123,359,cs),
(123,495,o),
(139,523,o),
(235,525,c),
(228,317,o),
(208,35,o),
(208,0,c)
);
}
);
width = 858;
}
);
metricLeft = T;
metricRight = B;
unicode = 385;
},
{
color = 6;
glyphname = Bstroke;
kernRight = KO_B;
lastChange = "2023-02-09 03:29:22 +0000";
layers = (
{
layerId = "220B7CD1-1E4F-4884-BA06-A44A5DCE8B14";
shapes = (
{
closed = 1;
nodes = (
(285,0,ls),
(432,0,o),
(511,102,o),
(511,196,cs),
(511,272,o),
(462,341,o),
(356,350,c),
(382,360,o),
(491,397,o),
(491,510,cs),
(491,593,o),
(429,639,o),
(306,639,cs),
(163,639,l),
(154,422,o),
(134,76,o),
(127,0,c)
);
},
{
closed = 1;
nodes = (
(210,460,o),
(217,551,o),
(224,596,c),
(243,598,o),
(279,602,o),
(298,602,cs),
(386,602,o),
(432,575,o),
(432,503,cs),
(432,460,o),
(412,419,o),
(384,397,cs),
(342,364,o),
(295,357,o),
(205,357,c)
);
},
{
closed = 1;
nodes = (
(205,37,o),
(193,43,o),
(193,82,cs),
(193,142,o),
(197,278,o),
(201,320,c),
(230,320,o),
(259,320,o),
(288,320,cs),
(350,320,o),
(451,305,o),
(451,199,cs),
(451,91,o),
(384,37,o),
(282,37,cs)
);
},
{
closed = 1;
nodes = (
(323,164,ls),
(332,164,o),
(337,183,o),
(337,201,cs),
(337,207,o),
(334,211,o),
(329,211,cs),
(56,211,ls),
(47,211,o),
(41,191,o),
(41,173,cs),
(41,167,o),
(43,163,o),
(48,163,cs)
);
}
);
width = 590;
},
{
layerId = "63F4CE79-9D5F-46D3-B41C-385689F27F0A";
shapes = (
{
closed = 1;
nodes = (
(420,0,ls),
(586,0,o),
(687,85,o),
(687,205,cs),
(687,294,o),
(621,342,o),
(532,351,c),
(596,364,o),
(675,413,o),
(675,502,cs),
(675,603,o),
(597,639,o),
(461,639,cs),
(99,639,l),
(99,441,o),
(70,42,o),
(70,0,c)
);
},
{
closed = 1;
nodes = (
(303,386,o),
(312,529,o),
(317,553,c),
(329,553,o),
(340,553,o),
(352,553,cs),
(417,553,o),
(450,520,o),
(450,471,cs),
(450,441,o),
(439,411,o),
(413,388,cs),
(390,368,o),
(355,354,o),
(305,354,c)
);
},
{
closed = 1;
nodes = (
(309,88,o),
(292,100,o),
(294,135,c),
(297,193,o),
(299,250,o),
(302,308,c),
(311,308,o),
(321,308,o),
(334,306,cs),
(400,296,o),
(459,265,o),
(459,185,cs),
(459,140,o),
(423,88,o),
(350,88,c)
);
},
{
closed = 1;
nodes = (
(343,140,ls),
(358,140,o),
(369,162,o),
(369,213,cs),
(369,242,o),
(366,245,o),
(356,245,cs),
(41,245,ls),
(26,245,o),
(15,218,o),
(15,178,cs),
(15,144,o),
(18,140,o),
(28,140,cs)
);
}
);
width = 720;
}
);
metricLeft = Eth;
metricRight = B;
unicode = 579;
},
{
color = 1;
glyphname = C;
kernLeft = KO_C;
kernRight = KO_C;
lastChange = "2023-02-09 04:17:22 +0000";
layers = (
{
anchors = (
{
name = bottom;
pos = (365,0);
},
{
name = top;
pos = (404,652);
}
);
layerId = "220B7CD1-1E4F-4884-BA06-A44A5DCE8B14";
shapes = (
{
closed = 1;
nodes = (
(493,-13,o),
(577,10,o),
(603,26,cs),
(613,32,o),
(616,50,o),
(616,68,cs),
(616,76,o),
(616,82,o),
(613,82,cs),
(610,82,o),
(603,79,o),
(593,74,cs),
(560,57,o),
(485,32,o),
(388,32,cs),
(244,32,o),
(121,121,o),
(121,316,cs),
(121,513,o),
(243,613,o),
(396,613,cs),
(525,613,o),
(587,555,o),
(605,555,cs),
(611,555,o),
(616,581,o),
(616,596,cs),
(616,603,o),
(618,610,o),
(597,620,cs),
(556,640,o),
(491,652,o),
(384,652,cs),
(149,652,o),
(60,476,o),
(60,312,cs),
(60,58,o),
(241,-13,o),
(398,-13,cs)
);
}
);
width = 671;
},
{
anchors = (
{
name = bottom;
pos = (378,0);
},
{
name = top;
pos = (417,652);
}
);
layerId = "63F4CE79-9D5F-46D3-B41C-385689F27F0A";
shapes = (
{
closed = 1;
nodes = (
(476,-13,o),
(515,-10,o),
(574,7,cs),
(603,15,o),
(622,46,o),
(622,117,cs),
(622,131,o),
(620,137,o),
(611,137,cs),
(606,137,o),
(599,135,o),
(589,132,cs),
(532,113,o),
(492,110,o),
(439,110,cs),
(322,110,o),
(273,165,o),
(273,313,c),
(273,492,o),
(348,526,o),
(423,526,cs),
(532,526,o),
(586,486,o),
(603,486,c),
(636,486,o),
(639,555,o),
(639,571,c),
(639,595,o),
(635,613,o),
(612,621,c),
(549,643,o),
(483,652,o),
(416,652,c),
(201,652,o),
(45,594,o),
(45,275,c),
(45,63,o),
(169,-13,o),
(402,-13,cs)
);
}
);
width = 647;
}
);
note = C;
unicode = 67;
},
{
color = 6;
glyphname = Cbar;
lastChange = "2023-02-09 03:22:47 +0000";
layers = (
{
anchors = (
{
name = bottom;
pos = (365,0);
},
{
name = top;
pos = (404,652);
}
);
layerId = "220B7CD1-1E4F-4884-BA06-A44A5DCE8B14";
shapes = (
{
closed = 1;
nodes = (
(493,-13,o),
(577,10,o),
(603,26,cs),
(613,32,o),
(616,50,o),
(616,68,cs),
(616,76,o),
(616,82,o),
(613,82,cs),
(610,82,o),
(603,79,o),
(593,74,cs),
(560,57,o),
(485,32,o),
(388,32,cs),
(244,32,o),
(121,121,o),
(121,316,cs),
(121,513,o),
(243,613,o),
(396,613,cs),
(525,613,o),
(587,555,o),
(605,555,cs),
(611,555,o),
(616,581,o),
(616,596,cs),
(616,603,o),
(618,610,o),
(597,620,cs),
(556,640,o),
(491,652,o),
(384,652,cs),
(149,652,o),
(60,476,o),
(60,312,cs),
(60,58,o),
(241,-13,o),
(398,-13,cs)
);
},
{
closed = 1;
nodes = (
(30,297,o),
(126,297,o),
(223,298,cs),
(320,298,o),
(417,298,o),
(419,298,cs),
(428,298,o),
(433,312,o),
(433,330,cs),
(433,336,o),
(430,340,o),
(425,340,c),
(36,340,l),
(27,340,o),
(21,325,o),
(21,307,cs),
(21,301,o),
(23,297,o),
(28,297,cs)
);
}
);
width = 671;
},
{
anchors = (
{
name = bottom;
pos = (378,0);
},
{
name = top;
pos = (417,652);
}
);
layerId = "63F4CE79-9D5F-46D3-B41C-385689F27F0A";
shapes = (
{
closed = 1;
nodes = (
(476,-13,o),
(515,-10,o),
(574,7,cs),
(603,15,o),
(622,46,o),
(622,117,cs),
(622,131,o),
(620,137,o),
(611,137,cs),
(606,137,o),
(599,135,o),
(589,132,cs),
(532,113,o),
(492,110,o),
(439,110,cs),
(322,110,o),
(273,165,o),
(273,313,c),
(273,492,o),
(348,526,o),
(423,526,cs),
(532,526,o),
(586,486,o),
(603,486,c),
(636,486,o),
(639,555,o),
(639,571,c),
(639,595,o),
(635,613,o),
(612,621,c),
(549,643,o),
(483,652,o),
(416,652,c),
(201,652,o),
(45,594,o),
(45,275,c),
(45,63,o),
(169,-13,o),
(402,-13,cs)
);
},
{
closed = 1;
nodes = (
(152,276,o),
(213,280,o),
(244,280,cs),
(283,280,o),
(321,276,o),
(450,276,cs),
(465,276,o),
(476,298,o),
(476,334,cs),
(476,357,o),
(473,360,o),
(463,360,cs),
(34,360,ls),
(19,360,o),
(8,338,o),
(8,302,cs),
(8,279,o),
(11,276,o),
(21,276,cs)
);
}
);
width = 647;
}
);
unicode = 42898;
},
{
color = 6;
glyphname = Chook;
lastChange = "2023-02-10 03:26:12 +0000";
layers = (
{
anchors = (
{
name = bottom;
pos = (365,0);
},
{
name = top;
pos = (404,652);
}
);
layerId = "220B7CD1-1E4F-4884-BA06-A44A5DCE8B14";
shapes = (
{
closed = 1;
nodes = (
(493,-13,o),
(577,10,o),
(603,26,cs),
(613,32,o),
(616,50,o),
(616,68,cs),
(616,76,o),
(616,82,o),
(613,82,cs),
(610,82,o),
(603,79,o),
(593,74,cs),
(560,57,o),
(485,32,o),
(388,32,cs),
(244,32,o),
(121,121,o),
(121,316,cs),
(121,513,o),
(243,613,o),
(396,613,cs),
(525,613,o),
(587,555,o),
(605,555,c),
(619,561,o),
(615,581,o),
(616,596,cs),
(622,665,o),
(636,710,o),
(670,710,cs),
(682,710,o),
(693,709,o),
(714,704,cs),
(721,702,o),
(730,697,o),
(735,697,cs),
(741,697,o),
(745,710,o),
(745,722,cs),
(745,728,o),
(744,732,o),
(739,736,cs),
(714,753,o),
(696,759,o),
(684,759,cs),
(653,759,o),
(625,748,o),
(600,706,cs),
(583,678,o),
(579,645,o),
(578,622,c),
(536,637,o),
(476,652,o),
(384,652,cs),
(149,652,o),
(60,476,o),
(60,312,cs),
(60,58,o),
(241,-13,o),
(398,-13,cs)
);
}
);
width = 671;
},
{
anchors = (
{
name = bottom;
pos = (378,0);
},
{
name = top;
pos = (417,652);
}
);
layerId = "63F4CE79-9D5F-46D3-B41C-385689F27F0A";
shapes = (
{
closed = 1;
nodes = (
(476,-13,o),
(515,-10,o),
(574,7,cs),
(603,15,o),
(622,46,o),
(622,117,cs),
(622,131,o),
(620,137,o),
(611,137,cs),
(606,137,o),
(599,135,o),
(589,132,cs),
(532,113,o),
(492,110,o),
(439,110,cs),
(322,110,o),
(273,165,o),
(273,313,cs),
(273,492,o),
(348,526,o),
(423,526,cs),
(532,526,o),
(586,486,o),
(603,486,cs),
(636,486,o),
(639,555,o),
(639,571,cs),
(639,628,o),
(658,661,o),
(691,661,cs),
(705,661,o),
(715,660,o),
(725,659,cs),
(733,658,o),
(737,657,o),
(740,657,cs),
(750,657,o),
(758,674,o),
(758,690,cs),
(758,713,o),
(754,730,o),
(739,738,cs),
(724,746,o),
(683,756,o),
(636,756,cs),
(617,756,o),
(591,753,o),
(562,714,cs),
(548,695,o),
(538,671,o),
(531,642,c),
(493,649,o),
(455,652,o),
(416,652,cs),
(201,652,o),
(45,594,o),
(45,275,cs),
(45,63,o),
(169,-13,o),
(402,-13,cs)
);
}
);
width = 647;
}
);
metricLeft = C;
metricWidth = C;
unicode = 391;
},
{
color = 6;
glyphname = Cstroke;
lastChange = "2023-02-10 00:39:56 +0000";
layers = (
{
anchors = (
{
name = bottom;
pos = (365,0);
},
{
name = top;
pos = (404,652);
}
);
layerId = "220B7CD1-1E4F-4884-BA06-A44A5DCE8B14";
shapes = (
{
closed = 1;
nodes = (
(493,-13,o),
(577,10,o),
(603,26,cs),
(613,32,o),
(616,50,o),
(616,68,cs),
(616,76,o),
(616,82,o),
(613,82,cs),
(610,82,o),
(603,79,o),
(593,74,cs),
(560,57,o),
(485,32,o),
(388,32,cs),
(244,32,o),
(121,121,o),
(121,316,cs),
(121,513,o),
(243,613,o),
(396,613,cs),
(525,613,o),
(587,555,o),
(605,555,cs),
(611,555,o),
(616,581,o),
(616,596,cs),
(616,603,o),
(618,610,o),
(597,620,cs),
(556,640,o),
(491,652,o),
(384,652,cs),
(149,652,o),
(60,476,o),
(60,312,cs),
(60,58,o),
(241,-13,o),
(398,-13,cs)
);
},
{
closed = 1;
nodes = (
(514,676,l),
(517,684,o),
(518,689,o),
(517,694,cs),
(509,718,o),
(491,725,o),
(484,726,cs),
(481,726,o),
(479,720,o),
(476,711,c),
(236,-35,l),
(233,-43,o),
(232,-48,o),
(233,-53,cs),
(241,-77,o),
(260,-84,o),
(267,-85,cs),
(270,-85,o),
(272,-79,o),
(275,-70,c)
);
}
);
width = 671;
},
{
anchors = (
{
name = bottom;
pos = (378,0);
},
{
name = top;
pos = (417,652);
}
);
layerId = "63F4CE79-9D5F-46D3-B41C-385689F27F0A";
shapes = (
{
closed = 1;
nodes = (
(476,-13,o),
(515,-10,o),
(574,7,cs),
(603,15,o),
(622,46,o),
(622,117,cs),
(622,131,o),
(620,137,o),
(611,137,cs),
(606,137,o),
(599,135,o),
(589,132,cs),
(532,113,o),
(492,110,o),
(439,110,cs),
(322,110,o),
(273,165,o),
(273,313,c),
(273,492,o),
(348,526,o),
(423,526,cs),
(532,526,o),
(586,486,o),
(603,486,c),
(636,486,o),
(639,555,o),
(639,571,c),
(639,595,o),
(635,613,o),
(612,621,c),
(549,643,o),
(483,652,o),
(416,652,c),
(201,652,o),
(45,594,o),
(45,275,c),
(45,63,o),
(169,-13,o),
(402,-13,cs)
);
},
{
closed = 1;
nodes = (
(526,684,l),
(529,692,o),
(530,697,o),
(529,702,cs),
(521,726,o),
(477,725,o),
(470,726,cs),
(467,726,o),
(465,720,o),
(462,711,c),
(242,-35,l),
(239,-43,o),
(238,-48,o),
(239,-53,cs),
(247,-77,o),
(291,-86,o),
(298,-87,cs),
(301,-87,o),
(303,-81,o),
(306,-72,c)
);
}
);
width = 647;
}
);
metricLeft = C;
metricWidth = C;
unicode = 571;
},
{
color = 1;
glyphname = D;
kernLeft = KO_D;
kernRight = KO_D;
lastChange = "2023-02-09 04:17:22 +0000";
layers = (
{
anchors = (
{
name = bottom;
pos = (331,0);
},
{
name = center;
pos = (371,326);
},
{
name = top;
pos = (371,652);
}
);
layerId = "220B7CD1-1E4F-4884-BA06-A44A5DCE8B14";
shapes = (
{
closed = 1;
nodes = (
(280,0,ls),
(557,0,o),
(676,157,o),
(676,365,cs),
(676,552,o),
(561,639,o),
(360,639,cs),
(134,639,l),
(125,422,o),
(101,37,o),
(98,0,c)
);
},
{
closed = 1;
nodes = (
(176,37,o),
(164,43,o),
(164,82,cs),
(164,262,o),
(183,458,o),
(195,596,c),
(241,601,o),
(283,603,o),
(322,603,cs),
(517,603,o),
(608,537,o),
(608,349,cs),
(608,123,o),
(467,37,o),
(253,37,cs)
);
}
);
width = 732;
},
{
anchors = (
{
name = bottom;
pos = (379,0);
},
{
name = center;
pos = (379,326);
},
{
name = top;
pos = (438,652);
}
);
layerId = "63F4CE79-9D5F-46D3-B41C-385689F27F0A";
shapes = (
{
closed = 1;
nodes = (
(415,0,ls),
(605,0,o),
(763,80,o),
(763,364,cs),
(763,623,o),
(602,639,o),
(446,639,cs),
(92,639,l),
(92,441,o),
(63,42,o),
(63,0,c)
);
},
{
closed = 1;
nodes = (
(299,92,o),
(288,98,o),
(288,137,c),
(288,327,o),
(306,519,o),
(308,542,c),
(328,545,o),
(352,547,o),
(398,547,cs),
(483,547,o),
(535,496,o),
(535,364,cs),
(535,122,o),
(471,92,o),
(376,92,cs)
);
}
);
width = 783;
}
);
metricLeft = "=H";
note = D;
unicode = 68;
},
{
color = 6;
glyphname = Dhook;
kernRight = KO_D;
lastChange = "2023-02-09 06:07:33 +0000";
layers = (
{
anchors = (
{
name = bottom;
pos = (437,0);
},
{
name = center;
pos = (477,326);
},
{
name = top;
pos = (477,652);
}
);
layerId = "220B7CD1-1E4F-4884-BA06-A44A5DCE8B14";
shapes = (
{
closed = 1;
nodes = (
(386,0,ls),
(663,0,o),
(782,157,o),
(782,365,cs),
(782,552,o),
(667,639,o),
(466,639,cs),
(240,639,ls),
(184,639,o),
(128,618,o),
(87,574,cs),
(54,539,o),
(34,501,o),
(34,460,cs),
(34,418,o),
(56,367,o),
(73,342,cs),
(77,337,o),
(81,336,o),
(87,336,cs),
(99,336,o),
(112,340,o),
(112,346,cs),
(112,351,o),
(106,364,o),
(105,367,cs),
(103,373,o),
(86,422,o),
(86,484,cs),
(86,531,o),
(145,595,o),
(237,595,cs),
(228,374,o),
(207,35,o),
(204,0,c)
);
},
{
closed = 1;
nodes = (
(282,37,o),
(270,43,o),
(270,82,cs),
(270,262,o),
(289,458,o),
(301,596,c),
(347,601,o),
(389,603,o),
(428,603,cs),
(623,603,o),
(714,537,o),
(714,349,cs),
(714,123,o),
(573,37,o),
(359,37,cs)
);
}
);
width = 838;
},
{
anchors = (
{
name = bottom;
pos = (497,0);
},
{
name = center;
pos = (557,326);
},
{
name = top;
pos = (545,652);
}
);
layerId = "63F4CE79-9D5F-46D3-B41C-385689F27F0A";
shapes = (
{
closed = 1;
nodes = (
(560,0,ls),
(750,0,o),
(908,80,o),
(908,364,cs),
(908,623,o),
(747,639,o),
(591,639,cs),
(237,639,ls),
(182,639,o),
(123,628,o),
(80,580,cs),
(33,527,o),
(28,463,o),
(28,414,cs),
(28,367,o),
(38,326,o),
(46,311,cs),
(54,296,o),
(71,292,o),
(94,292,cs),
(110,292,o),
(127,300,o),
(127,310,cs),
(127,313,o),
(126,317,o),
(125,325,cs),
(124,335,o),
(123,345,o),
(123,359,cs),
(123,495,o),
(139,523,o),
(235,525,c),
(228,317,o),
(208,35,o),
(208,0,c)
);
},
{
closed = 1;
nodes = (
(444,92,o),
(433,98,o),
(433,137,cs),
(433,327,o),
(451,519,o),
(453,542,c),
(473,545,o),
(497,547,o),
(543,547,cs),
(628,547,o),
(680,496,o),
(680,364,cs),
(680,122,o),
(616,92,o),
(521,92,cs)
);
}
);
width = 928;
}
);
metricLeft = T;
metricRight = D;
unicode = 394;
},
{
color = 4;
glyphname = Eth;
kernLeft = KO_Eth;
kernRight = KO_D;
lastChange = "2022-10-09 03:52:55 +0000";
layers = (
{
layerId = "220B7CD1-1E4F-4884-BA06-A44A5DCE8B14";
shapes = (
{
closed = 1;
nodes = (
(291,0,ls),
(568,0,o),
(687,157,o),
(687,365,cs),
(687,552,o),
(572,639,o),
(371,639,cs),
(145,639,l),
(141,554,o),
(136,448,o),
(131,349,c),
(56,349,ls),
(47,349,o),
(41,329,o),
(41,311,cs),
(41,305,o),
(43,301,o),
(48,301,cs),
(51,301,o),
(86,305,o),
(129,305,c),
(121,165,o),
(114,40,o),
(109,0,c)
);
},
{
closed = 1;
nodes = (
(187,37,o),
(175,43,o),
(175,82,cs),
(175,156,o),
(178,232,o),
(183,305,c),
(283,304,o),
(318,302,o),
(323,302,cs),
(332,302,o),
(337,321,o),
(337,339,cs),
(337,345,o),
(334,349,o),
(329,349,cs),
(186,349,l),
(192,441,o),
(201,526,o),
(206,596,c),
(252,601,o),
(294,603,o),
(333,603,cs),
(528,603,o),
(619,538,o),
(619,349,cs),
(619,124,o),
(478,37,o),
(264,37,cs)
);
}
);
width = 743;
},
{
layerId = "63F4CE79-9D5F-46D3-B41C-385689F27F0A";
shapes = (
{
closed = 1;
nodes = (
(425,0,ls),
(615,0,o),
(773,80,o),
(773,364,cs),
(773,623,o),
(612,639,o),
(456,639,cs),
(102,639,l),
(102,566,o),
(98,466,o),
(94,379,cs),
(41,379,ls),
(26,379,o),
(15,348,o),
(15,299,cs),
(15,265,o),
(18,261,o),
(28,261,cs),
(43,261,o),
(68,261,o),
(89,261,cs),
(81,132,o),
(73,21,o),
(73,0,c)
);
},
{
closed = 1;
nodes = (
(309,92,o),
(298,98,o),
(298,137,c),
(298,181,o),
(299,224,o),
(301,261,cs),
(337,261,o),
(369,261,o),
(403,261,cs),
(418,261,o),
(429,292,o),
(429,343,cs),
(429,376,o),
(426,379,o),
(416,379,cs),
(306,379,ls),
(310,461,o),
(317,529,o),
(318,542,c),
(338,545,o),
(362,547,o),
(408,547,cs),
(493,547,o),
(545,496,o),
(545,363,cs),
(545,122,o),
(481,92,o),
(386,92,cs)
);
}
);
width = 793;
}
);
metricRight = "=D";
note = Eth;
unicode = 208;
},
{
color = 1;
glyphname = E;
kernLeft = KO_E;
kernRight = KO_E;
lastChange = "2023-02-09 04:17:22 +0000";
layers = (
{
anchors = (
{
name = bottom;
pos = (279,0);
},
{
name = ogonek;
pos = (419,0);
},
{
name = top;
pos = (309,652);
},
{
name = topleft;
pos = (22,652);
}
);
layerId = "220B7CD1-1E4F-4884-BA06-A44A5DCE8B14";
shapes = (
{
closed = 1;
nodes = (
(482,0,ls),
(489,0,o),
(499,26,o),
(499,44,cs),
(499,52,o),
(499,58,o),
(494,58,cs),
(487,58,o),
(435,37,o),
(254,37,cs),
(177,37,o),
(165,43,o),
(165,82,cs),
(165,149,o),
(167,228,o),
(172,312,c),
(212,312,ls),
(353,312,o),
(421,304,o),
(425,304,cs),
(429,304,o),
(435,326,o),
(435,341,cs),
(435,349,o),
(432,355,o),
(430,355,cs),
(174,355,l),
(181,458,o),
(189,552,o),
(196,596,c),
(228,596,ls),
(369,596,o),
(438,587,o),
(441,587,cs),
(445,587,o),
(451,610,o),
(451,625,cs),
(451,633,o),
(449,639,o),
(446,639,cs),
(135,639,l),
(126,422,o),
(106,76,o),
(98,0,c)
);
}
);
width = 553;
},
{
anchors = (
{
name = bottom;
pos = (287,0);
},
{
name = ogonek;
pos = (427,0);
},
{
name = top;
pos = (308,652);
},
{
name = topleft;
pos = (30,652);
}
);
layerId = "63F4CE79-9D5F-46D3-B41C-385689F27F0A";
shapes = (
{
closed = 1;
nodes = (
(506,0,ls),
(535,0,o),
(541,67,o),
(541,86,cs),
(541,112,o),
(541,119,o),
(534,119,cs),
(524,119,o),
(452,106,o),
(376,106,cs),
(299,106,o),
(288,115,o),
(288,146,c),
(288,190,o),
(293,264,o),
(293,277,c),
(315,277,ls),
(394,277,o),
(468,272,o),
(477,272,cs),
(487,272,o),
(493,313,o),
(493,342,cs),
(493,367,o),
(488,374,o),
(472,374,cs),
(296,374,l),
(296,418,o),
(303,524,o),
(308,541,c),
(334,541,ls),
(396,541,o),
(479,537,o),
(488,537,cs),
(498,537,o),
(504,577,o),
(504,606,cs),
(504,631,o),
(499,639,o),
(483,639,cs),
(92,639,l),
(92,441,o),
(63,42,o),
(63,0,c)
);
}
);
width = 553;
}
);
metricLeft = H;
note = E;
unicode = 69;
},
{
color = 5;
glyphname = Ecircumflex;
kernLeft = KO_E;
kernRight = KO_E;
lastChange = "2023-02-14 06:15:54 +0000";
layers = (
{
background = {
shapes = (
{
closed = 1;
nodes = (
(480,0,ls),
(487,0,o),
(497,26,o),
(497,44,cs),
(497,52,o),
(497,58,o),
(492,58,cs),
(485,58,o),
(433,37,o),
(252,37,cs),
(175,37,o),
(163,43,o),
(163,82,cs),
(163,149,o),
(165,228,o),
(170,312,c),
(210,312,ls),
(351,312,o),
(419,304,o),
(423,304,cs),
(427,304,o),
(433,326,o),
(433,341,cs),
(433,349,o),
(430,355,o),
(428,355,cs),
(172,355,l),
(179,458,o),
(187,552,o),
(194,596,c),
(226,596,ls),
(367,596,o),
(436,587,o),
(439,587,cs),
(443,587,o),
(449,610,o),
(449,625,cs),
(449,633,o),
(447,639,o),
(444,639,cs),
(133,639,l),
(124,422,o),
(104,76,o),
(96,0,c)
);
},
{
closed = 1;
nodes = (
(168,698,o),
(256,782,o),
(314,830,c),
(349,786,o),
(411,698,o),
(412,693,c),
(414,694,o),
(433,707,o),
(433,717,cs),
(433,726,o),
(428,738,o),
(423,746,cs),
(402,782,o),
(358,847,o),
(328,886,cs),
(324,891,o),
(319,892,o),
(316,892,cs),
(312,892,o),
(309,891,o),
(304,886,cs),
(286,871,o),
(168,759,o),
(155,738,cs),
(152,733,o),
(150,727,o),
(150,722,cs),
(150,708,o),
(163,696,o),
(165,693,c)
);
}
);
};
layerId = "220B7CD1-1E4F-4884-BA06-A44A5DCE8B14";
shapes = (
{
ref = E;
},
{
pos = (167,0);
ref = circumflexcomb.case;
}
);
width = 553;
},
{
layerId = "63F4CE79-9D5F-46D3-B41C-385689F27F0A";
shapes = (
{
ref = E;
},
{
pos = (166,0);
ref = circumflexcomb.case;
}
);
width = 553;
}
);
note = Ecircumflex;
unicode = 202;
},
{
color = 5;
glyphname = Edieresis;
kernLeft = KO_E;
kernRight = KO_E;
lastChange = "2023-02-16 05:00:19 +0000";
layers = (
{
background = {
shapes = (
{
closed = 1;
nodes = (
(480,0,ls),
(487,0,o),
(497,26,o),
(497,44,cs),
(497,52,o),
(497,58,o),
(492,58,cs),
(485,58,o),
(433,37,o),
(252,37,cs),
(175,37,o),
(163,43,o),
(163,82,cs),
(163,149,o),
(165,228,o),
(170,312,c),
(210,312,ls),
(351,312,o),
(419,304,o),
(423,304,cs),
(427,304,o),
(433,326,o),
(433,341,cs),
(433,349,o),
(430,355,o),
(428,355,cs),
(172,355,l),
(179,458,o),
(187,552,o),
(194,596,c),
(226,596,ls),
(367,596,o),
(436,587,o),
(439,587,cs),
(443,587,o),
(449,610,o),
(449,625,cs),
(449,633,o),
(447,639,o),
(444,639,cs),
(133,639,l),
(124,422,o),
(104,76,o),
(96,0,c)
);
},
{
closed = 1;
nodes = (
(215,756,o),
(234,781,o),
(234,802,cs),
(234,836,o),
(220,848,o),
(205,848,cs),
(184,848,o),
(161,824,o),
(161,791,cs),
(161,767,o),
(175,756,o),
(195,756,cs)
);
},
{
closed = 1;
nodes = (
(415,756,o),
(434,781,o),
(434,802,cs),
(434,836,o),
(420,848,o),
(405,848,cs),
(384,848,o),
(361,824,o),
(361,791,cs),
(361,767,o),
(375,756,o),
(395,756,cs)
);
}
);
};
layerId = "220B7CD1-1E4F-4884-BA06-A44A5DCE8B14";
shapes = (
{
ref = E;
},
{
pos = (158,13);
ref = dieresiscomb.case;
}
);
width = 553;
},
{
layerId = "63F4CE79-9D5F-46D3-B41C-385689F27F0A";
shapes = (
{
ref = E;
},
{
pos = (111,13);
ref = dieresiscomb.case;
}
);
width = 553;
}
);
note = Edieresis;
unicode = 203;
},
{
color = 7;
glyphname = Ereversed;
lastChange = "2022-10-11 14:33:25 +0000";
layers = (
{
layerId = "220B7CD1-1E4F-4884-BA06-A44A5DCE8B14";
shapes = (
{
closed = 1;
nodes = (
(433,0,l),
(434,76,o),
(457,422,o),
(474,639,c),
(163,639,ls),
(160,639,o),
(157,633,o),
(156,625,cs),
(155,610,o),
(158,587,o),
(162,587,cs),
(165,587,o),
(235,596,o),
(376,596,cs),
(408,596,l),
(409,552,o),
(406,458,o),
(400,355,c),
(144,355,ls),
(142,355,o),
(139,349,o),
(138,341,cs),
(136,326,o),
(139,304,o),
(143,304,cs),
(147,304,o),
(216,312,o),
(357,312,cs),
(397,312,l),
(392,228,o),
(384,149,o),
(376,82,cs),
(371,43,o),
(358,37,o),
(281,37,cs),
(100,37,o),
(51,58,o),
(44,58,cs),
(39,58,o),
(38,52,o),
(37,44,cs),
(35,26,o),
(42,0,o),
(49,0,cs)
);
}
);
width = 563;
},
{
layerId = "63F4CE79-9D5F-46D3-B41C-385689F27F0A";
shapes = (
{
closed = 1;
nodes = (
(495,0,l),
(500,42,o),
(512,441,o),
(533,639,c),
(142,639,ls),
(126,639,o),
(120,631,o),
(118,606,cs),
(114,577,o),
(116,537,o),
(126,537,cs),
(135,537,o),
(218,541,o),
(280,541,cs),
(306,541,l),
(310,524,o),
(305,418,o),
(302,374,c),
(126,374,ls),
(110,374,o),
(103,367,o),
(101,342,cs),
(97,313,o),
(100,272,o),
(110,272,cs),
(119,272,o),
(193,277,o),
(272,277,cs),
(294,277,l),
(293,264,o),
(290,190,o),
(286,146,c),
(282,115,o),
(270,106,o),
(193,106,cs),
(125,106,o),
(54,119,o),
(44,119,cs),
(37,119,o),
(37,112,o),
(35,86,cs),
(32,67,o),
(31,0,o),
(60,0,cs)
);
}
);
width = 566;
}
);
metricRight = H;
unicode = 398;
},
{
color = 7;
glyphname = EreversedOpen;
lastChange = "2022-10-11 01:09:40 +0000";
layers = (
{
layerId = "220B7CD1-1E4F-4884-BA06-A44A5DCE8B14";
shapes = (
{
closed = 1;
nodes = (
(342,-13,o),
(442,63,o),
(442,186,cs),
(442,273,o),
(382,336,o),
(304,351,c),
(338,364,o),
(432,423,o),
(432,510,cs),
(432,616,o),
(344,652,o),
(258,652,cs),
(197,652,o),
(147,639,o),
(117,620,cs),
(101,610,o),
(91,598,o),
(91,583,cs),
(91,557,o),
(95,553,o),
(102,553,cs),
(108,553,o),
(124,567,o),
(153,586,cs),
(182,605,o),
(216,616,o),
(250,616,cs),
(314,616,o),
(368,579,o),
(368,497,cs),
(368,395,o),
(252,359,o),
(216,359,cs),
(209,359,o),
(204,344,o),
(204,331,cs),
(204,323,o),
(204,320,o),
(206,320,cs),
(292,320,o),
(382,285,o),
(382,165,cs),
(382,77,o),
(311,24,o),
(215,24,cs),
(120,24,o),
(74,85,o),
(56,85,cs),
(46,85,o),
(45,77,o),
(45,66,cs),
(45,40,o),
(50,29,o),
(66,19,cs),
(97,0,o),
(136,-13,o),
(216,-13,cs)
);
}
);
width = 521;
},
{
layerId = "63F4CE79-9D5F-46D3-B41C-385689F27F0A";
shapes = (
{
closed = 1;
nodes = (
(394,-13,o),
(498,95,o),
(498,197,cs),
(498,287,o),
(442,346,o),
(345,359,c),
(384,365,o),
(493,417,o),
(493,510,cs),
(493,600,o),
(410,652,o),
(263,652,cs),
(180,652,o),
(126,639,o),
(83,616,cs),
(64,606,o),
(56,591,o),
(56,564,cs),
(56,506,o),
(63,500,o),
(78,500,cs),
(88,500,o),
(103,507,o),
(122,514,cs),
(145,523,o),
(174,533,o),
(210,533,cs),
(270,533,o),
(292,495,o),
(292,466,cs),
(292,411,o),
(238,366,o),
(162,358,cs),
(151,357,o),
(145,347,o),
(145,323,cs),
(145,307,o),
(148,299,o),
(160,299,cs),
(243,299,o),
(287,262,o),
(287,198,cs),
(287,124,o),
(243,104,o),
(182,104,cs),
(114,104,o),
(57,135,o),
(50,135,cs),
(34,135,o),
(30,127,o),
(30,72,cs),
(30,41,o),
(44,27,o),
(63,16,cs),
(94,-1,o),
(134,-13,o),
(203,-13,cs)
);
}
);
width = 531;
}
);
metricRight = B;
unicode = (42923,604);
},
{
color = 6;
glyphname = Esh;
lastChange = "2023-02-09 03:46:44 +0000";
layers = (
{
anchors = (
{
name = bottom;
pos = (280,0);
},
{
name = top;
pos = (326,756);
}
);
background = {
shapes = (
{
closed = 1;
nodes = (
(612,0,ls),
(618,0,o),
(630,29,o),
(630,50,cs),
(630,59,o),
(628,67,o),
(623,67,cs),
(616,67,o),
(578,38,o),
(329,38,cs),
(256,38,l),
(279,87,o),
(392,237,o),
(451,314,cs),
(458,324,o),
(465,332,o),
(465,336,cs),
(465,354,o),
(463,357,o),
(455,368,cs),
(400,447,o),
(315,561,o),
(290,602,c),
(378,602,ls),
(536,602,o),
(605,585,o),
(608,585,cs),
(613,585,o),
(614,591,o),
(614,601,cs),
(614,622,o),
(603,639,o),
(597,639,cs),
(234,639,ls),
(228,639,o),
(220,621,o),
(220,612,cs),
(220,603,o),
(224,595,o),
(237,575,cs),
(245,563,o),
(335,446,o),
(409,341,c),
(375,294,o),
(245,118,o),
(201,58,cs),
(194,48,o),
(193,44,o),
(193,38,cs),
(193,24,o),
(201,0,o),
(210,0,cs)
);
}
);
};
layerId = "220B7CD1-1E4F-4884-BA06-A44A5DCE8B14";
shapes = (
{
closed = 1;
nodes = (
(177,-25,o),
(220,-6,o),
(257,29,cs),
(294,64,o),
(320,120,o),
(322,191,cs),
(329,466,ls),
(331,563,o),
(366,599,o),
(417,599,cs),
(479,599,o),
(528,582,o),
(534,580,cs),
(537,579,o),
(550,573,o),
(555,573,cs),
(561,573,o),
(565,586,o),
(565,598,cs),
(565,604,o),
(564,608,o),
(559,612,cs),
(534,629,o),
(483,651,o),
(441,651,cs),
(400,651,o),
(362,631,o),
(327,598,cs),
(283,557,o),
(261,501,o),
(262,399,cs),
(263,259,ls),
(264,50,o),
(228,26,o),
(147,26,cs),
(97,26,o),
(75,33,o),
(42,47,cs),
(36,49,o),
(29,53,o),
(27,53,cs),
(24,53,o),
(20,48,o),
(20,30,cs),
(20,20,o),
(24,9,o),
(30,5,cs),
(42,-4,o),
(75,-25,o),
(144,-25,cs)
);
}
);
width = 620;
},
{
anchors = (
{
name = bottom;
pos = (232,0);
},
{
name = top;
pos = (278,756);
}
);
background = {
shapes = (
{
closed = 1;
nodes = (
(567,0,ls),
(596,0,o),
(602,67,o),
(602,86,cs),
(602,112,o),
(602,119,o),
(595,119,cs),
(585,119,o),
(513,106,o),
(437,106,c),
(347,106,l),
(365,138,o),
(470,255,o),
(492,283,cs),
(512,307,o),
(512,318,o),
(512,330,cs),
(512,345,o),
(510,349,o),
(500,361,cs),
(479,387,o),
(357,511,o),
(338,541,c),
(423,541,ls),
(485,541,o),
(568,537,o),
(577,537,cs),
(587,537,o),
(593,577,o),
(593,606,cs),
(593,631,o),
(588,639,o),
(572,639,cs),
(207,639,ls),
(192,639,o),
(167,593,o),
(167,524,cs),
(167,510,o),
(169,497,o),
(185,481,cs),
(226,438,o),
(266,394,o),
(307,349,c),
(256,285,o),
(205,221,o),
(153,156,cs),
(138,137,o),
(139,128,o),
(139,116,cs),
(139,56,o),
(159,0,o),
(190,0,cs)
);
}
);
};
layerId = "63F4CE79-9D5F-46D3-B41C-385689F27F0A";
shapes = (
{
closed = 1;
nodes = (
(178,-27,o),
(255,-30,o),
(303,14,cs),
(353,60,o),
(366,108,o),
(373,184,c),
(381,434,ls),
(384,542,o),
(405,559,o),
(438,559,cs),
(452,559,o),
(462,558,o),
(472,557,cs),
(480,556,o),
(484,555,o),
(487,555,cs),
(497,555,o),
(505,572,o),
(505,588,cs),
(505,611,o),
(501,628,o),
(486,636,cs),
(471,644,o),
(430,654,o),
(383,654,cs),
(334,654,o),
(270,649,o),
(217,602,cs),
(165,556,o),
(158,491,o),
(158,432,cs),
(158,211,l),
(158,127,o),
(162,66,o),
(87,66,cs),
(78,66,o),
(64,68,o),
(53,70,cs),
(46,71,o),
(41,72,o),
(38,72,cs),
(28,72,o),
(20,57,o),
(20,35,cs),
(20,14,o),
(23,-5,o),
(44,-14,cs),
(66,-23,o),
(99,-27,o),
(128,-27,cs)
);
}
);
width = 516;
}
);
metricLeft = J;
metricRight = F;
unicode = 425;
},
{
color = 6;
glyphname = Estroke;
lastChange = "2023-02-10 00:39:49 +0000";
layers = (
{
anchors = (
{
name = bottom;
pos = (279,0);
},
{
name = ogonek;
pos = (419,0);
},
{
name = top;
pos = (309,652);
},
{
name = topleft;
pos = (22,652);
}
);
layerId = "220B7CD1-1E4F-4884-BA06-A44A5DCE8B14";
shapes = (
{
closed = 1;
nodes = (
(482,0,ls),
(489,0,o),
(499,26,o),
(499,44,cs),
(499,52,o),
(499,58,o),
(494,58,cs),
(487,58,o),
(435,37,o),
(254,37,cs),
(177,37,o),
(165,43,o),
(165,82,cs),
(165,149,o),
(167,228,o),
(172,312,c),
(212,312,ls),
(353,312,o),
(421,304,o),
(425,304,cs),
(429,304,o),
(435,326,o),
(435,341,cs),
(435,349,o),
(432,355,o),
(430,355,cs),
(174,355,l),
(181,458,o),
(189,552,o),
(196,596,c),
(228,596,ls),
(369,596,o),
(438,587,o),
(441,587,cs),
(445,587,o),
(451,610,o),
(451,625,cs),
(451,633,o),
(449,639,o),
(446,639,cs),
(135,639,l),
(126,422,o),
(106,76,o),
(98,0,c)
);
},
{
closed = 1;
nodes = (
(425,676,l),
(428,684,o),
(429,689,o),
(428,694,cs),
(420,718,o),
(402,725,o),
(395,726,cs),
(392,726,o),
(390,720,o),
(387,711,c),
(147,-35,l),
(144,-43,o),
(143,-48,o),
(144,-53,cs),
(152,-77,o),
(171,-84,o),
(178,-85,cs),
(181,-85,o),
(183,-79,o),
(186,-70,c)
);
}
);
width = 553;
},
{
anchors = (
{
name = bottom;
pos = (287,0);
},
{
name = ogonek;
pos = (427,0);
},
{
name = top;
pos = (308,652);
},
{
name = topleft;
pos = (30,652);
}
);
layerId = "63F4CE79-9D5F-46D3-B41C-385689F27F0A";
shapes = (
{
closed = 1;
nodes = (
(506,0,ls),
(535,0,o),
(541,67,o),
(541,86,cs),
(541,112,o),
(541,119,o),
(534,119,cs),
(524,119,o),
(452,106,o),
(376,106,cs),
(299,106,o),
(288,115,o),
(288,146,c),
(288,190,o),
(293,264,o),
(293,277,c),
(315,277,ls),
(394,277,o),
(468,272,o),
(477,272,cs),
(487,272,o),
(493,313,o),
(493,342,cs),
(493,367,o),
(488,374,o),
(472,374,cs),
(296,374,l),
(296,418,o),
(303,524,o),
(308,541,c),
(334,541,ls),
(396,541,o),
(479,537,o),
(488,537,cs),
(498,537,o),
(504,577,o),
(504,606,cs),
(504,631,o),
(499,639,o),
(483,639,cs),
(92,639,l),
(92,441,o),
(63,42,o),
(63,0,c)
);
},
{
closed = 1;
nodes = (
(511,684,l),
(514,692,o),
(515,697,o),
(514,702,cs),
(506,726,o),
(462,725,o),
(455,726,cs),
(452,726,o),
(450,720,o),
(447,711,c),
(227,-35,l),
(224,-43,o),
(223,-48,o),
(224,-53,cs),
(232,-77,o),
(276,-86,o),
(283,-87,cs),
(286,-87,o),
(288,-81,o),
(291,-72,c)
);
}
);
width = 553;
}
);
unicode = 582;
},
{
color = 1;
glyphname = Schwa;
kernRight = KO_Schwa;
lastChange = "2023-02-11 04:34:39 +0000";
layers = (
{
layerId = "220B7CD1-1E4F-4884-BA06-A44A5DCE8B14";
shapes = (
{
closed = 1;
nodes = (
(367,-11,o),
(459,142,o),
(459,372,cs),
(459,552,o),
(386,652,o),
(254,652,cs),
(172,652,o),
(102,622,o),
(47,563,cs),
(41,557,o),
(40,554,o),
(40,548,cs),
(40,537,o),
(46,521,o),
(49,521,cs),
(50,521,o),
(51,521,o),
(62,532,cs),
(105,575,o),
(174,610,o),
(234,610,cs),
(339,610,o),
(397,522,o),
(397,366,cs),
(397,324,o),
(396,282,o),
(394,275,c),
(388,272,l),
(357,279,o),
(309,285,o),
(259,285,cs),
(160,285,o),
(42,239,o),
(42,118,cs),
(42,36,o),
(101,-11,o),
(202,-11,cs)
);
},
{
closed = 1;
nodes = (
(152,18,o),
(111,55,o),
(111,115,cs),
(111,200,o),
(165,248,o),
(261,248,cs),
(309,248,o),
(371,232,o),
(380,218,c),
(381,214,l),
(359,91,o),
(298,18,o),
(217,18,cs)
);
}
);
width = 519;
},
{
background = {
shapes = (
{
closed = 1;
nodes = (
(455,5,o),
(547,135,o),
(547,365,cs),
(547,545,o),
(474,645,o),
(342,645,cs),
(260,645,o),
(190,615,o),
(135,556,cs),
(129,550,o),
(128,547,o),
(128,541,cs),
(128,530,o),
(134,514,o),
(137,514,cs),
(138,514,o),
(139,514,o),
(150,525,cs),
(193,568,o),
(262,603,o),
(322,603,cs),
(427,603,o),
(485,515,o),
(485,359,cs),
(485,317,o),
(484,298,o),
(482,291,c),
(476,288,l),
(445,295,o),
(397,301,o),
(347,301,cs),
(248,301,o),
(130,255,o),
(130,134,cs),
(130,52,o),
(189,5,o),
(290,5,cs)
);
},
{
closed = 1;
nodes = (
(240,34,o),
(199,71,o),
(199,131,cs),
(199,216,o),
(253,264,o),
(349,264,cs),
(397,264,o),
(459,248,o),
(468,234,c),
(469,230,l),
(447,107,o),
(386,34,o),
(305,34,cs)
);
}
);
};
layerId = "63F4CE79-9D5F-46D3-B41C-385689F27F0A";
shapes = (
{
closed = 1;
nodes = (
(500,-12,o),
(657,47,o),
(657,367,cs),
(657,560,o),
(544,654,o),
(340,654,cs),
(205,654,o),
(91,588,o),
(55,552,cs),
(41,538,o),
(36,528,o),
(36,519,cs),
(36,461,o),
(44,432,o),
(67,432,cs),
(75,432,o),
(88,433,o),
(97,441,cs),
(157,498,o),
(232,529,o),
(292,529,cs),
(377,529,o),
(428,504,o),
(428,391,cs),
(428,374,o),
(429,323,o),
(428,317,c),
(420,311,l),
(410,313,o),
(365,317,o),
(306,317,cs),
(82,317,o),
(20,241,o),
(20,136,cs),
(20,45,o),
(128,-12,o),
(292,-12,cs)
);
},
{
closed = 1;
nodes = (
(284,51,o),
(259,95,o),
(259,133,cs),
(259,212,o),
(304,251,o),
(364,251,cs),
(388,251,o),
(411,243,o),
(419,236,c),
(421,229,l),
(402,98,o),
(351,51,o),
(320,51,cs)
);
}
);
width = 682;
}
);
metricRight = O;
unicode = 399;
},
{
color = 6;
glyphname = Ezh;
lastChange = "2023-02-09 03:24:20 +0000";
layers = (
{
anchors = (
{
name = bottom;
pos = (270,0);
},
{
name = top;
pos = (290,652);
}
);
layerId = "220B7CD1-1E4F-4884-BA06-A44A5DCE8B14";
shapes = (
{
closed = 1;
nodes = (
(357,-13,o),
(457,63,o),
(457,186,cs),
(457,284,o),
(400,344,o),
(288,354,c),
(384,474,o),
(460,564,o),
(470,578,cs),
(478,588,o),
(479,598,o),
(479,605,cs),
(479,619,o),
(470,639,o),
(461,639,cs),
(119,639,ls),
(110,639,o),
(101,616,o),
(101,594,cs),
(101,584,o),
(102,578,o),
(107,578,cs),
(120,578,o),
(132,594,o),
(318,594,cs),
(411,594,l),
(376,546,o),
(319,466,o),
(231,359,c),
(225,354,o),
(219,344,o),
(219,331,cs),
(219,323,o),
(219,320,o),
(221,320,cs),
(307,320,o),
(397,285,o),
(397,165,cs),
(397,77,o),
(326,24,o),
(230,24,cs),
(135,24,o),
(89,85,o),
(71,85,cs),
(61,85,o),
(60,77,o),
(60,66,cs),
(60,40,o),
(65,29,o),
(81,19,cs),
(112,0,o),
(151,-13,o),
(231,-13,cs)
);
}
);
width = 539;
},
{
anchors = (
{
name = bottom;
pos = (290,0);
},
{
name = top;
pos = (311,652);
}
);
layerId = "63F4CE79-9D5F-46D3-B41C-385689F27F0A";
shapes = (
{
closed = 1;
nodes = (
(422,-13,o),
(515,95,o),
(515,197,cs),
(515,262,o),
(486,310,o),
(434,338,c),
(486,411,o),
(534,477,o),
(542,491,cs),
(550,503,o),
(550,511,o),
(550,523,cs),
(550,544,o),
(517,639,o),
(486,639,cs),
(122,639,ls),
(108,639,o),
(88,622,o),
(88,561,cs),
(88,524,o),
(90,506,o),
(97,506,cs),
(105,506,o),
(194,519,o),
(220,519,cs),
(302,519,l),
(289,500,o),
(237,432,o),
(182,355,c),
(180,351,o),
(173,347,o),
(173,323,cs),
(173,307,o),
(176,299,o),
(188,299,cs),
(260,299,o),
(304,262,o),
(304,198,cs),
(304,124,o),
(260,104,o),
(210,104,cs),
(142,104,o),
(85,135,o),
(78,135,cs),
(62,135,o),
(58,127,o),
(58,72,cs),
(58,41,o),
(72,27,o),
(91,16,cs),
(122,-1,o),
(162,-13,o),
(231,-13,cs)
);
}
);
width = 579;
}
);
unicode = 439;
},
{
color = 6;
glyphname = Ezhreversed;
lastChange = "2023-02-09 03:24:20 +0000";
layers = (
{
layerId = "220B7CD1-1E4F-4884-BA06-A44A5DCE8B14";
shapes = (
{
closed = 1;
nodes = (
(352,-13,o),
(392,0,o),
(424,19,cs),
(441,29,o),
(447,40,o),
(449,66,cs),
(450,77,o),
(449,85,o),
(439,85,cs),
(421,85,o),
(371,24,o),
(276,24,cs),
(180,24,o),
(118,77,o),
(119,145,cs),
(120,285,o),
(219,320,o),
(305,320,cs),
(307,320,o),
(308,323,o),
(308,331,cs),
(309,344,o),
(304,354,o),
(298,359,c),
(218,466,o),
(166,546,o),
(135,594,c),
(228,594,ls),
(414,594,o),
(425,578,o),
(438,578,cs),
(443,578,o),
(444,584,o),
(445,594,cs),
(446,616,o),
(439,639,o),
(430,639,cs),
(88,639,ls),
(79,639,o),
(68,619,o),
(67,605,cs),
(67,598,o),
(67,588,o),
(75,578,cs),
(84,564,o),
(153,474,o),
(241,354,c),
(128,344,o),
(60,284,o),
(60,166,cs),
(60,63,o),
(146,-13,o),
(272,-13,cs)
);
}
);
width = 503;
},
{
layerId = "63F4CE79-9D5F-46D3-B41C-385689F27F0A";
shapes = (
{
closed = 1;
nodes = (
(362,-13,o),
(403,-1,o),
(436,16,cs),
(456,27,o),
(472,41,o),
(475,72,cs),
(481,127,o),
(477,135,o),
(461,135,cs),
(454,135,o),
(394,104,o),
(326,104,cs),
(276,104,o),
(245,124,o),
(242,198,cs),
(239,262,o),
(277,299,o),
(349,299,cs),
(361,299,o),
(364,307,o),
(366,323,cs),
(369,347,o),
(362,351,o),
(360,355,c),
(313,432,o),
(269,500,o),
(258,519,c),
(340,519,ls),
(366,519,o),
(473,506,o),
(481,506,cs),
(488,506,o),
(492,524,o),
(496,561,cs),
(502,622,o),
(484,639,o),
(470,639,cs),
(106,639,ls),
(75,639,o),
(32,544,o),
(30,523,cs),
(29,511,o),
(28,503,o),
(35,491,cs),
(41,477,o),
(82,411,o),
(127,338,c),
(72,310,o),
(33,262,o),
(31,197,cs),
(28,95,o),
(102,-13,o),
(293,-13,cs)
);
}
);
width = 509;
}
);
metricLeft = "=|Ezh";
metricRight = E;
unicode = 440;
},
{
color = 1;
glyphname = F;
kernLeft = KO_F;
kernRight = KO_F;
lastChange = "2023-02-14 06:15:54 +0000";
layers = (
{
anchors = (
{
name = bottom;
pos = (124,0);
},
{
name = top;
pos = (288,652);
}
);
layerId = "220B7CD1-1E4F-4884-BA06-A44A5DCE8B14";
shapes = (
{
closed = 1;
nodes = (
(159,-13,o),
(161,-10,o),
(161,-5,cs),
(161,67,o),
(166,232,o),
(168,292,c),
(209,292,ls),
(350,292,o),
(418,283,o),
(421,283,cs),
(425,283,o),
(431,306,o),
(431,321,cs),
(431,329,o),
(429,335,o),
(426,335,cs),
(171,335,l),
(178,458,o),
(187,552,o),
(193,596,c),
(226,596,ls),
(367,596,o),
(435,587,o),
(439,587,cs),
(443,587,o),
(449,610,o),
(449,625,cs),
(449,633,o),
(447,639,o),
(444,639,cs),
(133,639,l),
(133,559,o),
(119,254,o),
(107,113,cs),
(104,81,o),
(98,17,o),
(98,14,cs),
(98,-4,o),
(128,-13,o),
(151,-13,cs)
);
}
);
width = 504;
},
{
anchors = (
{
name = bottom;
pos = (132,0);
},
{
name = top;
pos = (296,652);
}
);
layerId = "63F4CE79-9D5F-46D3-B41C-385689F27F0A";
shapes = (
{
closed = 1;
nodes = (
(278,-13,o),
(283,-4,o),
(283,21,cs),
(283,89,o),
(286,171,o),
(290,253,c),
(310,253,ls),
(389,253,o),
(463,249,o),
(472,249,cs),
(482,249,o),
(488,288,o),
(488,317,cs),
(488,343,o),
(483,350,o),
(467,350,cs),
(295,350,l),
(295,365,o),
(303,524,o),
(305,541,c),
(333,541,ls),
(395,541,o),
(474,538,o),
(483,538,cs),
(493,538,o),
(499,577,o),
(499,606,cs),
(499,631,o),
(494,639,o),
(478,639,cs),
(87,639,l),
(87,498,o),
(72,216,o),
(68,148,cs),
(65,98,o),
(63,64,o),
(63,59,cs),
(63,9,o),
(170,-13,o),
(234,-13,cs)
);
}
);
width = 510;
}
);
metricLeft = "=H";
note = F;
unicode = 70;
},
{
color = 6;
glyphname = Fhook;
kernRight = KO_F;
lastChange = "2023-02-10 03:30:48 +0000";
layers = (
{
anchors = (
{
name = bottom;
pos = (124,0);
},
{
name = top;
pos = (288,652);
}
);
layerId = "220B7CD1-1E4F-4884-BA06-A44A5DCE8B14";
shapes = (
{
closed = 1;
nodes = (
(13,-244,o),
(56,-225,o),
(93,-190,cs),
(144,-141,o),
(161,-68,o),
(161,-5,cs),
(161,67,o),
(166,232,o),
(168,292,c),
(209,292,ls),
(350,292,o),
(418,283,o),
(421,283,cs),
(425,283,o),
(431,306,o),
(431,321,cs),
(431,329,o),
(429,335,o),
(426,335,cs),
(171,335,l),
(178,458,o),
(187,552,o),
(193,596,c),
(226,596,ls),
(367,596,o),
(435,587,o),
(439,587,cs),
(443,587,o),
(449,610,o),
(449,625,cs),
(449,633,o),
(447,639,o),
(444,639,cs),
(133,639,l),
(133,565,o),
(105,52,o),
(105,14,cs),
(106,-141,o),
(64,-193,o),
(-17,-193,cs),
(-67,-193,o),
(-116,-171,o),
(-149,-157,cs),
(-155,-155,o),
(-162,-151,o),
(-164,-151,cs),
(-167,-151,o),
(-171,-156,o),
(-171,-174,cs),
(-171,-184,o),
(-167,-195,o),
(-161,-199,cs),
(-149,-208,o),
(-89,-244,o),
(-20,-244,cs)
);
}
);
width = 504;
},
{
anchors = (
{
name = bottom;
pos = (132,0);
},
{
name = top;
pos = (296,652);
}
);
layerId = "63F4CE79-9D5F-46D3-B41C-385689F27F0A";
shapes = (
{
closed = 1;
nodes = (
(87,-244,o),
(141,-229,o),
(189,-185,cs),
(235,-143,o),
(282,-72,o),
(282,65,cs),
(282,133,o),
(286,171,o),
(290,253,c),
(310,253,ls),
(389,253,o),
(463,249,o),
(472,249,cs),
(482,249,o),
(488,288,o),
(488,317,cs),
(488,343,o),
(483,350,o),
(467,350,cs),
(295,350,l),
(295,365,o),
(303,524,o),
(305,541,c),
(333,541,ls),
(395,541,o),
(474,538,o),
(483,538,cs),
(493,538,o),
(499,577,o),
(499,606,cs),
(499,631,o),
(494,639,o),
(478,639,cs),
(87,639,l),
(87,525,o),
(74,209,o),
(74,95,cs),
(74,-82,o),
(69,-151,o),
(-4,-151,cs),
(-13,-151,o),
(-27,-149,o),
(-38,-147,cs),
(-45,-146,o),
(-50,-145,o),
(-53,-145,cs),
(-63,-145,o),
(-71,-160,o),
(-71,-182,cs),
(-71,-203,o),
(-68,-222,o),
(-47,-231,cs),
(-25,-240,o),
(8,-244,o),
(37,-244,cs)
);
}
);
width = 510;
}
);
metricRight = F;
metricWidth = F;
unicode = 401;
},
{
color = 1;
glyphname = G;
kernLeft = KO_G;
kernRight = KO_G;
lastChange = "2023-02-09 04:17:22 +0000";
layers = (
{
anchors = (
{
name = bottom;
pos = (356,0);
},
{
name = top;
pos = (390,652);
}
);
layerId = "220B7CD1-1E4F-4884-BA06-A44A5DCE8B14";
shapes = (
{
closed = 1;
nodes = (
(485,-13,o),
(564,0,o),
(626,23,c),
(631,116,o),
(637,209,o),
(642,302,c),
(443,302,ls),
(435,302,o),
(428,282,o),
(428,264,cs),
(428,258,o),
(431,254,o),
(436,254,cs),
(441,254,o),
(464,259,o),
(584,259,c),
(582,190,o),
(574,71,o),
(572,53,c),
(544,42,o),
(476,31,o),
(391,31,cs),
(252,31,o),
(121,105,o),
(121,319,cs),
(121,516,o),
(243,615,o),
(396,615,cs),
(472,615,o),
(547,587,o),
(581,565,cs),
(602,551,o),
(611,547,o),
(619,547,cs),
(626,547,o),
(631,568,o),
(631,588,cs),
(631,597,o),
(627,602,o),
(622,606,cs),
(605,620,o),
(535,652,o),
(384,652,cs),
(149,652,o),
(60,476,o),
(60,312,cs),
(60,120,o),
(177,-13,o),
(377,-13,cs)
);
}
);
width = 718;
},
{
anchors = (
{
name = bottom;
pos = (369,0);
},
{
name = top;
pos = (403,652);
}
);
layerId = "63F4CE79-9D5F-46D3-B41C-385689F27F0A";
shapes = (
{
closed = 1;
nodes = (
(527,-13,o),
(645,12,o),
(686,29,c),
(693,160,o),
(700,296,o),
(703,338,c),
(439,338,ls),
(425,338,o),
(410,326,o),
(410,289,cs),
(410,265,o),
(412,243,o),
(420,243,cs),
(428,243,o),
(462,244,o),
(495,244,c),
(495,169,o),
(490,122,o),
(489,93,c),
(473,93,o),
(456,93,o),
(439,93,cs),
(361,93,o),
(273,145,o),
(273,307,cs),
(273,460,o),
(332,526,o),
(433,526,cs),
(512,526,o),
(567,509,o),
(600,498,cs),
(620,491,o),
(633,486,o),
(639,486,cs),
(672,486,o),
(675,555,o),
(675,572,cs),
(675,599,o),
(668,614,o),
(648,621,cs),
(608,635,o),
(510,652,o),
(416,652,cs),
(201,652,o),
(45,594,o),
(45,275,cs),
(45,63,o),
(169,-13,o),
(402,-13,cs)
);
}
);
width = 733;
}
);
metricLeft = C;
note = G;
unicode = 71;
},
{
color = 6;
glyphname = Ghook;
lastChange = "2023-02-10 03:28:04 +0000";
layers = (
{
anchors = (
{
name = bottom;
pos = (356,0);
},
{
name = top;
pos = (390,652);
}
);
layerId = "220B7CD1-1E4F-4884-BA06-A44A5DCE8B14";
shapes = (
{
closed = 1;
nodes = (
(485,-13,o),
(564,0,o),
(626,23,c),
(631,116,o),
(637,209,o),
(642,302,c),
(443,302,ls),
(435,302,o),
(428,282,o),
(428,264,cs),
(428,258,o),
(431,254,o),
(436,254,cs),
(441,254,o),
(464,259,o),
(584,259,c),
(582,190,o),
(574,71,o),
(572,53,c),
(544,42,o),
(476,31,o),
(391,31,cs),
(252,31,o),
(121,105,o),
(121,319,cs),
(121,516,o),
(243,615,o),
(396,615,cs),
(472,615,o),
(547,587,o),
(581,565,cs),
(602,551,o),
(611,547,o),
(619,547,cs),
(631,547,o),
(632,584,o),
(633,596,cs),
(639,665,o),
(652,710,o),
(686,710,cs),
(698,710,o),
(709,709,o),
(730,704,cs),
(737,702,o),
(746,697,o),
(751,697,cs),
(757,697,o),
(761,710,o),
(761,722,cs),
(761,728,o),
(760,732,o),
(755,736,cs),
(730,753,o),
(712,759,o),
(700,759,cs),
(669,759,o),
(641,748,o),
(616,706,cs),
(599,678,o),
(595,644,o),
(594,621,c),
(559,636,o),
(492,652,o),
(384,652,cs),
(149,652,o),
(60,476,o),
(60,312,cs),
(60,120,o),
(177,-13,o),
(377,-13,cs)
);
}
);
width = 718;
},
{
anchors = (
{
name = bottom;
pos = (369,0);
},
{
name = top;
pos = (403,652);
}
);
layerId = "63F4CE79-9D5F-46D3-B41C-385689F27F0A";
shapes = (
{
closed = 1;
nodes = (
(527,-13,o),
(645,12,o),
(686,29,c),
(693,160,o),
(700,296,o),
(703,338,c),
(439,338,ls),
(425,338,o),
(410,326,o),
(410,289,cs),
(410,265,o),
(412,243,o),
(420,243,cs),
(428,243,o),
(462,244,o),
(495,244,c),
(495,169,o),
(490,122,o),
(489,93,c),
(472,93,o),
(456,93,o),
(439,93,cs),
(361,93,o),
(273,145,o),
(273,307,cs),
(273,460,o),
(332,526,o),
(433,526,cs),
(512,526,o),
(567,509,o),
(600,498,cs),
(620,491,o),
(633,487,o),
(639,487,cs),
(672,487,o),
(675,555,o),
(675,572,cs),
(675,629,o),
(694,662,o),
(727,662,cs),
(741,662,o),
(751,661,o),
(761,660,cs),
(769,659,o),
(773,658,o),
(776,658,cs),
(786,658,o),
(794,675,o),
(794,691,cs),
(794,714,o),
(790,731,o),
(775,739,cs),
(760,747,o),
(719,757,o),
(672,757,cs),
(653,757,o),
(627,754,o),
(598,715,cs),
(585,697,o),
(574,667,o),
(566,640,c),
(522,647,o),
(468,652,o),
(416,652,cs),
(201,652,o),
(45,594,o),
(45,275,cs),
(45,63,o),
(169,-13,o),
(402,-13,cs)
);
}
);
width = 733;
}
);
unicode = 403;
},
{
glyphname = Gstroke;
kernLeft = KO_G;
lastChange = "2023-02-04 13:43:06 +0000";
layers = (
{
anchors = (
{
name = bottom;
pos = (356,0);
},
{
name = top;
pos = (390,652);
}
);
layerId = "220B7CD1-1E4F-4884-BA06-A44A5DCE8B14";
shapes = (
{
closed = 1;
nodes = (
(485,-13,o),
(564,0,o),
(626,23,c),
(631,116,o),
(637,209,o),
(642,302,c),
(473,302,ls),
(465,302,o),
(458,282,o),
(458,264,cs),
(458,258,o),
(461,254,o),
(466,254,cs),
(471,254,o),
(494,259,o),
(584,259,c),
(582,190,o),
(574,71,o),
(572,53,c),
(544,42,o),
(476,31,o),
(391,31,cs),
(252,31,o),
(121,105,o),
(121,319,cs),
(121,516,o),
(243,615,o),
(396,615,cs),
(472,615,o),
(547,587,o),
(581,565,cs),
(602,551,o),
(611,547,o),
(619,547,cs),
(626,547,o),
(631,568,o),
(631,588,cs),
(631,597,o),
(627,602,o),
(622,606,cs),
(605,620,o),
(535,652,o),
(384,652,cs),
(149,652,o),
(60,476,o),
(60,312,cs),
(60,120,o),
(177,-13,o),
(377,-13,cs)
);
},
{
closed = 1;
nodes = (
(683,134,ls),
(692,134,o),
(697,153,o),
(697,171,cs),
(697,177,o),
(694,181,o),
(689,181,cs),
(416,181,ls),
(407,181,o),
(401,161,o),
(401,143,cs),
(401,137,o),
(403,133,o),
(408,133,cs)
);
}
);
width = 718;
},
{
anchors = (
{
name = bottom;
pos = (369,0);
},
{
name = top;
pos = (403,652);
}
);
layerId = "63F4CE79-9D5F-46D3-B41C-385689F27F0A";
shapes = (
{
closed = 1;
nodes = (
(527,-13,o),
(645,12,o),
(686,29,c),
(693,160,o),
(700,336,o),
(703,378,c),
(459,378,ls),
(445,378,o),
(430,366,o),
(430,329,cs),
(430,305,o),
(432,283,o),
(440,283,cs),
(448,283,o),
(462,284,o),
(495,284,c),
(495,209,o),
(490,122,o),
(489,93,c),
(473,93,o),
(456,93,o),
(439,93,cs),
(361,93,o),
(273,145,o),
(273,307,cs),
(273,460,o),
(332,526,o),
(433,526,cs),
(512,526,o),
(567,509,o),
(600,498,cs),
(620,491,o),
(633,486,o),
(639,486,cs),
(672,486,o),
(675,555,o),
(675,572,cs),
(675,599,o),
(668,614,o),
(648,621,cs),
(608,635,o),
(510,652,o),
(416,652,cs),
(201,652,o),
(45,594,o),
(45,275,cs),
(45,63,o),
(169,-13,o),
(402,-13,cs)
);
},
{
closed = 1;
nodes = (
(729,140,ls),
(744,140,o),
(755,162,o),
(755,213,cs),
(755,242,o),
(752,245,o),
(742,245,cs),
(417,245,ls),
(402,245,o),
(391,218,o),
(391,178,cs),
(391,144,o),
(394,140,o),
(404,140,cs)
);
}
);
width = 733;
}
);
unicode = 484;
},
{
color = 1;
glyphname = H;
kernLeft = KO_H;
kernRight = KO_H;
lastChange = "2023-02-09 04:17:22 +0000";
layers = (
{
anchors = (
{
name = bottom;
pos = (378,0);
},
{
name = center;
pos = (398,326);
},
{
name = top;
pos = (423,652);
},
{
name = topleft;
pos = (22,652);
}
);
layerId = "220B7CD1-1E4F-4884-BA06-A44A5DCE8B14";
shapes = (
{
closed = 1;
nodes = (
(159,-13,o),
(161,-10,o),
(161,-5,cs),
(161,107,o),
(164,214,o),
(171,309,c),
(249,313,o),
(327,315,o),
(404,315,cs),
(476,315,o),
(548,313,o),
(618,310,c),
(609,160,o),
(598,20,o),
(598,14,cs),
(598,-4,o),
(628,-13,o),
(651,-13,cs),
(659,-13,o),
(662,-10,o),
(662,-5,cs),
(662,317,o),
(697,612,o),
(697,626,cs),
(697,644,o),
(666,652,o),
(643,652,cs),
(634,652,o),
(633,650,o),
(633,645,cs),
(632,597,o),
(627,476,o),
(620,353,c),
(173,353,l),
(183,509,o),
(196,618,o),
(196,626,cs),
(196,644,o),
(166,652,o),
(143,652,cs),
(134,652,o),
(133,650,o),
(133,645,cs),
(130,537,o),
(98,26,o),
(98,14,cs),
(98,-4,o),
(128,-13,o),
(151,-13,cs)
);
}
);
width = 786;
},
{
anchors = (
{
name = bottom;
pos = (386,0);
},
{
name = center;
pos = (406,326);
},
{
name = top;
pos = (431,652);
},
{
name = topleft;
pos = (30,652);
}
);
layerId = "63F4CE79-9D5F-46D3-B41C-385689F27F0A";
shapes = (
{
closed = 1;
nodes = (
(278,-13,o),
(283,-4,o),
(283,21,cs),
(283,85,o),
(286,171,o),
(290,256,c),
(341,262,o),
(390,265,o),
(437,265,c),
(477,265,o),
(516,263,o),
(551,259,c),
(545,152,o),
(540,67,o),
(540,59,cs),
(540,9,o),
(647,-13,o),
(711,-13,cs),
(755,-13,o),
(760,-4,o),
(760,21,cs),
(760,199,o),
(784,562,o),
(784,580,cs),
(784,630,o),
(677,652,o),
(613,652,cs),
(569,652,o),
(564,643,o),
(564,618,cs),
(564,553,o),
(561,465,o),
(557,379,c),
(296,379,l),
(302,487,o),
(307,572,o),
(307,580,cs),
(307,630,o),
(200,652,o),
(136,652,cs),
(92,652,o),
(87,643,o),
(87,618,cs),
(87,440,o),
(63,77,o),
(63,59,cs),
(63,9,o),
(170,-13,o),
(234,-13,cs)
);
}
);
width = 817;
}
);
note = H;
unicode = 72;
},
{
color = 7;
glyphname = Hbar;
kernRight = KO_Hbar;
lastChange = "2022-10-09 04:12:53 +0000";
layers = (
{
anchors = (
{
name = bottom;
pos = (391,0);
},
{
name = center;
pos = (411,326);
},
{
name = top;
pos = (426,652);
},
{
name = topleft;
pos = (35,652);
}
);
layerId = "220B7CD1-1E4F-4884-BA06-A44A5DCE8B14";
shapes = (
{
closed = 1;
nodes = (
(172,-13,o),
(174,-10,o),
(174,-5,cs),
(174,107,o),
(177,214,o),
(184,309,c),
(262,313,o),
(340,315,o),
(417,315,cs),
(489,315,o),
(561,313,o),
(631,310,c),
(622,160,o),
(611,20,o),
(611,14,cs),
(611,-4,o),
(641,-13,o),
(664,-13,cs),
(672,-13,o),
(675,-10,o),
(675,-5,cs),
(675,317,o),
(710,612,o),
(710,626,cs),
(710,644,o),
(679,652,o),
(656,652,cs),
(647,652,o),
(646,650,o),
(646,645,cs),
(645,597,o),
(640,480,o),
(633,353,c),
(186,353,l),
(196,509,o),
(209,618,o),
(209,626,cs),
(209,644,o),
(179,652,o),
(156,652,cs),
(147,652,o),
(146,650,o),
(146,645,cs),
(143,537,o),
(111,26,o),
(111,14,cs),
(111,-4,o),
(141,-13,o),
(164,-13,cs)
);
},
{
closed = 1;
nodes = (
(64,455,o),
(241,458,o),
(417,459,cs),
(590,459,o),
(761,456,o),
(763,456,cs),
(772,456,o),
(777,475,o),
(777,489,cs),
(777,495,o),
(774,499,o),
(769,499,cs),
(70,499,ls),
(61,499,o),
(55,483,o),
(55,465,cs),
(55,459,o),
(57,455,o),
(62,455,cs)
);
}
);
width = 818;
},
{
anchors = (
{
name = bottom;
pos = (427,0);
},
{
name = center;
pos = (447,326);
},
{
name = top;
pos = (465,652);
},
{
name = topleft;
pos = (59,652);
}
);
background = {
shapes = (
{
closed = 1;
nodes = (
(317,379,l),
(323,487,o),
(328,572,o),
(328,580,cs),
(328,630,o),
(221,652,o),
(157,652,cs),
(113,652,o),
(108,643,o),
(108,618,cs),
(108,440,o),
(84,77,o),
(84,59,cs),
(84,9,o),
(191,-13,o),
(255,-13,cs),
(299,-13,o),
(304,-4,o),
(304,21,cs),
(304,85,o),
(307,171,o),
(311,256,c),
(362,262,o),
(411,265,o),
(458,265,c),
(498,265,o),
(537,263,o),
(572,259,c),
(566,152,o),
(561,67,o),
(561,59,cs),
(561,9,o),
(668,-13,o),
(732,-13,cs),
(776,-13,o),
(781,-4,o),
(781,21,cs),
(781,199,o),
(805,562,o),
(805,580,cs),
(805,630,o),
(698,652,o),
(634,652,cs),
(590,652,o),
(585,643,o),
(585,618,cs),
(585,553,o),
(582,465,o),
(578,379,c)
);
}
);
};
layerId = "63F4CE79-9D5F-46D3-B41C-385689F27F0A";
shapes = (
{
closed = 1;
nodes = (
(299,-13,o),
(304,-4,o),
(304,21,cs),
(304,85,o),
(306,127,o),
(310,212,c),
(361,218,o),
(410,221,o),
(457,221,c),
(497,221,o),
(536,219,o),
(571,215,c),
(565,108,o),
(561,67,o),
(561,59,cs),
(561,9,o),
(668,-13,o),
(732,-13,cs),
(776,-13,o),
(781,-4,o),
(781,21,cs),
(781,199,o),
(805,562,o),
(805,580,cs),
(805,630,o),
(698,652,o),
(634,652,cs),
(590,652,o),
(585,643,o),
(585,618,cs),
(585,553,o),
(581,421,o),
(577,335,c),
(316,335,l),
(322,443,o),
(328,572,o),
(328,580,cs),
(328,630,o),
(221,652,o),
(157,652,cs),
(113,652,o),
(108,643,o),
(108,618,cs),
(108,440,o),
(84,77,o),
(84,59,cs),
(84,9,o),
(191,-13,o),
(255,-13,cs)
);
},
{
closed = 1;
nodes = (
(189,415,o),
(320,419,o),
(451,419,cs),
(580,419,o),
(708,415,o),
(837,415,cs),
(852,415,o),
(863,437,o),
(863,473,cs),
(863,496,o),
(860,499,o),
(850,499,cs),
(71,499,ls),
(56,499,o),
(45,477,o),
(45,441,cs),
(45,418,o),
(48,415,o),
(58,415,cs)
);
}
);
width = 878;
}
);
unicode = 294;
},
{
color = 6;
glyphname = Hhook;
lastChange = "2023-02-10 03:34:16 +0000";
layers = (
{
anchors = (
{
name = bottom;
pos = (378,0);
},
{
name = center;
pos = (398,326);
},
{
name = top;
pos = (423,652);
},
{
name = topleft;
pos = (22,652);
}
);
layerId = "220B7CD1-1E4F-4884-BA06-A44A5DCE8B14";
shapes = (
{
closed = 1;
nodes = (
(48,-163,o),
(85,-140,o),
(110,-111,cs),
(140,-76,o),
(152,-31,o),
(154,-5,cs),
(163,107,o),
(164,214,o),
(171,309,c),
(249,313,o),
(327,315,o),
(404,315,cs),
(476,315,o),
(548,313,o),
(618,310,c),
(609,160,o),
(598,20,o),
(598,14,cs),
(598,-4,o),
(628,-13,o),
(651,-13,cs),
(659,-13,o),
(662,-10,o),
(662,-5,cs),
(662,317,o),
(697,612,o),
(697,626,cs),
(697,644,o),
(666,652,o),
(643,652,cs),
(634,652,o),
(633,650,o),
(633,645,cs),
(632,597,o),
(627,476,o),
(620,353,c),
(173,353,l),
(183,509,o),
(196,618,o),
(196,626,cs),
(196,644,o),
(166,652,o),
(143,652,cs),
(134,652,o),
(133,650,o),
(133,645,cs),
(130,550,o),
(105,143,o),
(99,38,cs),
(91,-54,o),
(81,-82,o),
(59,-102,cs),
(43,-116,o),
(25,-124,o),
(3,-124,cs),
(-40,-124,o),
(-87,-101,o),
(-98,-101,cs),
(-103,-101,o),
(-107,-108,o),
(-107,-119,cs),
(-107,-138,o),
(-104,-145,o),
(-92,-151,cs),
(-74,-160,o),
(-48,-163,o),
(-6,-163,cs)
);
}
);
width = 786;
},
{
anchors = (
{
name = bottom;
pos = (386,0);
},
{
name = center;
pos = (406,326);
},
{
name = top;
pos = (431,652);
},
{
name = topleft;
pos = (30,652);
}
);
layerId = "63F4CE79-9D5F-46D3-B41C-385689F27F0A";
shapes = (
{
closed = 1;
nodes = (
(78,-188,o),
(191,-183,o),
(237,-134,cs),
(266,-104,o),
(283,-46,o),
(283,28,cs),
(283,91,o),
(286,174,o),
(290,256,c),
(341,262,o),
(390,265,o),
(437,265,cs),
(477,265,o),
(516,263,o),
(551,259,c),
(545,152,o),
(540,67,o),
(540,59,cs),
(540,9,o),
(647,-13,o),
(711,-13,cs),
(755,-13,o),
(760,-4,o),
(760,21,cs),
(760,199,o),
(784,562,o),
(784,580,cs),
(784,630,o),
(677,652,o),
(613,652,cs),
(569,652,o),
(564,643,o),
(564,618,cs),
(564,553,o),
(561,465,o),
(557,379,c),
(296,379,l),
(302,487,o),
(307,572,o),
(307,580,cs),
(307,630,o),
(200,652,o),
(136,652,cs),
(92,652,o),
(87,643,o),
(87,618,cs),
(87,440,o),
(63,77,o),
(63,59,cs),
(58,-42,o),
(52,-57,o),
(32,-81,cs),
(24,-90,o),
(10,-95,o),
(-12,-95,cs),
(-26,-95,o),
(-65,-89,o),
(-72,-89,cs),
(-81,-89,o),
(-90,-105,o),
(-90,-121,cs),
(-90,-147,o),
(-87,-166,o),
(-66,-175,cs),
(-44,-184,o),
(-1,-188,o),
(28,-188,cs)
);
}
);
width = 817;
}
);
metricRight = H;
metricWidth = H;
unicode = 42922;
},
{
color = 6;
glyphname = Hturned;
lastChange = "2023-02-16 16:28:21 +0000";
layers = (
{
anchors = (
{
name = bottom;
pos = (269,0);
},
{
name = center;
pos = (289,326);
},
{
name = top;
pos = (314,652);
}
);
layerId = "220B7CD1-1E4F-4884-BA06-A44A5DCE8B14";
shapes = (
{
closed = 1;
nodes = (
(55,321,o),
(61,309,o),
(112,309,c),
(190,313,o),
(238,315,o),
(295,315,cs),
(367,315,o),
(439,313,o),
(509,310,c),
(500,160,o),
(489,20,o),
(489,14,cs),
(489,-4,o),
(519,-13,o),
(542,-13,cs),
(550,-13,o),
(553,-10,o),
(553,-5,cs),
(553,317,o),
(588,612,o),
(588,626,cs),
(588,644,o),
(557,652,o),
(534,652,cs),
(525,652,o),
(524,650,o),
(524,645,cs),
(523,597,o),
(518,476,o),
(511,353,c),
(114,353,l),
(124,509,o),
(137,618,o),
(137,626,cs),
(137,644,o),
(107,652,o),
(84,652,cs),
(75,652,o),
(74,650,o),
(74,645,cs),
(71,537,o),
(55,351,o),
(55,339,cs)
);
}
);
width = 677;
},
{
anchors = (
{
name = bottom;
pos = (283,0);
},
{
name = center;
pos = (303,326);
},
{
name = top;
pos = (328,652);
}
);
layerId = "63F4CE79-9D5F-46D3-B41C-385689F27F0A";
shapes = (
{
closed = 1;
nodes = (
(11,253,o),
(52,256,o),
(116,256,c),
(167,262,o),
(283,265,o),
(334,265,c),
(374,265,o),
(413,263,o),
(448,259,c),
(442,152,o),
(437,67,o),
(437,59,cs),
(437,9,o),
(544,-13,o),
(608,-13,cs),
(652,-13,o),
(657,-4,o),
(657,21,cs),
(657,199,o),
(681,562,o),
(681,580,cs),
(681,630,o),
(574,652,o),
(510,652,cs),
(466,652,o),
(461,643,o),
(461,618,cs),
(461,553,o),
(458,465,o),
(454,379,c),
(233,379,l),
(239,487,o),
(244,572,o),
(244,580,cs),
(244,630,o),
(137,652,o),
(73,652,cs),
(29,652,o),
(24,643,o),
(24,618,cs),
(24,440,o),
(11,321,o),
(11,303,cs)
);
}
);
width = 714;
}
);
metricLeft = "=|F";
unicode = 42893;
},
{
color = 1;
glyphname = I;
kernLeft = KO_I;
kernRight = KO_H;
lastChange = "2023-02-16 15:43:01 +0000";
layers = (
{
anchors = (
{
name = bottom;
pos = (129,0);
},
{
name = ogonek;
pos = (135,10);
},
{
name = top;
pos = (183,652);
},
{
name = topleft;
pos = (27,652);
}
);
layerId = "220B7CD1-1E4F-4884-BA06-A44A5DCE8B14";
shapes = (
{
closed = 1;
nodes = (
(164,-13,o),
(166,-10,o),
(166,-5,cs),
(166,317,o),
(201,612,o),
(201,626,cs),
(201,644,o),
(171,652,o),
(148,652,cs),
(139,652,o),
(138,650,o),
(138,645,cs),
(135,537,o),
(103,26,o),
(103,14,cs),
(103,-4,o),
(133,-13,o),
(156,-13,cs)
);
}
);
width = 290;
},
{
anchors = (
{
name = bottom;
pos = (172,0);
},
{
name = ogonek;
pos = (183,10);
},
{
name = top;
pos = (206,652);
},
{
name = topleft;
pos = (32,652);
}
);
layerId = "63F4CE79-9D5F-46D3-B41C-385689F27F0A";
shapes = (
{
closed = 1;
nodes = (
(280,-13,o),
(285,-4,o),
(285,21,c),
(285,199,o),
(309,562,o),
(309,579,c),
(309,630,o),
(202,652,o),
(138,652,c),
(94,652,o),
(89,643,o),
(89,618,c),
(89,440,o),
(65,77,o),
(65,59,c),
(65,9,o),
(172,-13,o),
(236,-13,c)
);
}
);
width = 344;
}
);
note = I;
unicode = 73;
},
{
color = 4;
glyphname = Iotaafrican;
lastChange = "2023-02-08 06:35:54 +0000";
layers = (
{
layerId = "220B7CD1-1E4F-4884-BA06-A44A5DCE8B14";
shapes = (
{
closed = 1;
nodes = (
(192,-13,o),
(277,88,o),
(310,131,cs),
(312,133,o),
(313,137,o),
(313,141,cs),
(313,154,o),
(303,170,o),
(299,170,cs),
(296,170,o),
(295,167,o),
(292,164,c),
(271,136,o),
(189,41,o),
(170,41,cs),
(158,41,o),
(151,48,o),
(154,89,cs),
(161,202,o),
(199,580,o),
(199,626,cs),
(199,644,o),
(171,653,o),
(150,653,cs),
(142,653,o),
(141,650,o),
(141,645,cs),
(124,368,o),
(108,191,o),
(99,63,cs),
(97,40,o),
(98,26,o),
(101,20,cs),
(106,9,o),
(139,-13,o),
(150,-13,cs)
);
}
);
width = 304;
},
{
background = {
shapes = (
{
closed = 1;
nodes = (
(217,-13,o),
(302,88,o),
(335,131,cs),
(337,133,o),
(338,137,o),
(338,141,cs),
(338,154,o),
(328,170,o),
(324,170,cs),
(321,170,o),
(320,167,o),
(317,164,c),
(296,136,o),
(214,41,o),
(195,41,cs),
(183,41,o),
(176,48,o),
(179,89,cs),
(186,202,o),
(224,580,o),
(224,626,cs),
(224,644,o),
(196,653,o),
(175,653,cs),
(167,653,o),
(166,650,o),
(166,645,cs),
(149,368,o),
(133,191,o),
(124,63,cs),
(122,40,o),
(123,26,o),
(126,20,cs),
(131,9,o),
(164,-13,o),
(175,-13,cs)
);
},
{
closed = 1;
nodes = (
(274,-13,o),
(281,-5,o),
(281,14,cs),
(281,77,o),
(280,118,o),
(299,178,cs),
(327,264,o),
(383,343,o),
(400,343,cs),
(408,343,o),
(411,338,o),
(411,285,cs),
(411,272,o),
(401,120,o),
(401,112,cs),
(401,97,o),
(402,84,o),
(404,69,cs),
(411,18,o),
(514,-13,o),
(532,-13,cs),
(576,-13,o),
(673,104,o),
(695,137,cs),
(702,147,o),
(706,157,o),
(706,167,cs),
(706,187,o),
(689,211,o),
(678,211,cs),
(674,211,o),
(672,209,o),
(666,201,cs),
(659,192,o),
(640,168,o),
(632,168,cs),
(624,168,o),
(621,173,o),
(621,226,cs),
(621,243,o),
(631,387,o),
(631,399,cs),
(631,414,o),
(630,427,o),
(628,442,cs),
(621,493,o),
(518,524,o),
(500,524,cs),
(447,524,o),
(293,340,o),
(286,275,c),
(292,336,o),
(301,421,o),
(301,433,cs),
(301,494,o),
(198,524,o),
(117,524,cs),
(91,524,o),
(84,516,o),
(84,497,cs),
(84,486,o),
(64,174,o),
(64,78,cs),
(64,18,o),
(167,-13,o),
(248,-13,cs)
);
}
);
};
layerId = "63F4CE79-9D5F-46D3-B41C-385689F27F0A";
shapes = (
{
closed = 1;
nodes = (
(237,-8,o),
(334,109,o),
(356,142,cs),
(363,152,o),
(367,162,o),
(367,172,cs),
(367,192,o),
(350,216,o),
(339,216,cs),
(335,216,o),
(333,214,o),
(327,206,cs),
(320,197,o),
(301,173,o),
(293,173,cs),
(285,173,o),
(278,178,o),
(282,231,cs),
(288,292,o),
(306,549,o),
(306,561,cs),
(306,622,o),
(203,652,o),
(122,652,cs),
(96,652,o),
(89,644,o),
(89,625,cs),
(89,568,o),
(72,258,o),
(64,147,cs),
(62,115,o),
(63,90,o),
(65,74,cs),
(72,23,o),
(175,-8,o),
(193,-8,cs)
);
}
);
width = 374;
}
);
metricLeft = H;
metricRight = n;
unicode = 406;
},
{
color = 1;
glyphname = Istroke;
lastChange = "2022-09-28 01:36:21 +0000";
layers = (
{
anchors = (
{
name = bottom;
pos = (122,0);
},
{
name = ogonek;
pos = (261,10);
},
{
name = top;
pos = (176,652);
},
{
name = topleft;
pos = (20,652);
}
);
layerId = "220B7CD1-1E4F-4884-BA06-A44A5DCE8B14";
shapes = (
{
closed = 1;
nodes = (
(157,-13,o),
(159,-10,o),
(159,-5,cs),
(159,317,o),
(194,612,o),
(194,626,cs),
(194,644,o),
(164,652,o),
(141,652,cs),
(132,652,o),
(131,650,o),
(131,645,cs),
(128,537,o),
(96,26,o),
(96,14,cs),
(96,-4,o),
(126,-13,o),
(149,-13,cs)
);
},
{
closed = 1;
nodes = (
(234,322,l),
(250,322,o),
(257,343,o),
(257,360,cs),
(257,366,o),
(254,368,o),
(249,368,c),
(54,368,l),
(36,368,o),
(32,347,o),
(32,330,cs),
(32,323,o),
(34,322,o),
(39,322,c)
);
}
);
width = 290;
},
{
anchors = (
{
name = bottom;
pos = (160,0);
},
{
name = ogonek;
pos = (261,10);
},
{
name = top;
pos = (194,652);
},
{
name = topleft;
pos = (20,652);
}
);
layerId = "63F4CE79-9D5F-46D3-B41C-385689F27F0A";
shapes = (
{
closed = 1;
nodes = (
(268,-13,o),
(273,-4,o),
(273,21,c),
(273,199,o),
(297,562,o),
(297,579,c),
(297,630,o),
(190,652,o),
(126,652,c),
(82,652,o),
(77,643,o),
(77,618,c),
(77,440,o),
(53,77,o),
(53,59,c),
(53,9,o),
(160,-13,o),
(224,-13,c)
);
},
{
closed = 1;
nodes = (
(319,300,l),
(334,300,o),
(345,322,o),
(345,358,cs),
(345,381,o),
(342,384,o),
(332,384,c),
(25,384,l),
(10,384,o),
(-1,362,o),
(-1,326,cs),
(-1,303,o),
(2,300,o),
(12,300,c)
);
}
);
width = 350;
}
);
unicode = 407;
},
{
color = 1;
glyphname = J;
kernLeft = KO_J;
kernRight = KO_J;
lastChange = "2022-10-11 01:03:35 +0000";
layers = (
{
anchors = (
{
name = bottom;
pos = (225,0);
},
{
name = top;
pos = (282,652);
}
);
layerId = "220B7CD1-1E4F-4884-BA06-A44A5DCE8B14";
shapes = (
{
closed = 1;
nodes = (
(184,-13,o),
(239,24,o),
(269,115,cs),
(297,200,o),
(306,543,o),
(306,626,cs),
(306,644,o),
(276,652,o),
(253,652,cs),
(244,652,o),
(243,650,o),
(243,645,cs),
(243,252,o),
(225,82,o),
(186,48,cs),
(170,34,o),
(152,26,o),
(130,26,cs),
(87,26,o),
(40,49,o),
(29,49,cs),
(24,49,o),
(20,42,o),
(20,31,cs),
(20,12,o),
(23,5,o),
(35,-1,c),
(53,-10,o),
(79,-13,o),
(121,-13,cs)
);
}
);
width = 396;
},
{
anchors = (
{
name = bottom;
pos = (152,0);
},
{
name = top;
pos = (237,652);
}
);
layerId = "63F4CE79-9D5F-46D3-B41C-385689F27F0A";
shapes = (
{
closed = 1;
nodes = (
(208,-13,o),
(269,27,o),
(292,97,cs),
(326,200,o),
(335,503,o),
(335,580,cs),
(335,630,o),
(228,652,o),
(164,652,cs),
(120,652,o),
(115,643,o),
(115,618,cs),
(115,413,o),
(108,118,o),
(87,91,cs),
(79,80,o),
(69,77,o),
(55,77,cs),
(45,77,o),
(37,79,o),
(32,79,cs),
(25,79,o),
(20,61,o),
(20,49,cs),
(20,32,o),
(26,3,o),
(36,-1,c),
(54,-9,o),
(92,-13,o),
(120,-13,cs)
);
}
);
width = 365;
}
);
note = J;
unicode = 74;
},
{
color = 6;
glyphname = Jstroke;
lastChange = "2023-02-09 03:32:48 +0000";
layers = (
{
anchors = (
{
name = bottom;
pos = (225,0);
},
{
name = top;
pos = (282,652);
}
);
layerId = "220B7CD1-1E4F-4884-BA06-A44A5DCE8B14";
shapes = (
{
closed = 1;
nodes = (
(184,-13,o),
(239,24,o),
(269,115,cs),
(297,200,o),
(306,543,o),
(306,626,cs),
(306,644,o),
(276,652,o),
(253,652,cs),
(244,652,o),
(243,650,o),
(243,645,cs),
(243,252,o),
(225,82,o),
(186,48,cs),
(170,34,o),
(152,26,o),
(130,26,cs),
(87,26,o),
(40,49,o),
(29,49,cs),
(24,49,o),
(20,42,o),
(20,31,cs),
(20,12,o),
(23,5,o),
(35,-1,c),
(53,-10,o),
(79,-13,o),
(121,-13,cs)
);
},
{
closed = 1;
nodes = (
(355,510,ls),
(364,510,o),
(369,529,o),
(369,547,cs),
(369,553,o),
(366,557,o),
(361,557,cs),
(128,557,ls),
(119,557,o),
(113,537,o),
(113,519,cs),
(113,513,o),
(115,509,o),
(120,509,cs)
);
}
);
width = 396;
},
{
anchors = (
{
name = bottom;
pos = (152,0);
},
{
name = top;
pos = (237,652);
}
);
layerId = "63F4CE79-9D5F-46D3-B41C-385689F27F0A";
shapes = (
{
closed = 1;
nodes = (
(208,-13,o),
(269,27,o),
(292,97,cs),
(326,200,o),
(335,503,o),
(335,580,cs),
(335,630,o),
(228,652,o),
(164,652,cs),
(120,652,o),
(115,643,o),
(115,618,cs),
(115,413,o),
(108,118,o),
(87,91,cs),
(79,80,o),
(69,77,o),
(55,77,cs),
(45,77,o),
(37,79,o),
(32,79,cs),
(25,79,o),
(20,61,o),
(20,49,cs),
(20,32,o),
(26,3,o),
(36,-1,c),
(54,-9,o),
(92,-13,o),
(120,-13,cs)
);
},
{
closed = 1;
nodes = (
(343,436,ls),
(358,436,o),
(369,458,o),
(369,509,cs),
(369,538,o),
(366,541,o),
(356,541,cs),
(68,541,ls),
(53,541,o),
(42,514,o),
(42,474,cs),
(42,440,o),
(45,436,o),
(55,436,cs)
);
}
);
width = 365;
}
);
unicode = 584;
},
{
color = 1;
glyphname = K;
kernLeft = KO_H;
kernRight = KO_K;
lastChange = "2023-02-19 07:06:02 +0000";
layers = (
{
anchors = (
{
name = bottom;
pos = (288,0);
},
{
name = top;
pos = (332,652);
}
);
layerId = "220B7CD1-1E4F-4884-BA06-A44A5DCE8B14";
shapes = (
{
closed = 1;
nodes = (
(159,-13,o),
(161,-10,o),
(161,-5,cs),
(161,111,o),
(166,222,o),
(171,316,c),
(178,311,o),
(187,302,o),
(200,292,cs),
(277,228,o),
(450,69,o),
(539,-8,cs),
(542,-11,o),
(546,-13,o),
(555,-13,cs),
(564,-13,o),
(580,-2,o),
(590,7,cs),
(596,13,o),
(601,18,o),
(601,20,cs),
(601,23,o),
(600,24,o),
(594,29,cs),
(457,134,o),
(277,297,o),
(241,331,c),
(290,374,o),
(499,557,o),
(581,633,cs),
(587,639,o),
(589,641,o),
(589,644,cs),
(589,649,o),
(574,652,o),
(559,652,cs),
(541,652,o),
(533,650,o),
(522,640,cs),
(368,500,o),
(215,359,o),
(171,322,c),
(181,492,o),
(196,617,o),
(196,626,cs),
(196,644,o),
(166,652,o),
(143,652,cs),
(134,652,o),
(133,650,o),
(133,645,cs),
(130,537,o),
(98,26,o),
(98,14,cs),
(98,-4,o),
(128,-13,o),
(151,-13,cs)
);
}
);
width = 631;
},
{
anchors = (
{
name = bottom;
pos = (306,0);
},
{
name = top;
pos = (350,652);
}
);
background = {
shapes = (
{
closed = 1;
nodes = (
(288,-13,o),
(293,-4,o),
(293,21,c),
(293,88,o),
(296,185,o),
(300,276,c),
(306,263,o),
(317,245,o),
(327,230,cs),
(378,152,o),
(425,89,o),
(478,14,c),
(492,-10,o),
(502,-13,o),
(524,-13,c),
(579,-13,o),
(637,17,o),
(679,48,c),
(690,56,o),
(698,63,o),
(698,70,c),
(698,77,o),
(696,83,o),
(683,101,c),
(643,157,o),
(535,344,o),
(512,384,c),
(583,476,o),
(638,538,o),
(665,570,c),
(676,583,o),
(681,590,o),
(681,596,c),
(681,614,o),
(646,652,o),
(599,652,c),
(570,652,o),
(562,638,o),
(546,619,c),
(508,573,o),
(366,390,o),
(302,311,c),
(309,447,o),
(317,570,o),
(317,580,c),
(317,630,o),
(210,652,o),
(146,652,c),
(102,652,o),
(97,643,o),
(97,618,c),
(97,440,o),
(73,77,o),
(73,59,c),
(73,9,o),
(180,-13,o),
(244,-13,c)
);
}
);
};
layerId = "63F4CE79-9D5F-46D3-B41C-385689F27F0A";
shapes = (
{
closed = 1;
nodes = (
(278,-13,o),
(283,-4,o),
(283,21,cs),
(283,88,o),
(286,185,o),
(290,276,c),
(296,263,o),
(321,251,o),
(337,246,c),
(381,168,o),
(424,89,o),
(468,14,cs),
(482,-10,o),
(492,-13,o),
(514,-13,cs),
(569,-13,o),
(627,17,o),
(669,48,cs),
(680,56,o),
(688,63,o),
(688,70,cs),
(688,77,o),
(686,83,o),
(673,101,cs),
(633,157,o),
(525,344,o),
(502,384,c),
(573,476,o),
(628,538,o),
(655,570,cs),
(666,583,o),
(671,590,o),
(671,596,cs),
(671,614,o),
(636,652,o),
(589,652,cs),
(560,652,o),
(552,638,o),
(536,619,cs),
(498,573,o),
(356,390,o),
(292,311,c),
(299,447,o),
(307,570,o),
(307,580,cs),
(307,630,o),
(200,652,o),
(136,652,cs),
(92,652,o),
(87,643,o),
(87,618,cs),
(87,440,o),
(63,77,o),
(63,59,cs),
(63,9,o),
(170,-13,o),
(234,-13,cs)
);
}
);
width = 703;
}
);
metricLeft = "=H";
note = K;
unicode = 75;
},
{
color = 6;
glyphname = Khook;
kernLeft = KO_H;
lastChange = "2023-02-16 14:59:02 +0000";
layers = (
{
anchors = (
{
name = bottom;
pos = (288,0);
},
{
name = top;
pos = (332,652);
}
);
layerId = "220B7CD1-1E4F-4884-BA06-A44A5DCE8B14";
shapes = (
{
closed = 1;
nodes = (
(159,-13,o),
(161,-10,o),
(161,-5,cs),
(161,111,o),
(166,222,o),
(171,316,c),
(178,311,o),
(187,302,o),
(200,292,cs),
(277,228,o),
(450,69,o),
(539,-8,cs),
(542,-11,o),
(546,-13,o),
(555,-13,cs),
(564,-13,o),
(580,-2,o),
(590,7,cs),
(596,13,o),
(601,18,o),
(601,20,cs),
(601,23,o),
(600,24,o),
(594,29,cs),
(457,134,o),
(277,297,o),
(241,331,c),
(285,388,o),
(407,614,o),
(519,614,cs),
(556,614,o),
(569,608,o),
(575,606,cs),
(578,605,o),
(591,599,o),
(596,599,cs),
(602,599,o),
(606,612,o),
(606,624,cs),
(606,630,o),
(605,634,o),
(600,638,cs),
(575,655,o),
(560,666,o),
(543,666,cs),
(361,666,o),
(215,359,o),
(171,322,c),
(181,492,o),
(196,617,o),
(196,626,cs),
(196,644,o),
(166,652,o),
(143,652,cs),
(134,652,o),
(133,650,o),
(133,645,cs),
(130,537,o),
(98,26,o),
(98,14,cs),
(98,-4,o),
(128,-13,o),
(151,-13,cs)
);
}
);
width = 631;
},
{
anchors = (
{
name = bottom;
pos = (296,0);
},
{
name = top;
pos = (340,652);
}
);
background = {
shapes = (
{
ref = K;
}
);
};
layerId = "63F4CE79-9D5F-46D3-B41C-385689F27F0A";
shapes = (
{
closed = 1;
nodes = (
(278,-13,o),
(283,-4,o),
(283,21,cs),
(283,88,o),
(286,185,o),
(290,288,c),
(305,267,o),
(313,258,o),
(330,236,c),
(390,158,o),
(454,89,o),
(498,14,cs),
(512,-10,o),
(522,-13,o),
(544,-13,cs),
(599,-13,o),
(657,17,o),
(699,48,cs),
(710,56,o),
(718,63,o),
(718,70,cs),
(718,77,o),
(716,83,o),
(703,101,cs),
(663,157,o),
(458,359,o),
(435,399,c),
(447,485,o),
(525,557,o),
(623,557,cs),
(636,557,o),
(646,556,o),
(656,555,cs),
(664,554,o),
(668,553,o),
(671,553,cs),
(681,553,o),
(689,570,o),
(689,586,cs),
(689,609,o),
(685,626,o),
(670,634,cs),
(655,642,o),
(620,652,o),
(581,652,cs),
(397,652,o),
(337,417,o),
(292,311,c),
(299,447,o),
(307,570,o),
(307,580,cs),
(307,630,o),
(200,652,o),
(136,652,cs),
(92,652,o),
(87,643,o),
(87,618,cs),
(87,440,o),
(63,77,o),
(63,59,cs),
(63,9,o),
(170,-13,o),
(234,-13,cs)
);
}
);
width = 746;
}
);
metricLeft = H;
unicode = 408;
},
{
color = 6;
glyphname = Kstroke;
lastChange = "2023-02-08 07:37:48 +0000";
layers = (
{
anchors = (
{
name = bottom;
pos = (288,0);
},
{
name = top;
pos = (332,652);
}
);
layerId = "220B7CD1-1E4F-4884-BA06-A44A5DCE8B14";
shapes = (
{
closed = 1;
nodes = (
(159,-13,o),
(161,-10,o),
(161,-5,cs),
(161,111,o),
(166,222,o),
(171,316,c),
(178,311,o),
(187,302,o),
(200,292,cs),
(277,228,o),
(450,69,o),
(539,-8,cs),
(542,-11,o),
(546,-13,o),
(555,-13,cs),
(564,-13,o),
(580,-2,o),
(590,7,cs),
(596,13,o),
(601,18,o),
(601,20,cs),
(601,23,o),
(600,24,o),
(594,29,cs),
(457,134,o),
(277,297,o),
(241,331,c),
(290,374,o),
(499,557,o),
(581,633,cs),
(587,639,o),
(589,641,o),
(589,644,cs),
(589,649,o),
(574,652,o),
(559,652,cs),
(541,652,o),
(533,650,o),
(522,640,cs),
(368,500,o),
(215,359,o),
(171,322,c),
(181,492,o),
(196,617,o),
(196,626,cs),
(196,644,o),
(166,652,o),
(143,652,cs),
(134,652,o),
(133,650,o),
(133,645,cs),
(130,537,o),
(98,26,o),
(98,14,cs),
(98,-4,o),
(128,-13,o),
(151,-13,cs)
);
},
{
closed = 1;
nodes = (
(289,510,ls),
(298,510,o),
(303,529,o),
(303,547,cs),
(303,553,o),
(300,557,o),
(295,557,cs),
(62,557,ls),
(53,557,o),
(47,537,o),
(47,519,cs),
(47,513,o),
(49,509,o),
(54,509,cs)
);
}
);
width = 631;
},
{
anchors = (
{
name = bottom;
pos = (296,0);
},
{
name = top;
pos = (340,652);
}
);
layerId = "63F4CE79-9D5F-46D3-B41C-385689F27F0A";
shapes = (
{
closed = 1;
nodes = (
(278,-13,o),
(283,-4,o),
(283,21,c),
(283,88,o),
(286,185,o),
(290,276,c),
(296,263,o),
(321,251,o),
(337,246,c),
(381,168,o),
(424,89,o),
(468,14,c),
(482,-10,o),
(492,-13,o),
(514,-13,c),
(569,-13,o),
(627,17,o),
(669,48,c),
(680,56,o),
(688,63,o),
(688,70,c),
(688,77,o),
(686,83,o),
(673,101,c),
(633,157,o),
(525,344,o),
(502,384,c),
(573,476,o),
(628,538,o),
(655,570,c),
(666,583,o),
(671,590,o),
(671,596,c),
(671,614,o),
(636,652,o),
(589,652,c),
(560,652,o),
(552,638,o),
(536,619,c),
(498,573,o),
(356,390,o),
(292,311,c),
(299,447,o),
(307,570,o),
(307,580,c),
(307,630,o),
(200,652,o),
(136,652,c),
(92,652,o),
(87,643,o),
(87,618,c),
(87,440,o),
(63,77,o),
(63,59,c),
(63,9,o),
(170,-13,o),
(234,-13,c)
);
},
{
closed = 1;
nodes = (
(333,436,ls),
(348,436,o),
(359,458,o),
(359,509,cs),
(359,538,o),
(356,541,o),
(346,541,cs),
(58,541,ls),
(43,541,o),
(32,514,o),
(32,474,cs),
(32,440,o),
(35,436,o),
(45,436,cs)
);
}
);
width = 693;
}
);
unicode = 42816;
},
{
color = 1;
glyphname = L;
kernLeft = KO_L;
kernRight = KO_L;
lastChange = "2023-02-19 20:47:01 +0000";
layers = (
{
anchors = (
{
name = bottom;
pos = (259,0);
},
{
name = center;
pos = (236,326);
},
{
name = top;
pos = (243,652);
},
{
name = topright;
pos = (416,524);
}
);
layerId = "220B7CD1-1E4F-4884-BA06-A44A5DCE8B14";
shapes = (
{
closed = 1;
nodes = (
(439,0,ls),
(447,0,o),
(457,26,o),
(457,44,cs),
(457,52,o),
(457,58,o),
(454,58,cs),
(452,58,o),
(362,37,o),
(253,37,cs),
(176,37,o),
(164,43,o),
(164,82,cs),
(164,322,o),
(197,620,o),
(197,626,cs),
(197,644,o),
(167,652,o),
(144,652,cs),
(136,652,o),
(134,650,o),
(134,645,cs),
(127,428,o),
(105,76,o),
(98,0,c)
);
}
);
width = 483;
},
{
anchors = (
{
name = bottom;
pos = (252,0);
},
{
name = center;
pos = (239,326);
},
{
name = top;
pos = (246,632);
},
{
name = topright;
pos = (419,524);
}
);
layerId = "63F4CE79-9D5F-46D3-B41C-385689F27F0A";
shapes = (
{
closed = 1;
nodes = (
(464,0,ls),
(493,0,o),
(500,62,o),
(500,81,cs),
(500,107,o),
(500,113,o),
(492,113,cs),
(482,113,o),
(428,106,o),
(376,106,cs),
(299,106,o),
(288,115,o),
(288,146,cs),
(288,213,o),
(310,565,o),
(310,580,cs),
(310,630,o),
(203,652,o),
(139,652,cs),
(95,652,o),
(90,643,o),
(90,618,cs),
(90,432,o),
(63,28,o),
(63,0,c)
);
}
);
width = 505;
}
);
metricLeft = "=H";
note = L;
unicode = 76;
},
{
color = 1;
glyphname = Lslash;
kernLeft = KO_Lslash;
kernRight = KO_Lslash;
lastChange = "2023-02-16 15:44:23 +0000";
layers = (
{
layerId = "220B7CD1-1E4F-4884-BA06-A44A5DCE8B14";
shapes = (
{
closed = 1;
nodes = (
(446,0,ls),
(454,0,o),
(464,26,o),
(464,44,cs),
(464,52,o),
(464,58,o),
(461,58,cs),
(459,58,o),
(369,37,o),
(260,37,cs),
(183,37,o),
(171,43,o),
(171,82,cs),
(171,148,o),
(173,215,o),
(177,280,c),
(221,321,o),
(282,373,o),
(306,401,cs),
(311,407,o),
(314,412,o),
(314,423,cs),
(314,438,o),
(309,464,o),
(300,464,cs),
(296,464,o),
(261,423,o),
(180,340,c),
(190,496,o),
(204,622,o),
(204,626,cs),
(204,644,o),
(174,652,o),
(151,652,cs),
(143,652,o),
(141,650,o),
(141,645,cs),
(138,544,o),
(131,415,o),
(125,298,c),
(80,256,o),
(40,219,o),
(33,210,cs),
(28,204,o),
(25,199,o),
(25,188,cs),
(25,173,o),
(30,147,o),
(39,147,cs),
(43,147,o),
(58,168,o),
(121,232,c),
(114,123,o),
(108,34,o),
(105,0,c)
);
}
);
width = 490;
},
{
layerId = "63F4CE79-9D5F-46D3-B41C-385689F27F0A";
shapes = (
{
closed = 1;
nodes = (
(453,0,ls),
(482,0,o),
(489,62,o),
(489,81,cs),
(489,107,o),
(489,113,o),
(481,113,cs),
(471,113,o),
(417,106,o),
(365,106,cs),
(288,106,o),
(277,115,o),
(277,146,cs),
(277,174,o),
(281,251,o),
(285,331,c),
(329,373,o),
(390,428,o),
(397,437,cs),
(402,444,o),
(406,449,o),
(406,460,cs),
(406,475,o),
(399,503,o),
(386,504,cs),
(382,504,o),
(352,473,o),
(290,411,c),
(295,503,o),
(299,573,o),
(299,580,cs),
(299,630,o),
(192,652,o),
(128,652,cs),
(84,652,o),
(79,643,o),
(79,618,cs),
(79,525,o),
(72,376,o),
(66,251,c),
(24,212,o),
(-23,168,o),
(-29,160,cs),
(-34,153,o),
(-38,148,o),
(-38,137,cs),
(-38,122,o),
(-31,93,o),
(-18,93,cs),
(-14,93,o),
(11,119,o),
(62,170,c),
(56,77,o),
(52,11,o),
(52,0,c)
);
}
);
width = 494;
}
);
metricRight = L;
unicode = 321;
},
{
color = 1;
glyphname = M;
kernLeft = KO_M;
kernRight = KO_M;
lastChange = "2023-02-16 15:21:07 +0000";
layers = (
{
anchors = (
{
name = bottom;
pos = (470,0);
},
{
name = top;
pos = (524,652);
}
);
layerId = "220B7CD1-1E4F-4884-BA06-A44A5DCE8B14";
shapes = (
{
closed = 1;
nodes = (
(144,-13,o),
(145,-10,o),
(145,-5,cs),
(145,49,o),
(188,379,o),
(213,562,c),
(256,466,o),
(393,134,o),
(447,5,cs),
(451,-4,o),
(462,-13,o),
(477,-13,cs),
(482,-13,o),
(486,-8,o),
(488,-4,cs),
(591,183,o),
(756,477,o),
(811,576,c),
(811,559,o),
(815,427,o),
(814,281,cs),
(813,194,o),
(809,83,o),
(809,14,cs),
(809,-4,o),
(838,-13,o),
(859,-13,cs),
(867,-13,o),
(869,-10,o),
(869,-3,cs),
(869,210,o),
(866,412,o),
(864,625,cs),
(864,645,o),
(828,652,o),
(807,652,cs),
(798,652,o),
(796,651,o),
(792,644,cs),
(750,567,o),
(588,262,o),
(483,76,c),
(429,191,o),
(323,443,o),
(250,628,cs),
(244,644,o),
(219,652,o),
(189,652,cs),
(178,652,o),
(176,650,o),
(175,637,cs),
(153,429,o),
(90,24,o),
(90,14,cs),
(90,-4,o),
(117,-13,o),
(137,-13,cs)
);
}
);
width = 979;
},
{
anchors = (
{
name = bottom;
pos = (450,0);
},
{
name = top;
pos = (536,652);
}
);
layerId = "63F4CE79-9D5F-46D3-B41C-385689F27F0A";
shapes = (
{
closed = 1;
nodes = (
(151,-13,o),
(157,-7,o),
(158,4,cs),
(166,69,o),
(207,412,o),
(221,470,c),
(244,381,o),
(306,119,o),
(316,59,cs),
(323,17,o),
(406,-13,o),
(495,-13,cs),
(533,-13,o),
(541,-8,o),
(548,14,cs),
(585,129,o),
(684,339,o),
(743,474,c),
(745,410,o),
(747,335,o),
(747,266,cs),
(748,168,o),
(748,83,o),
(748,61,cs),
(748,12,o),
(848,-13,o),
(922,-13,cs),
(958,-13,o),
(972,-7,o),
(972,15,cs),
(972,43,o),
(954,519,o),
(954,579,cs),
(954,630,o),
(828,652,o),
(754,652,cs),
(715,652,o),
(702,648,o),
(697,634,cs),
(675,570,o),
(536,271,o),
(503,204,c),
(484,268,o),
(424,520,o),
(410,581,cs),
(399,628,o),
(282,652,o),
(197,652,cs),
(143,652,o),
(139,648,o),
(135,618,cs),
(129,570,o),
(48,112,o),
(48,59,cs),
(48,9,o),
(102,-13,o),
(134,-13,cs)
);
}
);
width = 1017;
}
);
note = M;
unicode = 77;
},
{
color = 6;
glyphname = Mhook;
lastChange = "2023-02-09 03:53:27 +0000";
layers = (
{
anchors = (
{
name = bottom;
pos = (470,0);
},
{
name = top;
pos = (504,652);
}
);
layerId = "220B7CD1-1E4F-4884-BA06-A44A5DCE8B14";
shapes = (
{
closed = 1;
nodes = (
(717,-244,o),
(760,-225,o),
(797,-190,cs),
(829,-160,o),
(858,-88,o),
(864,-3,cs),
(864,210,o),
(866,412,o),
(864,625,cs),
(864,645,o),
(828,652,o),
(807,652,cs),
(798,652,o),
(796,651,o),
(792,644,cs),
(750,567,o),
(588,262,o),
(483,76,c),
(429,191,o),
(323,443,o),
(250,628,cs),
(244,644,o),
(219,652,o),
(189,652,cs),
(178,652,o),
(176,650,o),
(175,637,cs),
(153,429,o),
(90,24,o),
(90,14,cs),
(90,-4,o),
(117,-13,o),
(137,-13,cs),
(144,-13,o),
(145,-10,o),
(145,-5,cs),
(145,49,o),
(188,379,o),
(213,562,c),
(256,466,o),
(393,134,o),
(447,5,cs),
(451,-4,o),
(462,-13,o),
(477,-13,cs),
(482,-13,o),
(486,-8,o),
(488,-4,cs),
(591,183,o),
(756,477,o),
(811,576,c),
(811,559,o),
(815,427,o),
(814,281,cs),
(813,194,o),
(809,109,o),
(807,40,c),
(791,-173,o),
(768,-193,o),
(687,-193,cs),
(617,-193,o),
(536,-161,o),
(503,-147,cs),
(497,-145,o),
(490,-141,o),
(488,-141,cs),
(485,-141,o),
(481,-146,o),
(481,-164,cs),
(481,-174,o),
(485,-185,o),
(491,-189,cs),
(503,-198,o),
(595,-244,o),
(684,-244,cs)
);
}
);
width = 975;
},
{
anchors = (
{
name = bottom;
pos = (450,0);
},
{
name = top;
pos = (524,652);
}
);
layerId = "63F4CE79-9D5F-46D3-B41C-385689F27F0A";
shapes = (
{
closed = 1;
nodes = (
(767,-235,o),
(831,-230,o),
(884,-183,cs),
(925,-147,o),
(958,-84,o),
(958,-6,cs),
(958,59,o),
(954,522,o),
(954,579,cs),
(954,630,o),
(828,652,o),
(754,652,cs),
(715,652,o),
(702,648,o),
(697,634,cs),
(675,570,o),
(536,271,o),
(503,204,c),
(484,268,o),
(424,520,o),
(410,581,cs),
(399,628,o),
(282,652,o),
(197,652,cs),
(143,652,o),
(139,648,o),
(135,618,cs),
(129,570,o),
(48,112,o),
(48,59,cs),
(48,9,o),
(102,-13,o),
(134,-13,cs),
(151,-13,o),
(157,-7,o),
(158,4,cs),
(166,69,o),
(207,412,o),
(221,470,c),
(244,381,o),
(306,119,o),
(316,59,cs),
(323,17,o),
(406,-13,o),
(495,-13,cs),
(533,-13,o),
(541,-8,o),
(548,14,cs),
(585,129,o),
(684,339,o),
(743,474,c),
(745,410,o),
(746,335,o),
(747,266,cs),
(749,119,o),
(733,7,o),
(733,-15,c),
(724,-109,o),
(696,-140,o),
(663,-140,cs),
(628,-140,o),
(618,-139,o),
(608,-138,cs),
(600,-137,o),
(596,-136,o),
(593,-136,cs),
(583,-136,o),
(575,-153,o),
(575,-169,cs),
(575,-192,o),
(579,-209,o),
(594,-217,cs),
(609,-225,o),
(671,-235,o),
(718,-235,cs)
);
}
);
width = 1003;
}
);
metricLeft = M;
metricRight = M;
unicode = 11374;
},
{
color = 6;
glyphname = Mturned;
lastChange = "2023-02-10 04:15:03 +0000";
layers = (
{
layerId = "220B7CD1-1E4F-4884-BA06-A44A5DCE8B14";
shapes = (
{
closed = 1;
nodes = (
(240,-4,o),
(422,251,o),
(483,496,c),
(483,485,o),
(462,106,o),
(462,72,cs),
(462,49,o),
(463,35,o),
(466,29,cs),
(471,17,o),
(504,-4,o),
(515,-4,cs),
(575,-4,o),
(757,251,o),
(818,496,c),
(818,485,o),
(795,69,o),
(795,23,cs),
(795,5,o),
(822,-4,o),
(844,-4,cs),
(851,-4,o),
(852,-1,o),
(852,4,cs),
(852,135,o),
(879,619,o),
(879,623,cs),
(879,641,o),
(858,650,o),
(839,650,cs),
(832,650,o),
(829,647,o),
(829,642,cs),
(829,593,o),
(801,526,o),
(774,454,cs),
(691,230,o),
(553,50,o),
(535,50,cs),
(523,50,o),
(520,57,o),
(520,98,cs),
(520,143,o),
(530,419,o),
(537,525,cs),
(538,543,o),
(544,615,o),
(544,623,cs),
(544,641,o),
(523,650,o),
(504,650,cs),
(497,650,o),
(494,647,o),
(494,642,cs),
(494,593,o),
(466,526,o),
(439,454,cs),
(356,230,o),
(218,50,o),
(200,50,cs),
(188,50,o),
(184,57,o),
(185,98,cs),
(186,169,o),
(205,497,o),
(206,574,cs),
(206,597,o),
(207,611,o),
(204,617,cs),
(199,628,o),
(165,650,o),
(154,650,cs),
(112,650,o),
(27,549,o),
(-6,506,cs),
(-8,504,o),
(-9,500,o),
(-9,496,cs),
(-9,483,o),
(1,467,o),
(5,467,cs),
(8,467,o),
(9,470,o),
(12,473,c),
(33,501,o),
(115,596,o),
(134,596,cs),
(146,596,o),
(151,589,o),
(150,548,cs),
(148,473,o),
(130,150,o),
(127,72,cs),
(126,49,o),
(128,35,o),
(131,29,cs),
(136,17,o),
(169,-4,o),
(180,-4,cs)
);
}
);
width = 968;
},
{
layerId = "63F4CE79-9D5F-46D3-B41C-385689F27F0A";
shapes = (
{
closed = 1;
nodes = (
(266,-8,o),
(418,174,o),
(427,240,c),
(421,191,o),
(415,132,o),
(415,117,cs),
(415,102,o),
(415,89,o),
(417,74,cs),
(424,23,o),
(530,-8,o),
(549,-8,cs),
(602,-8,o),
(756,176,o),
(763,241,c),
(757,180,o),
(748,95,o),
(748,83,cs),
(748,22,o),
(851,-8,o),
(932,-8,cs),
(958,-8,o),
(965,0,o),
(965,19,cs),
(965,30,o),
(985,461,o),
(985,557,cs),
(985,617,o),
(882,648,o),
(801,648,cs),
(775,648,o),
(768,640,o),
(768,621,cs),
(768,558,o),
(769,517,o),
(750,457,cs),
(723,371,o),
(666,173,o),
(649,173,cs),
(641,173,o),
(638,178,o),
(638,231,cs),
(638,244,o),
(648,515,o),
(648,523,cs),
(648,538,o),
(649,542,o),
(649,557,cs),
(649,617,o),
(546,648,o),
(465,648,cs),
(439,648,o),
(432,640,o),
(432,621,cs),
(432,558,o),
(433,517,o),
(414,457,cs),
(387,371,o),
(330,173,o),
(313,173,cs),
(305,173,o),
(302,178,o),
(302,231,cs),
(302,244,o),
(312,515,o),
(312,523,cs),
(312,538,o),
(311,551,o),
(309,566,cs),
(302,617,o),
(199,648,o),
(181,648,cs),
(137,648,o),
(40,531,o),
(18,498,cs),
(11,488,o),
(7,478,o),
(7,467,cs),
(7,448,o),
(24,424,o),
(35,424,cs),
(39,424,o),
(41,426,o),
(47,434,c),
(54,443,o),
(73,467,o),
(81,467,cs),
(89,467,o),
(92,462,o),
(92,409,cs),
(92,392,o),
(82,129,o),
(82,117,cs),
(82,102,o),
(83,89,o),
(85,74,cs),
(92,23,o),
(195,-8,o),
(213,-8,cs)
);
}
);
width = 1018;
}
);
metricLeft = "=|n";
metricRight = H;
unicode = 412;
},
{
color = 1;
glyphname = N;
kernLeft = KO_N;
kernRight = KO_N;
lastChange = "2023-02-19 20:47:12 +0000";
layers = (
{
anchors = (
{
name = bottom;
pos = (398,0);
},
{
name = top;
pos = (452,646);
}
);
layerId = "220B7CD1-1E4F-4884-BA06-A44A5DCE8B14";
shapes = (
{
closed = 1;
nodes = (
(154,-13,o),
(156,-11,o),
(156,-3,cs),
(156,160,o),
(175,544,o),
(176,563,c),
(206,518,o),
(560,123,o),
(676,-1,cs),
(681,-6,o),
(687,-13,o),
(691,-13,cs),
(698,-13,o),
(731,10,o),
(731,19,cs),
(731,132,o),
(765,613,o),
(765,626,cs),
(765,644,o),
(739,652,o),
(716,652,cs),
(707,652,o),
(706,651,o),
(706,642,cs),
(706,290,o),
(686,81,o),
(685,77,c),
(607,152,o),
(243,564,o),
(187,641,cs),
(183,646,o),
(176,652,o),
(172,652,cs),
(162,652,o),
(132,630,o),
(132,621,cs),
(132,508,o),
(98,26,o),
(98,14,cs),
(98,-4,o),
(123,-13,o),
(146,-13,cs)
);
}
);
width = 854;
},
{
anchors = (
{
name = bottom;
pos = (359,0);
},
{
name = top;
pos = (413,642);
}
);
layerId = "63F4CE79-9D5F-46D3-B41C-385689F27F0A";
shapes = (
{
closed = 1;
nodes = (
(178,-13,o),
(181,-4,o),
(181,21,cs),
(181,112,o),
(188,317,o),
(192,361,c),
(234,319,o),
(529,8,o),
(536,0,cs),
(543,-9,o),
(553,-13,o),
(563,-13,cs),
(595,-13,o),
(689,53,o),
(689,86,cs),
(689,156,o),
(711,546,o),
(711,580,cs),
(711,630,o),
(654,652,o),
(620,652,cs),
(596,652,o),
(593,643,o),
(593,618,cs),
(593,527,o),
(586,322,o),
(582,280,c),
(540,319,o),
(245,631,o),
(238,639,cs),
(231,648,o),
(221,652,o),
(211,652,cs),
(179,652,o),
(85,586,o),
(85,553,cs),
(85,483,o),
(63,93,o),
(63,59,cs),
(63,9,o),
(120,-13,o),
(155,-13,cs)
);
}
);
width = 744;
}
);
metricLeft = "=H";
metricRight = "=H";
note = N;
unicode = 78;
},
{
color = 7;
glyphname = Nhookleft;
kernRight = KO_N;
lastChange = "2022-10-09 04:12:53 +0000";
layers = (
{
anchors = (
{
name = bottom;
pos = (418,0);
},
{
name = top;
pos = (452,652);
}
);
layerId = "220B7CD1-1E4F-4884-BA06-A44A5DCE8B14";
shapes = (
{
closed = 1;
nodes = (
(57,-163,o),
(123,-126,o),
(142,-35,cs),
(160,50,o),
(158,283,o),
(162,366,cs),
(167,473,o),
(176,555,o),
(176,563,c),
(206,518,o),
(560,123,o),
(676,-1,cs),
(681,-6,o),
(687,-13,o),
(691,-13,cs),
(698,-13,o),
(731,10,o),
(731,19,cs),
(731,132,o),
(765,613,o),
(765,626,cs),
(765,644,o),
(739,652,o),
(716,652,cs),
(707,652,o),
(706,651,o),
(706,642,cs),
(706,290,o),
(686,81,o),
(685,77,c),
(607,152,o),
(243,564,o),
(187,641,cs),
(183,646,o),
(176,652,o),
(172,652,cs),
(162,652,o),
(132,630,o),
(132,621,cs),
(132,580,o),
(115,286,o),
(113,244,cs),
(108,169,o),
(103,101,o),
(101,58,cs),
(92,-50,o),
(83,-81,o),
(59,-102,cs),
(43,-116,o),
(25,-124,o),
(3,-124,cs),
(-40,-124,o),
(-87,-101,o),
(-98,-101,cs),
(-103,-101,o),
(-107,-108,o),
(-107,-119,cs),
(-107,-138,o),
(-104,-145,o),
(-92,-151,cs),
(-74,-160,o),
(-48,-163,o),
(-6,-163,cs)
);
}
);
width = 854;
},
{
anchors = (
{
name = bottom;
pos = (419,0);
},
{
name = top;
pos = (453,652);
}
);
background = {
shapes = (
{
closed = 1;
nodes = (
(58,-163,o),
(124,-126,o),
(143,-35,cs),
(161,50,o),
(159,283,o),
(163,366,cs),
(168,473,o),
(177,555,o),
(177,563,c),
(207,518,o),
(561,123,o),
(677,-1,cs),
(682,-6,o),
(688,-13,o),
(692,-13,cs),
(699,-13,o),
(732,10,o),
(732,19,cs),
(732,132,o),
(766,613,o),
(766,626,cs),
(766,644,o),
(740,652,o),
(717,652,cs),
(708,652,o),
(707,651,o),
(707,642,cs),
(707,290,o),
(687,81,o),
(686,77,c),
(608,152,o),
(244,564,o),
(188,641,cs),
(184,646,o),
(177,652,o),
(173,652,cs),
(163,652,o),
(133,630,o),
(133,621,cs),
(133,580,o),
(116,286,o),
(114,244,cs),
(109,169,o),
(104,101,o),
(102,58,cs),
(93,-50,o),
(84,-81,o),
(60,-102,cs),
(44,-116,o),
(26,-124,o),
(4,-124,cs),
(-39,-124,o),
(-86,-101,o),
(-97,-101,cs),
(-102,-101,o),
(-106,-108,o),
(-106,-119,cs),
(-106,-138,o),
(-103,-145,o),
(-91,-151,cs),
(-73,-160,o),
(-47,-163,o),
(-5,-163,cs)
);
}
);
};
layerId = "63F4CE79-9D5F-46D3-B41C-385689F27F0A";
shapes = (
{
closed = 1;
nodes = (
(28,-195,o),
(89,-183,o),
(135,-134,cs),
(167,-100,o),
(181,-34,o),
(181,21,cs),
(181,112,o),
(188,317,o),
(192,361,c),
(234,319,o),
(529,8,o),
(536,0,cs),
(543,-9,o),
(553,-13,o),
(563,-13,cs),
(595,-13,o),
(689,53,o),
(689,86,cs),
(689,156,o),
(711,546,o),
(711,580,cs),
(711,630,o),
(654,652,o),
(620,652,cs),
(596,652,o),
(593,643,o),
(593,618,cs),
(593,527,o),
(586,322,o),
(582,280,c),
(540,319,o),
(245,631,o),
(238,639,cs),
(231,648,o),
(221,652,o),
(211,652,cs),
(179,652,o),
(85,586,o),
(85,553,cs),
(85,520,o),
(80,398,o),
(69,187,cs),
(66,134,o),
(63,77,o),
(63,52,cs),
(58,-49,o),
(52,-64,o),
(32,-88,cs),
(24,-97,o),
(10,-102,o),
(-12,-102,cs),
(-26,-102,o),
(-85,-96,o),
(-92,-96,cs),
(-101,-96,o),
(-110,-112,o),
(-110,-128,cs),
(-110,-154,o),
(-107,-173,o),
(-86,-182,cs),
(-64,-191,o),
(-51,-195,o),
(-22,-195,cs)
);
}
);
width = 744;
}
);
metricRight = H;
metricWidth = N;
unicode = 413;
},
{
color = 6;
glyphname = Nlongrightleg;
lastChange = "2023-02-09 03:27:40 +0000";
layers = (
{
layerId = "220B7CD1-1E4F-4884-BA06-A44A5DCE8B14";
shapes = (
{
closed = 1;
nodes = (
(644,-252,o),
(646,-249,o),
(646,-244,cs),
(646,-205,o),
(648,-90,o),
(652,-28,cs),
(659,161,o),
(688,483,o),
(688,550,cs),
(688,578,o),
(686,596,o),
(683,603,cs),
(676,618,o),
(647,643,o),
(633,643,cs),
(560,643,o),
(236,352,o),
(161,175,c),
(161,189,o),
(190,554,o),
(190,610,cs),
(190,632,o),
(168,643,o),
(141,643,cs),
(133,643,o),
(131,640,o),
(131,633,cs),
(131,473,o),
(98,25,o),
(98,20,cs),
(98,-2,o),
(124,-13,o),
(147,-13,cs),
(156,-13,o),
(160,-9,o),
(160,-3,cs),
(160,57,o),
(194,139,o),
(240,220,cs),
(328,378,o),
(587,577,o),
(609,577,cs),
(624,577,o),
(628,569,o),
(627,519,cs),
(614,234,o),
(601,92,o),
(593,-11,cs),
(587,-91,o),
(583,-146,o),
(583,-225,cs),
(583,-243,o),
(613,-252,o),
(636,-252,cs)
);
}
);
width = 777;
},
{
layerId = "63F4CE79-9D5F-46D3-B41C-385689F27F0A";
shapes = (
{
closed = 1;
nodes = (
(689,-247,o),
(694,-238,o),
(694,-213,cs),
(694,-161,o),
(695,-93,o),
(700,-22,cs),
(717,222,o),
(730,383,o),
(733,497,cs),
(733,515,o),
(732,531,o),
(730,550,cs),
(721,614,o),
(634,652,o),
(611,652,cs),
(545,652,o),
(303,423,o),
(294,342,c),
(301,418,o),
(308,554,o),
(308,576,cs),
(308,630,o),
(193,652,o),
(129,652,cs),
(97,652,o),
(88,642,o),
(88,619,cs),
(87,440,o),
(63,178,o),
(63,59,cs),
(63,9,o),
(170,-13,o),
(242,-16,cs),
(274,-17,o),
(283,-6,o),
(283,17,cs),
(283,96,o),
(286,147,o),
(310,222,cs),
(345,329,o),
(466,427,o),
(487,427,cs),
(496,427,o),
(505,422,o),
(505,375,c),
(500,285,o),
(486,-10,o),
(485,-19,cs),
(479,-104,o),
(474,-167,o),
(474,-175,cs),
(474,-225,o),
(581,-247,o),
(645,-247,cs)
);
}
);
width = 766;
}
);
metricLeft = H;
metricRight = H;
unicode = 544;
},
{
color = 7;
glyphname = Eng;
kernLeft = KO_P;
lastChange = "2022-10-09 04:12:53 +0000";
layers = (
{
background = {
shapes = (
{
closed = 1;
nodes = (
(698,644,o),
(667,652,o),
(644,652,cs),
(635,652,o),
(634,650,o),
(634,645,cs),
(633,597,o),
(628,476,o),
(621,353,c),
(174,353,l),
(184,509,o),
(197,618,o),
(197,626,cs),
(197,644,o),
(167,652,o),
(144,652,cs),
(135,652,o),
(134,650,o),
(134,645,cs),
(131,537,o),
(99,26,o),
(99,14,cs),
(99,-4,o),
(129,-13,o),
(152,-13,cs),
(160,-13,o),
(162,-10,o),
(162,-5,cs),
(162,107,o),
(165,214,o),
(172,309,c),
(250,313,o),
(328,315,o),
(405,315,cs),
(477,315,o),
(549,313,o),
(619,310,c),
(610,160,o),
(599,20,o),
(599,14,cs),
(599,-4,o),
(629,-13,o),
(652,-13,cs),
(660,-13,o),
(663,-10,o),
(663,-5,cs),
(663,317,o),
(698,612,o),
(698,626,cs)
);
}
);
};
layerId = "220B7CD1-1E4F-4884-BA06-A44A5DCE8B14";
shapes = (
{
closed = 1;
nodes = (
(507,-244,o),
(550,-225,o),
(587,-190,cs),
(624,-155,o),
(648,-99,o),
(652,-28,cs),
(659,161,o),
(688,483,o),
(688,550,cs),
(688,578,o),
(687,596,o),
(683,603,c),
(677,618,o),
(647,643,o),
(633,643,cs),
(560,643,o),
(236,352,o),
(161,175,c),
(161,189,o),
(190,554,o),
(190,610,cs),
(190,632,o),
(168,643,o),
(141,643,cs),
(133,643,o),
(131,640,o),
(131,633,cs),
(131,473,o),
(98,25,o),
(98,20,cs),
(98,-2,o),
(124,-13,o),
(147,-13,cs),
(156,-13,o),
(160,-9,o),
(160,-3,cs),
(160,57,o),
(194,139,o),
(240,220,cs),
(328,378,o),
(587,577,o),
(609,577,cs),
(624,577,o),
(628,569,o),
(627,519,cs),
(627,512,o),
(597,46,o),
(597,40,cs),
(581,-173,o),
(558,-193,o),
(477,-193,cs),
(407,-193,o),
(326,-161,o),
(293,-147,cs),
(287,-145,o),
(280,-141,o),
(278,-141,cs),
(275,-141,o),
(271,-146,o),
(271,-164,cs),
(271,-174,o),
(275,-185,o),
(281,-189,cs),
(293,-198,o),
(385,-244,o),
(474,-244,cs)
);
}
);
width = 777;
},
{
background = {
shapes = (
{
closed = 1;
nodes = (
(884,728,o),
(927,747,o),
(964,782,cs),
(1001,817,o),
(1025,873,o),
(1029,944,cs),
(1036,1133,o),
(1065,1455,o),
(1065,1522,cs),
(1065,1550,o),
(1064,1568,o),
(1060,1575,c),
(1054,1590,o),
(1024,1615,o),
(1010,1615,cs),
(937,1615,o),
(613,1324,o),
(538,1147,c),
(538,1161,o),
(567,1526,o),
(567,1582,cs),
(567,1604,o),
(545,1615,o),
(518,1615,cs),
(510,1615,o),
(508,1612,o),
(508,1605,cs),
(508,1445,o),
(475,997,o),
(475,992,cs),
(475,970,o),
(501,959,o),
(524,959,cs),
(533,959,o),
(537,963,o),
(537,969,cs),
(537,1029,o),
(571,1111,o),
(617,1192,cs),
(705,1350,o),
(964,1549,o),
(986,1549,cs),
(1001,1549,o),
(1005,1541,o),
(1004,1491,cs),
(1004,1484,o),
(974,1018,o),
(974,1012,cs),
(958,799,o),
(935,779,o),
(854,779,cs),
(784,779,o),
(703,811,o),
(670,825,cs),
(664,827,o),
(657,831,o),
(655,831,cs),
(652,831,o),
(648,826,o),
(648,808,cs),
(648,798,o),
(652,787,o),
(658,783,cs),
(670,774,o),
(762,728,o),
(851,728,cs)
);
},
{
closed = 1;
nodes = (
(278,-13,o),
(283,-4,o),
(283,21,cs),
(283,85,o),
(286,171,o),
(290,256,c),
(341,262,o),
(390,265,o),
(437,265,c),
(477,265,o),
(516,263,o),
(551,259,c),
(545,152,o),
(540,67,o),
(540,59,cs),
(540,9,o),
(647,-13,o),
(711,-13,cs),
(755,-13,o),
(760,-4,o),
(760,21,cs),
(760,199,o),
(784,562,o),
(784,580,cs),
(784,630,o),
(677,652,o),
(613,652,cs),
(569,652,o),
(564,643,o),
(564,618,cs),
(564,553,o),
(561,465,o),
(557,379,c),
(296,379,l),
(302,487,o),
(307,572,o),
(307,580,cs),
(307,630,o),
(200,652,o),
(136,652,cs),
(92,652,o),
(87,643,o),
(87,618,cs),
(87,440,o),
(63,77,o),
(63,59,cs),
(63,9,o),
(170,-13,o),
(234,-13,cs)
);
}
);
};
layerId = "63F4CE79-9D5F-46D3-B41C-385689F27F0A";
shapes = (
{
closed = 1;
nodes = (
(509,-244,o),
(573,-239,o),
(626,-192,cs),
(678,-146,o),
(695,-82,o),
(700,-22,cs),
(718,222,o),
(730,383,o),
(733,497,cs),
(733,515,o),
(732,531,o),
(730,550,cs),
(721,614,o),
(634,652,o),
(611,652,cs),
(545,652,o),
(303,423,o),
(294,342,c),
(301,418,o),
(308,554,o),
(308,576,cs),
(308,630,o),
(193,652,o),
(129,652,cs),
(97,652,o),
(88,642,o),
(88,619,cs),
(87,440,o),
(63,178,o),
(63,59,cs),
(63,9,o),
(170,-13,o),
(242,-16,cs),
(274,-17,o),
(283,-6,o),
(283,17,cs),
(283,96,o),
(286,147,o),
(310,222,cs),
(345,329,o),
(466,427,o),
(487,427,cs),
(497,427,o),
(507,421,o),
(504,355,cs),
(500,261,o),
(489,125,o),
(475,-24,cs),
(466,-118,o),
(438,-149,o),
(405,-149,cs),
(370,-149,o),
(360,-148,o),
(350,-147,cs),
(342,-146,o),
(338,-145,o),
(335,-145,cs),
(325,-145,o),
(317,-162,o),
(317,-178,cs),
(317,-201,o),
(321,-218,o),
(336,-226,cs),
(351,-234,o),
(413,-244,o),
(460,-244,cs)
);
}
);
width = 766;
}
);
metricLeft = H;
metricRight = H;
unicode = 330;
},
{
color = 1;
glyphname = O;
kernLeft = KO_O;
kernRight = KO_O;
lastChange = "2023-02-16 16:27:53 +0000";
layers = (
{
anchors = (
{
name = bottom;
pos = (364,0);
},
{
name = center;
pos = (381,326);
},
{
name = ogonek;
pos = (432,10);
},
{
name = top;
pos = (400,652);
},
{
name = topleft;
pos = (44,652);
},
{
name = topright;
pos = (561,602);
}
);
layerId = "220B7CD1-1E4F-4884-BA06-A44A5DCE8B14";
shapes = (
{
closed = 1;
nodes = (
(590,-13,o),
(689,134,o),
(689,349,cs),
(689,528,o),
(600,652,o),
(382,652,cs),
(166,652,o),
(67,506,o),
(67,291,cs),
(67,112,o),
(156,-13,o),
(374,-13,cs)
);
},
{
closed = 1;
nodes = (
(200,24,o),
(128,135,o),
(128,294,cs),
(128,485,o),
(208,615,o),
(381,615,cs),
(556,615,o),
(628,505,o),
(628,346,cs),
(628,154,o),
(548,24,o),
(375,24,cs)
);
}
);
width = 749;
},
{
anchors = (
{
name = bottom;
pos = (375,0);
},
{
name = center;
pos = (392,326);
},
{
name = ogonek;
pos = (443,10);
},
{
name = top;
pos = (411,652);
},
{
name = topleft;
pos = (55,652);
},
{
name = topright;
pos = (593,608);
}
);
background = {
shapes = (
{
closed = 1;
nodes = (
(582,-13,o),
(738,45,o),
(738,364,c),
(738,365,l),
(738,635,o),
(577,652,o),
(421,652,c),
(206,652,o),
(50,594,o),
(50,275,c),
(50,5,o),
(211,-13,o),
(368,-13,c)
);
},
{
closed = 1;
nodes = (
(330,68,o),
(278,125,o),
(278,279,c),
(278,401,o),
(295,580,o),
(373,580,c),
(458,580,o),
(510,522,o),
(510,370,c),
(510,369,l),
(510,246,o),
(494,68,o),
(415,68,c)
);
}
);
};
layerId = "63F4CE79-9D5F-46D3-B41C-385689F27F0A";
shapes = (
{
closed = 1;
nodes = (
(582,-13,o),
(738,45,o),
(738,365,cs),
(738,635,o),
(577,652,o),
(421,652,cs),
(206,652,o),
(50,594,o),
(50,275,cs),
(50,5,o),
(211,-13,o),
(368,-13,cs)
);
},
{
closed = 1;
nodes = (
(330,68,o),
(278,125,o),
(278,279,cs),
(278,401,o),
(295,580,o),
(373,580,cs),
(458,580,o),
(510,522,o),
(510,370,cs),
(510,246,o),
(494,68,o),
(415,68,cs)
);
}
);
width = 763;
}
);
note = O;
unicode = 79;
},
{
color = 7;
glyphname = Oopen;
kernRight = KO_D;
lastChange = "2023-02-08 19:16:13 +0000";
layers = (
{
anchors = (
{
name = bottom;
pos = (229,0);
},
{
name = top;
pos = (268,652);
}
);
layerId = "220B7CD1-1E4F-4884-BA06-A44A5DCE8B14";
shapes = (
{
closed = 1;
nodes = (
(493,0,o),
(588,176,o),
(594,340,cs),
(602,594,o),
(425,665,o),
(268,665,cs),
(173,665,o),
(87,642,o),
(61,626,cs),
(51,620,o),
(48,602,o),
(46,584,cs),
(46,576,o),
(46,570,o),
(49,570,cs),
(52,570,o),
(59,573,o),
(69,578,cs),
(102,595,o),
(179,620,o),
(276,620,cs),
(420,620,o),
(539,531,o),
(533,336,cs),
(525,139,o),
(401,39,o),
(248,39,cs),
(119,39,o),
(59,97,o),
(41,97,cs),
(35,97,o),
(28,71,o),
(28,56,cs),
(28,49,o),
(26,42,o),
(47,32,cs),
(86,12,o),
(151,0,o),
(258,0,cs)
);
}
);
width = 654;
},
{
anchors = (
{
name = bottom;
pos = (279,0);
},
{
name = top;
pos = (318,652);
}
);
background = {
shapes = (
{
closed = 1;
nodes = (
(543,0,o),
(638,176,o),
(644,340,cs),
(652,594,o),
(475,665,o),
(318,665,cs),
(223,665,o),
(137,642,o),
(111,626,cs),
(101,620,o),
(98,602,o),
(96,584,cs),
(96,576,o),
(96,570,o),
(99,570,cs),
(102,570,o),
(109,573,o),
(119,578,cs),
(152,595,o),
(229,620,o),
(326,620,cs),
(470,620,o),
(589,531,o),
(583,336,cs),
(575,139,o),
(451,39,o),
(298,39,cs),
(169,39,o),
(109,97,o),
(91,97,cs),
(85,97,o),
(78,71,o),
(78,56,cs),
(78,49,o),
(76,42,o),
(97,32,cs),
(136,12,o),
(201,0,o),
(308,0,cs)
);
}
);
};
layerId = "63F4CE79-9D5F-46D3-B41C-385689F27F0A";
shapes = (
{
closed = 1;
nodes = (
(488,0,o),
(644,58,o),
(644,377,c),
(644,589,o),
(520,665,o),
(287,665,cs),
(213,665,o),
(174,662,o),
(115,645,cs),
(86,637,o),
(67,606,o),
(67,535,cs),
(67,521,o),
(69,515,o),
(78,515,cs),
(83,515,o),
(90,517,o),
(100,520,cs),
(157,539,o),
(197,542,o),
(250,542,cs),
(367,542,o),
(416,487,o),
(416,339,c),
(416,160,o),
(341,126,o),
(266,126,cs),
(157,126,o),
(103,166,o),
(86,166,c),
(53,166,o),
(50,97,o),
(50,81,c),
(50,57,o),
(54,39,o),
(77,31,c),
(140,9,o),
(206,0,o),
(273,0,c)
);
}
);
width = 669;
}
);
metricRight = O;
unicode = 390;
},
{
color = 1;
glyphname = Oslash;
kernLeft = KO_Oslash;
kernRight = KO_Oslash;
lastChange = "2023-02-01 05:45:33 +0000";
layers = (
{
anchors = (
{
name = bottom;
pos = (360,0);
},
{
name = top;
pos = (394,652);
}
);
layerId = "220B7CD1-1E4F-4884-BA06-A44A5DCE8B14";
shapes = (
{
closed = 1;
nodes = (
(88,-101,o),
(91,-97,o),
(96,-90,cs),
(185,31,l),
(232,3,o),
(293,-13,o),
(370,-13,cs),
(586,-13,o),
(685,134,o),
(685,349,cs),
(685,442,o),
(661,520,o),
(607,573,c),
(692,682,ls),
(699,690,o),
(701,695,o),
(701,700,cs),
(701,717,o),
(679,733,o),
(673,733,cs),
(669,733,o),
(666,729,o),
(661,722,cs),
(572,602,l),
(524,635,o),
(460,652,o),
(378,652,cs),
(162,652,o),
(63,506,o),
(63,291,cs),
(63,193,o),
(89,111,o),
(150,58,c),
(65,-50,ls),
(58,-58,o),
(56,-63,o),
(56,-68,cs),
(56,-85,o),
(78,-101,o),
(84,-101,cs)
);
},
{
closed = 1;
nodes = (
(160,124,o),
(124,182,o),
(124,296,cs),
(124,485,o),
(209,617,o),
(374,617,cs),
(450,617,o),
(505,596,o),
(539,566,c),
(479,482,o),
(272,213,o),
(186,95,c)
);
},
{
closed = 1;
nodes = (
(309,24,o),
(257,38,o),
(218,66,c),
(281,152,o),
(492,428,o),
(571,534,c),
(609,488,o),
(624,414,o),
(624,346,cs),
(624,154,o),
(544,24,o),
(371,24,cs)
);
}
);
width = 748;
},
{
anchors = (
{
name = bottom;
pos = (360,0);
},
{
name = top;
pos = (394,652);
}
);
layerId = "63F4CE79-9D5F-46D3-B41C-385689F27F0A";
shapes = (
{
closed = 1;
nodes = (
(75,-95,o),
(81,-89,o),
(88,-80,cs),
(166,14,l),
(232,-11,o),
(293,-13,o),
(352,-13,cs),
(567,-13,o),
(723,45,o),
(723,364,cs),
(723,492,o),
(688,555,o),
(649,589,c),
(719,666,ls),
(727,674,o),
(730,680,o),
(730,685,cs),
(730,708,o),
(697,734,o),
(687,734,cs),
(683,734,o),
(677,728,o),
(670,719,cs),
(592,625,l),
(542,647,o),
(478,652,o),
(405,652,cs),
(191,652,o),
(35,594,o),
(35,274,cs),
(35,155,o),
(66,86,o),
(109,50,c),
(39,-27,ls),
(31,-35,o),
(28,-41,o),
(28,-46,cs),
(28,-69,o),
(61,-95,o),
(71,-95,cs)
);
},
{
closed = 1;
nodes = (
(264,236,o),
(263,258,o),
(263,278,cs),
(263,402,o),
(280,581,o),
(357,581,cs),
(415,582,o),
(456,559,o),
(478,497,c),
(418,416,o),
(336,302,o),
(266,212,c)
);
},
{
closed = 1;
nodes = (
(345,69,o),
(307,86,o),
(285,132,c),
(345,211,o),
(424,320,o),
(493,412,c),
(494,390,o),
(494,372,o),
(494,354,cs),
(494,249,o),
(478,69,o),
(400,69,cs)
);
}
);
width = 748;
}
);
note = Oslash;
unicode = 216;
},
{
color = 1;
glyphname = OE;
kernRight = KO_E;
lastChange = "2022-10-14 14:51:03 +0000";
layers = (
{
layerId = "220B7CD1-1E4F-4884-BA06-A44A5DCE8B14";
shapes = (
{
closed = 1;
nodes = (
(858,0,ls),
(865,0,o),
(875,26,o),
(875,44,cs),
(875,52,o),
(875,58,o),
(873,58,cs),
(870,58,o),
(791,37,o),
(650,37,cs),
(573,37,o),
(562,43,o),
(562,82,cs),
(562,149,o),
(563,228,o),
(568,312,c),
(608,312,ls),
(749,312,o),
(797,304,o),
(801,304,cs),
(805,304,o),
(811,326,o),
(811,341,cs),
(811,349,o),
(809,355,o),
(806,355,cs),
(571,355,l),
(577,458,o),
(586,552,o),
(592,596,c),
(625,596,ls),
(766,596,o),
(814,587,o),
(817,587,cs),
(821,587,o),
(828,610,o),
(828,625,cs),
(828,633,o),
(825,639,o),
(823,639,cs),
(398,639,ls),
(156,639,o),
(67,506,o),
(67,335,cs),
(67,122,o),
(188,0,o),
(406,0,cs)
);
},
{
closed = 1;
nodes = (
(332,37,o),
(269,55,o),
(205,114,cs),
(151,164,o),
(128,237,o),
(128,319,cs),
(128,511,o),
(216,596,o),
(388,596,cs),
(531,596,l),
(522,407,o),
(508,140,o),
(499,37,c),
(438,37,ls)
);
}
);
width = 929;
},
{
layerId = "63F4CE79-9D5F-46D3-B41C-385689F27F0A";
shapes = (
{
closed = 1;
nodes = (
(919,0,ls),
(948,0,o),
(954,67,o),
(954,86,cs),
(954,112,o),
(954,119,o),
(947,119,cs),
(937,119,o),
(865,106,o),
(789,106,cs),
(712,106,o),
(701,115,o),
(701,146,cs),
(701,190,o),
(706,264,o),
(706,277,c),
(728,277,ls),
(807,277,o),
(881,272,o),
(890,272,cs),
(900,272,o),
(906,313,o),
(906,342,cs),
(906,367,o),
(901,374,o),
(885,374,cs),
(709,374,l),
(709,418,o),
(716,524,o),
(721,541,c),
(747,541,ls),
(809,541,o),
(892,537,o),
(901,537,cs),
(911,537,o),
(917,577,o),
(917,606,cs),
(917,631,o),
(912,639,o),
(896,639,cs),
(365,639,ls),
(180,639,o),
(50,568,o),
(50,302,cs),
(50,80,o),
(176,0,o),
(366,0,cs)
);
},
{
closed = 1;
nodes = (
(372,92,o),
(340,99,o),
(317,120,cs),
(289,146,o),
(276,194,o),
(276,281,cs),
(276,468,o),
(331,547,o),
(436,547,cs),
(503,547,l),
(499,398,o),
(487,206,o),
(480,92,c),
(414,92,ls)
);
}
);
width = 966;
}
);
metricLeft = O;
metricRight = E;
note = OE;
unicode = 338;
},
{
color = 1;
glyphname = P;
kernLeft = KO_P;
kernRight = KO_P;
lastChange = "2023-02-09 04:17:22 +0000";
layers = (
{
anchors = (
{
name = bottom;
pos = (257,0);
},
{
name = top;
pos = (291,652);
}
);
layerId = "220B7CD1-1E4F-4884-BA06-A44A5DCE8B14";
shapes = (
{
closed = 1;
nodes = (
(159,-13,o),
(161,-10,o),
(161,-5,cs),
(161,86,o),
(163,174,o),
(167,251,c),
(173,245,o),
(186,244,o),
(222,244,cs),
(386,244,o),
(494,345,o),
(494,470,cs),
(494,575,o),
(420,639,o),
(268,639,cs),
(133,639,l),
(129,523,o),
(98,26,o),
(98,14,cs),
(98,-4,o),
(128,-13,o),
(151,-13,cs)
);
},
{
closed = 1;
nodes = (
(177,432,o),
(190,548,o),
(193,596,c),
(210,598,o),
(226,602,o),
(253,602,cs),
(394,602,o),
(434,539,o),
(434,457,cs),
(434,401,o),
(412,360,o),
(380,331,cs),
(313,270,o),
(213,269,o),
(168,277,c)
);
}
);
width = 532;
},
{
anchors = (
{
name = bottom;
pos = (265,0);
},
{
name = top;
pos = (299,652);
}
);
layerId = "63F4CE79-9D5F-46D3-B41C-385689F27F0A";
shapes = (
{
closed = 1;
nodes = (
(278,-13,o),
(282,-4,o),
(282,21,cs),
(282,79,o),
(285,154,o),
(288,231,c),
(293,223,o),
(319,204,o),
(339,204,cs),
(539,204,o),
(670,319,o),
(670,459,cs),
(670,571,o),
(601,639,o),
(456,639,cs),
(87,639,l),
(87,426,o),
(63,77,o),
(63,59,cs),
(63,9,o),
(170,-13,o),
(234,-13,cs)
);
},
{
closed = 1;
nodes = (
(289,287,o),
(304,541,o),
(305,553,c),
(314,553,o),
(323,553,o),
(341,553,cs),
(410,553,o),
(443,498,o),
(443,437,cs),
(443,390,o),
(428,343,o),
(394,311,cs),
(358,278,o),
(320,272,o),
(289,272,c)
);
}
);
width = 665;
}
);
metricLeft = "=H";
note = P;
unicode = 80;
},
{
color = 6;
glyphname = Phook;
lastChange = "2023-02-10 03:24:51 +0000";
layers = (
{
layerId = "220B7CD1-1E4F-4884-BA06-A44A5DCE8B14";
shapes = (
{
closed = 1;
nodes = (
(266,-13,o),
(268,-10,o),
(268,-5,cs),
(268,86,o),
(270,174,o),
(274,251,c),
(280,245,o),
(293,244,o),
(329,244,cs),
(493,244,o),
(601,345,o),
(601,470,cs),
(601,575,o),
(527,639,o),
(375,639,cs),
(240,639,ls),
(184,639,o),
(128,618,o),
(87,574,cs),
(54,539,o),
(34,501,o),
(34,460,cs),
(34,418,o),
(56,367,o),
(73,342,cs),
(77,337,o),
(81,336,o),
(87,336,cs),
(99,336,o),
(112,340,o),
(112,346,cs),
(112,351,o),
(106,364,o),
(105,367,cs),
(103,373,o),
(86,422,o),
(86,484,cs),
(86,546,o),
(168,595,o),
(238,596,c),
(230,433,o),
(205,25,o),
(205,14,cs),
(205,-4,o),
(235,-13,o),
(258,-13,cs)
);
},
{
closed = 1;
nodes = (
(284,432,o),
(297,548,o),
(300,596,c),
(317,598,o),
(333,602,o),
(360,602,cs),
(501,602,o),
(541,539,o),
(541,457,cs),
(541,401,o),
(519,360,o),
(487,331,cs),
(420,270,o),
(320,269,o),
(275,277,c)
);
}
);
width = 639;
},
{
layerId = "63F4CE79-9D5F-46D3-B41C-385689F27F0A";
shapes = (
{
closed = 1;
nodes = (
(428,-13,o),
(432,-4,o),
(432,21,cs),
(432,79,o),
(435,154,o),
(438,231,c),
(443,223,o),
(469,204,o),
(489,204,cs),
(689,204,o),
(820,319,o),
(820,459,cs),
(820,571,o),
(751,639,o),
(606,639,cs),
(237,639,ls),
(182,639,o),
(123,628,o),
(80,580,cs),
(33,527,o),
(28,463,o),
(28,414,cs),
(28,367,o),
(38,326,o),
(46,311,cs),
(54,296,o),
(71,292,o),
(94,292,cs),
(110,292,o),
(127,300,o),
(127,310,cs),
(127,313,o),
(126,317,o),
(125,325,cs),
(124,335,o),
(123,345,o),
(123,359,cs),
(123,495,o),
(139,523,o),
(235,526,c),
(230,321,o),
(213,74,o),
(213,59,cs),
(213,9,o),
(320,-13,o),
(384,-13,cs)
);
},
{
closed = 1;
nodes = (
(439,287,o),
(454,541,o),
(455,553,c),
(467,553,o),
(479,553,o),
(491,553,cs),
(560,553,o),
(593,498,o),
(593,437,cs),
(593,390,o),
(578,343,o),
(544,311,cs),
(508,278,o),
(470,272,o),
(439,272,c)
);
}
);
width = 815;
}
);
metricLeft = Dhook;
metricRight = P;
unicode = 420;
},
{
color = 1;
glyphname = Thorn;
kernLeft = KO_H;
kernRight = KO_Thorn;
lastChange = "2022-10-09 03:37:15 +0000";
layers = (
{
layerId = "220B7CD1-1E4F-4884-BA06-A44A5DCE8B14";
shapes = (
{
closed = 1;
nodes = (
(159,-13,o),
(161,-10,o),
(161,-5,cs),
(161,55,o),
(164,117,o),
(166,156,c),
(172,150,o),
(185,149,o),
(216,149,cs),
(381,149,o),
(489,243,o),
(489,356,cs),
(489,453,o),
(415,511,o),
(263,511,cs),
(186,511,l),
(192,584,o),
(196,622,o),
(196,626,cs),
(196,644,o),
(166,652,o),
(143,652,cs),
(134,652,o),
(133,650,o),
(133,645,cs),
(130,537,o),
(98,26,o),
(98,14,cs),
(98,-4,o),
(128,-13,o),
(151,-13,cs)
);
},
{
closed = 1;
nodes = (
(172,322,o),
(178,426,o),
(182,470,c),
(198,471,o),
(221,474,o),
(249,474,cs),
(390,474,o),
(432,418,o),
(432,345,cs),
(432,300,o),
(416,268,o),
(390,242,cs),
(322,174,o),
(189,174,o),
(166,183,c)
);
}
);
width = 532;
},
{
layerId = "63F4CE79-9D5F-46D3-B41C-385689F27F0A";
shapes = (
{
closed = 1;
nodes = (
(278,-13,o),
(283,-4,o),
(283,21,cs),
(283,48,o),
(283,80,o),
(284,115,c),
(289,107,o),
(315,88,o),
(335,88,cs),
(521,88,o),
(643,203,o),
(643,343,cs),
(643,455,o),
(579,523,o),
(444,523,cs),
(304,523,l),
(306,555,o),
(307,576,o),
(307,580,cs),
(307,630,o),
(200,652,o),
(136,652,cs),
(92,652,o),
(87,643,o),
(87,618,cs),
(87,440,o),
(63,77,o),
(63,59,cs),
(63,9,o),
(170,-13,o),
(234,-13,cs)
);
},
{
closed = 1;
nodes = (
(286,171,o),
(298,425,o),
(299,437,c),
(308,437,o),
(317,437,o),
(331,437,cs),
(389,437,o),
(416,382,o),
(416,321,cs),
(416,272,o),
(402,221,o),
(369,189,cs),
(349,169,o),
(322,156,o),
(286,156,c)
);
}
);
width = 650;
}
);
metricLeft = H;
note = Thorn;
unicode = 222;
},
{
color = 6;
glyphname = Pstroke;
lastChange = "2023-02-09 03:36:19 +0000";
layers = (
{
layerId = "220B7CD1-1E4F-4884-BA06-A44A5DCE8B14";
shapes = (
{
closed = 1;
nodes = (
(127,-13,o),
(129,-10,o),
(129,-5,cs),
(129,86,o),
(131,174,o),
(135,251,cs),
(141,245,o),
(154,244,o),
(190,244,cs),
(354,244,o),
(462,345,o),
(462,470,cs),
(462,575,o),
(388,639,o),
(236,639,cs),
(101,639,l),
(97,523,o),
(66,26,o),
(66,14,c),
(66,-4,o),
(96,-13,o),
(119,-13,cs)
);
},
{
closed = 1;
nodes = (
(145,432,o),
(158,548,o),
(161,596,cs),
(178,598,o),
(194,602,o),
(221,602,cs),
(362,602,o),
(402,539,o),
(402,457,cs),
(402,401,o),
(380,360,o),
(348,331,cs),
(281,270,o),
(181,269,o),
(136,277,cs)
);
},
{
closed = 1;
nodes = (
(86,434,o),
(174,435,o),
(194,435,cs),
(220,435,o),
(231,435,o),
(264,434,cs),
(277,434,o),
(278,453,o),
(278,471,cs),
(278,477,o),
(275,481,o),
(270,481,cs),
(56,481,ls),
(47,481,o),
(41,461,o),
(41,443,cs),
(41,437,o),
(43,433,o),
(48,433,cs)
);
}
);
width = 600;
},
{
layerId = "63F4CE79-9D5F-46D3-B41C-385689F27F0A";
shapes = (
{
closed = 1;
nodes = (
(264,-13,o),
(268,-4,o),
(268,21,cs),
(268,79,o),
(271,136,o),
(274,213,c),
(279,205,o),
(305,186,o),
(325,186,cs),
(525,186,o),
(656,301,o),
(656,441,cs),
(656,553,o),
(587,639,o),
(442,639,cs),
(73,639,l),
(73,426,o),
(49,77,o),
(49,59,c),
(49,9,o),
(156,-13,o),
(220,-13,cs)
);
},
{
closed = 1;
nodes = (
(275,269,o),
(290,541,o),
(291,553,c),
(300,553,o),
(309,553,o),
(327,553,cs),
(396,553,o),
(429,480,o),
(429,419,cs),
(429,372,o),
(414,325,o),
(380,293,cs),
(344,260,o),
(306,254,o),
(275,254,c)
);
},
{
closed = 1;
nodes = (
(75,348,o),
(113,351,o),
(205,351,cs),
(242,351,o),
(325,348,o),
(356,348,c),
(371,348,o),
(382,379,o),
(382,430,c),
(382,463,o),
(379,466,o),
(369,466,c),
(41,466,l),
(26,466,o),
(15,435,o),
(15,386,c),
(15,352,o),
(18,348,o),
(28,348,c)
);
}
);
width = 665;
}
);
unicode = 11363;
},
{
color = 1;
glyphname = Q;
kernLeft = KO_Q;
kernRight = KO_Q;
lastChange = "2023-02-09 04:17:22 +0000";
layers = (
{
layerId = "220B7CD1-1E4F-4884-BA06-A44A5DCE8B14";
shapes = (
{
closed = 1;
nodes = (
(731,-85,o),
(743,-57,o),
(743,-42,cs),
(743,-39,o),
(742,-35,o),
(735,-35,cs),
(658,-35,o),
(556,-16,o),
(457,-3,c),
(601,30,o),
(689,166,o),
(689,349,cs),
(689,528,o),
(600,652,o),
(382,652,cs),
(166,652,o),
(67,506,o),
(67,291,cs),
(67,139,o),
(132,31,o),
(284,-4,cs),
(396,-30,o),
(578,-69,o),
(660,-80,cs),
(686,-83,o),
(700,-85,o),
(709,-85,cs)
);
},
{
closed = 1;
nodes = (
(200,24,o),
(128,135,o),
(128,294,cs),
(128,485,o),
(208,615,o),
(381,615,cs),
(556,615,o),
(628,505,o),
(628,346,cs),
(628,154,o),
(548,24,o),
(375,24,cs)
);
}
);
width = 749;
},
{
layerId = "63F4CE79-9D5F-46D3-B41C-385689F27F0A";
shapes = (
{
closed = 1;
nodes = (
(683,-152,o),
(759,-67,o),
(759,-14,cs),
(759,-4,o),
(756,-2,o),
(748,0,cs),
(706,8,o),
(628,35,o),
(596,53,c),
(671,94,o),
(738,195,o),
(738,365,cs),
(738,635,o),
(577,652,o),
(421,652,cs),
(206,652,o),
(50,594,o),
(50,275,cs),
(50,107,o),
(125,33,o),
(257,0,cs),
(291,-8,o),
(510,-121,o),
(568,-140,cs),
(587,-146,o),
(600,-152,o),
(619,-152,cs)
);
},
{
closed = 1;
nodes = (
(330,50,o),
(278,109,o),
(278,269,cs),
(278,395,o),
(295,580,o),
(373,580,cs),
(458,580,o),
(510,520,o),
(510,363,cs),
(510,234,o),
(494,50,o),
(415,50,cs)
);
}
);
width = 763;
}
);
metricLeft = "=O";
metricWidth = O;
note = Q;
unicode = 81;
},
{
color = 1;
glyphname = R;
kernLeft = KO_R;
kernRight = KO_R;
lastChange = "2023-02-09 04:17:22 +0000";
layers = (
{
anchors = (
{
name = bottom;
pos = (278,0);
},
{
name = top;
pos = (312,652);
}
);
layerId = "220B7CD1-1E4F-4884-BA06-A44A5DCE8B14";
shapes = (
{
closed = 1;
nodes = (
(159,-13,o),
(161,-10,o),
(161,-5,cs),
(161,112,o),
(164,218,o),
(170,307,c),
(177,298,o),
(196,296,o),
(204,293,c),
(254,253,o),
(385,125,o),
(492,8,cs),
(503,-4,o),
(513,-13,o),
(523,-13,cs),
(540,-13,o),
(566,7,o),
(566,14,cs),
(566,17,o),
(565,21,o),
(558,27,cs),
(542,40,o),
(321,262,o),
(278,306,c),
(404,314,o),
(483,407,o),
(483,491,cs),
(483,566,o),
(424,639,o),
(282,639,cs),
(136,639,l),
(130,529,o),
(98,26,o),
(98,14,cs),
(98,-4,o),
(128,-13,o),
(151,-13,cs)
);
},
{
closed = 1;
nodes = (
(180,485,o),
(191,559,o),
(195,597,c),
(211,600,o),
(226,602,o),
(251,602,cs),
(384,602,o),
(423,554,o),
(423,480,cs),
(423,440,o),
(407,411,o),
(383,388,cs),
(329,337,o),
(235,324,o),
(172,331,c)
);
}
);
width = 566;
},
{
anchors = (
{
name = bottom;
pos = (346,0);
},
{
name = top;
pos = (380,652);
}
);
layerId = "63F4CE79-9D5F-46D3-B41C-385689F27F0A";
shapes = (
{
closed = 1;
nodes = (
(278,-13,o),
(283,-4,o),
(283,21,c),
(283,88,o),
(287,170,o),
(291,261,c),
(301,250,o),
(327,239,o),
(336,239,c),
(395,125,o),
(449,24,o),
(461,7,c),
(473,-10,o),
(485,-13,o),
(510,-13,c),
(562,-13,o),
(678,37,o),
(678,66,c),
(678,75,o),
(673,80,o),
(659,104,c),
(629,156,o),
(564,273,o),
(550,298,c),
(611,327,o),
(671,394,o),
(671,478,c),
(671,597,o),
(600,639,o),
(456,639,c),
(87,639,l),
(87,426,o),
(63,77,o),
(63,59,c),
(63,9,o),
(170,-13,o),
(234,-13,c)
);
},
{
closed = 1;
nodes = (
(293,320,o),
(304,523,o),
(306,553,c),
(318,553,o),
(329,553,o),
(341,553,c),
(409,553,o),
(444,505,o),
(444,451,c),
(444,411,o),
(431,373,o),
(402,344,c),
(365,307,o),
(315,304,o),
(292,304,c)
);
}
);
width = 693;
}
);
metricLeft = "=H";
note = R;
unicode = 82;
},
{
color = 1;
glyphname = Rstroke;
lastChange = "2023-01-31 08:03:45 +0000";
layers = (
{
anchors = (
{
name = bottom;
pos = (276,0);
},
{
name = top;
pos = (310,652);
}
);
layerId = "220B7CD1-1E4F-4884-BA06-A44A5DCE8B14";
shapes = (
{
closed = 1;
nodes = (
(157,-13,o),
(159,-10,o),
(159,-5,cs),
(159,112,o),
(162,218,o),
(168,307,c),
(175,298,o),
(194,296,o),
(202,293,c),
(252,253,o),
(383,125,o),
(490,8,cs),
(501,-4,o),
(511,-13,o),
(521,-13,cs),
(538,-13,o),
(564,7,o),
(564,14,cs),
(564,17,o),
(563,21,o),
(556,27,cs),
(540,40,o),
(319,262,o),
(276,306,c),
(402,314,o),
(481,407,o),
(481,491,cs),
(481,566,o),
(422,639,o),
(280,639,cs),
(134,639,l),
(128,529,o),
(96,26,o),
(96,14,cs),
(96,-4,o),
(126,-13,o),
(149,-13,cs)
);
},
{
closed = 1;
nodes = (
(178,485,o),
(189,559,o),
(193,597,c),
(209,600,o),
(224,602,o),
(249,602,cs),
(382,602,o),
(421,554,o),
(421,480,cs),
(421,440,o),
(405,411,o),
(381,388,cs),
(327,337,o),
(233,324,o),
(170,331,c)
);
},
{
closed = 1;
nodes = (
(23,293,o),
(140,294,o),
(145,294,cs),
(154,294,o),
(159,313,o),
(159,331,cs),
(159,337,o),
(156,341,o),
(151,341,c),
(28,341,l),
(19,341,o),
(13,321,o),
(13,303,cs),
(13,297,o),
(15,293,o),
(20,293,cs)
);
}
);
width = 580;
},
{
anchors = (
{
name = bottom;
pos = (336,0);
},
{
name = top;
pos = (370,652);
}
);
layerId = "63F4CE79-9D5F-46D3-B41C-385689F27F0A";
shapes = (
{
closed = 1;
nodes = (
(268,-13,o),
(273,-4,o),
(273,21,c),
(273,88,o),
(277,170,o),
(281,261,c),
(291,250,o),
(317,239,o),
(326,239,c),
(385,125,o),
(439,24,o),
(451,7,c),
(463,-10,o),
(475,-13,o),
(500,-13,c),
(552,-13,o),
(668,37,o),
(668,66,c),
(668,75,o),
(663,80,o),
(649,104,c),
(619,156,o),
(554,273,o),
(540,298,c),
(601,327,o),
(661,394,o),
(661,478,c),
(661,597,o),
(590,639,o),
(446,639,c),
(77,639,l),
(77,426,o),
(53,77,o),
(53,59,c),
(53,9,o),
(160,-13,o),
(224,-13,c)
);
},
{
closed = 1;
nodes = (
(283,320,o),
(294,523,o),
(296,553,c),
(308,553,o),
(319,553,o),
(331,553,c),
(399,553,o),
(434,505,o),
(434,451,c),
(434,411,o),
(421,373,o),
(392,344,c),
(355,307,o),
(305,304,o),
(282,304,c)
);
},
{
closed = 1;
nodes = (
(19,294,o),
(206,295,o),
(211,295,cs),
(220,295,o),
(225,314,o),
(225,372,cs),
(225,378,o),
(222,382,o),
(217,382,c),
(24,382,l),
(15,382,o),
(9,322,o),
(9,304,cs),
(9,298,o),
(11,294,o),
(16,294,cs)
);
}
);
width = 705;
}
);
unicode = (588,589);
},
{
color = 6;
glyphname = Rtail;
kernRight = KO_R;
lastChange = "2023-02-10 03:43:07 +0000";
layers = (
{
layerId = "220B7CD1-1E4F-4884-BA06-A44A5DCE8B14";
shapes = (
{
closed = 1;
nodes = (
(278,-163,o),
(304,-160,o),
(322,-151,cs),
(334,-145,o),
(337,-138,o),
(337,-119,cs),
(337,-108,o),
(333,-101,o),
(328,-101,cs),
(317,-101,o),
(270,-124,o),
(227,-124,cs),
(195,-124,o),
(182,-107,o),
(171,-92,cs),
(162,-79,o),
(153,-50,o),
(156,35,cs),
(160,136,o),
(165,228,o),
(170,307,c),
(177,298,o),
(196,296,o),
(204,293,c),
(254,253,o),
(385,125,o),
(492,8,cs),
(503,-4,o),
(513,-13,o),
(523,-13,cs),
(540,-13,o),
(566,7,o),
(566,14,cs),
(566,17,o),
(565,21,o),
(558,27,cs),
(542,40,o),
(321,262,o),
(278,306,c),
(404,314,o),
(483,407,o),
(483,491,cs),
(483,566,o),
(424,639,o),
(282,639,cs),
(136,639,l),
(130,529,o),
(98,26,o),
(98,14,cs),
(100,-29,o),
(92,-78,o),
(120,-111,cs),
(145,-140,o),
(182,-163,o),
(236,-163,cs)
);
},
{
closed = 1;
nodes = (
(180,485,o),
(191,559,o),
(195,597,c),
(211,600,o),
(226,602,o),
(251,602,cs),
(384,602,o),
(423,554,o),
(423,480,cs),
(423,440,o),
(407,411,o),
(383,388,cs),
(329,337,o),
(235,324,o),
(172,331,c)
);
}
);
width = 566;
},
{
layerId = "63F4CE79-9D5F-46D3-B41C-385689F27F0A";
shapes = (
{
closed = 1;
nodes = (
(331,-188,o),
(374,-184,o),
(396,-175,cs),
(417,-166,o),
(420,-147,o),
(420,-121,cs),
(420,-105,o),
(411,-89,o),
(402,-89,cs),
(395,-89,o),
(356,-95,o),
(342,-95,cs),
(320,-95,o),
(309,-88,o),
(298,-81,cs),
(282,-71,o),
(277,-49,o),
(277,-12,cs),
(277,74,o),
(289,209,o),
(291,261,c),
(301,250,o),
(327,239,o),
(336,239,c),
(395,125,o),
(449,24,o),
(461,7,cs),
(473,-10,o),
(485,-13,o),
(510,-13,cs),
(562,-13,o),
(678,37,o),
(678,66,cs),
(678,75,o),
(673,80,o),
(659,104,cs),
(629,156,o),
(564,273,o),
(550,298,c),
(611,327,o),
(671,394,o),
(671,478,cs),
(671,597,o),
(600,639,o),
(456,639,cs),
(87,639,l),
(87,426,o),
(63,77,o),
(63,59,cs),
(61,-15,o),
(64,-104,o),
(93,-134,cs),
(139,-183,o),
(252,-188,o),
(302,-188,cs)
);
},
{
closed = 1;
nodes = (
(293,320,o),
(304,523,o),
(306,553,c),
(318,553,o),
(329,553,o),
(341,553,cs),
(409,553,o),
(444,505,o),
(444,451,cs),
(444,411,o),
(431,373,o),
(402,344,cs),
(365,307,o),
(315,304,o),
(292,304,c)
);
}
);
width = 693;
}
);
metricLeft = R;
metricRight = R;
unicode = 11364;
},
{
color = 1;
glyphname = S;
kernLeft = KO_S;
kernRight = KO_S;
lastChange = "2022-10-11 00:58:52 +0000";
layers = (
{
anchors = (
{
name = bottom;
pos = (233,0);
},
{
name = top;
pos = (297,652);
}
);
layerId = "220B7CD1-1E4F-4884-BA06-A44A5DCE8B14";
shapes = (
{
closed = 1;
nodes = (
(329,-13,o),
(435,59,o),
(435,175,cs),
(435,218,o),
(417,251,o),
(385,282,cs),
(353,313,o),
(252,375,o),
(218,409,cs),
(187,440,o),
(172,472,o),
(172,510,cs),
(172,587,o),
(228,613,o),
(264,613,cs),
(338,613,o),
(378,574,o),
(402,550,cs),
(414,538,o),
(421,529,o),
(427,529,cs),
(437,529,o),
(442,544,o),
(442,572,cs),
(442,578,o),
(440,587,o),
(434,593,cs),
(398,632,o),
(339,652,o),
(288,652,cs),
(163,652,o),
(113,569,o),
(113,487,cs),
(113,434,o),
(136,397,o),
(168,367,cs),
(215,323,o),
(305,272,o),
(339,235,cs),
(363,209,o),
(379,180,o),
(379,141,cs),
(379,61,o),
(304,29,o),
(264,29,cs),
(194,29,o),
(142,63,o),
(112,89,cs),
(94,105,o),
(86,117,o),
(82,117,cs),
(71,117,o),
(67,77,o),
(67,68,cs),
(67,63,o),
(68,52,o),
(75,45,cs),
(106,15,o),
(159,-13,o),
(242,-13,cs)
);
}
);
width = 516;
},
{
anchors = (
{
name = bottom;
pos = (269,0);
},
{
name = top;
pos = (305,652);
}
);
layerId = "63F4CE79-9D5F-46D3-B41C-385689F27F0A";
shapes = (
{
closed = 1;
nodes = (
(409,-13,o),
(522,70,o),
(522,200,cs),
(522,240,o),
(516,285,o),
(477,326,cs),
(418,388,o),
(337,420,o),
(299,455,cs),
(287,466,o),
(282,474,o),
(282,489,cs),
(282,521,o),
(310,526,o),
(340,526,cs),
(396,526,o),
(438,507,o),
(468,492,cs),
(480,486,o),
(492,483,o),
(502,483,cs),
(517,483,o),
(526,511,o),
(526,551,cs),
(526,576,o),
(522,592,o),
(498,608,cs),
(443,645,o),
(366,652,o),
(302,652,cs),
(163,652,o),
(70,560,o),
(70,437,cs),
(70,392,o),
(81,342,o),
(134,293,cs),
(180,251,o),
(246,225,o),
(285,186,cs),
(301,170,o),
(306,158,o),
(306,146,cs),
(306,124,o),
(280,112,o),
(241,112,cs),
(193,112,o),
(146,130,o),
(121,141,cs),
(100,150,o),
(84,155,o),
(74,155,cs),
(58,155,o),
(48,127,o),
(48,87,cs),
(48,58,o),
(53,41,o),
(90,23,cs),
(140,-1,o),
(194,-13,o),
(280,-13,cs)
);
}
);
width = 574;
}
);
note = S;
unicode = 83;
},
{
color = 1;
glyphname = Germandbls;
kernRight = KO_Germandbls;
lastChange = "2022-09-26 01:35:25 +0000";
layers = (
{
layerId = "220B7CD1-1E4F-4884-BA06-A44A5DCE8B14";
shapes = (
{
closed = 1;
nodes = (
(100,-13,o),
(101,-11,o),
(101,-6,cs),
(106,346,o),
(120,475,o),
(182,540,cs),
(214,574,o),
(270,612,o),
(349,612,cs),
(430,612,o),
(474,606,o),
(515,600,c),
(477,555,o),
(388,470,o),
(348,423,cs),
(337,409,o),
(334,394,o),
(342,383,c),
(343,379,o),
(346,376,o),
(350,372,cs),
(401,328,o),
(461,280,o),
(498,243,cs),
(524,217,o),
(534,180,o),
(536,141,cs),
(542,61,o),
(469,29,o),
(429,29,cs),
(359,29,o),
(308,57,o),
(276,83,cs),
(257,99,o),
(245,114,o),
(241,114,cs),
(230,114,o),
(229,77,o),
(230,68,cs),
(230,63,o),
(232,52,o),
(239,45,cs),
(272,15,o),
(327,-13,o),
(410,-13,cs),
(497,-13,o),
(598,59,o),
(590,175,cs),
(587,218,o),
(567,251,o),
(533,282,cs),
(500,312,o),
(427,372,o),
(390,406,c),
(426,450,o),
(532,557,o),
(557,581,cs),
(565,589,o),
(564,604,o),
(564,611,cs),
(563,625,o),
(558,639,o),
(549,639,c),
(485,652,o),
(428,652,o),
(365,652,cs),
(254,652,o),
(195,613,o),
(151,571,cs),
(63,484,o),
(45,322,o),
(38,13,cs),
(38,-5,o),
(70,-13,o),
(91,-13,cs)
);
}
);
width = 614;
},
{
background = {
shapes = (
{
closed = 1;
nodes = (
(156,-13,o),
(157,-11,o),
(157,-6,cs),
(187,346,o),
(210,475,o),
(276,540,cs),
(311,574,o),
(359,612,o),
(438,612,cs),
(519,612,o),
(554,606,o),
(595,600,c),
(553,555,o),
(465,465,o),
(422,418,cs),
(410,404,o),
(412,392,o),
(419,381,c),
(420,377,o),
(423,374,o),
(427,370,cs),
(474,326,o),
(534,275,o),
(568,238,cs),
(592,212,o),
(603,180,o),
(603,141,cs),
(603,61,o),
(528,29,o),
(488,29,cs),
(418,29,o),
(366,63,o),
(336,89,cs),
(318,105,o),
(310,117,o),
(306,117,cs),
(295,117,o),
(291,77,o),
(291,68,cs),
(291,63,o),
(292,52,o),
(299,45,cs),
(330,15,o),
(383,-13,o),
(466,-13,cs),
(553,-13,o),
(659,59,o),
(659,175,cs),
(659,218,o),
(641,251,o),
(609,282,cs),
(578,312,o),
(510,372,o),
(475,406,c),
(514,450,o),
(618,557,o),
(644,581,cs),
(653,589,o),
(653,604,o),
(653,611,cs),
(653,625,o),
(649,639,o),
(640,639,c),
(577,652,o),
(520,652,o),
(457,652,cs),
(346,652,o),
(294,613,o),
(248,571,cs),
(153,484,o),
(134,322,o),
(106,13,cs),
(104,-5,o),
(126,-13,o),
(147,-13,cs)
);
}
);
};
layerId = "63F4CE79-9D5F-46D3-B41C-385689F27F0A";
shapes = (
{
closed = 1;
nodes = (
(248,-9,o),
(263,0,o),
(264,26,cs),
(284,344,o),
(297,423,o),
(311,457,cs),
(334,513,o),
(383,559,o),
(426,559,cs),
(493,559,o),
(506,545,o),
(523,538,cs),
(470,484,o),
(408,433,o),
(393,410,cs),
(388,402,o),
(371,381,o),
(372,363,cs),
(374,344,o),
(396,322,o),
(404,315,cs),
(445,283,o),
(458,271,o),
(510,231,cs),
(543,205,o),
(555,175,o),
(556,152,cs),
(559,99,o),
(518,66,o),
(501,66,cs),
(462,66,o),
(433,85,o),
(401,104,cs),
(379,119,o),
(360,152,o),
(344,152,cs),
(324,152,o),
(312,124,o),
(316,59,cs),
(317,44,o),
(326,31,o),
(349,20,cs),
(379,7,o),
(415,-10,o),
(483,-10,cs),
(625,-10,o),
(757,75,o),
(751,184,cs),
(749,234,o),
(733,290,o),
(667,335,cs),
(632,360,o),
(608,378,o),
(567,406,cs),
(620,463,o),
(687,515,o),
(707,538,cs),
(718,552,o),
(725,567,o),
(724,595,cs),
(722,619,o),
(714,626,o),
(696,630,cs),
(648,638,o),
(538,652,o),
(440,652,cs),
(331,652,o),
(236,624,o),
(178,571,cs),
(64,469,o),
(49,415,o),
(33,35,cs),
(32,3,o),
(158,-9,o),
(208,-9,cs)
);
}
);
width = 784;
}
);
unicode = 7838;
},
{
color = 1;
glyphname = T;
kernLeft = KO_T;
kernRight = KO_T;
lastChange = "2023-02-09 04:17:22 +0000";
layers = (
{
anchors = (
{
name = bottom;
pos = (250,0);
},
{
name = center;
pos = (290,326);
},
{
name = top;
pos = (287,652);
}
);
layerId = "220B7CD1-1E4F-4884-BA06-A44A5DCE8B14";
shapes = (
{
closed = 1;
nodes = (
(282,-13,o),
(284,-10,o),
(284,-5,cs),
(284,264,o),
(306,514,o),
(314,596,c),
(320,596,l),
(452,596,o),
(514,588,o),
(524,588,cs),
(534,588,o),
(539,607,o),
(539,630,cs),
(539,638,o),
(537,639,o),
(532,639,cs),
(49,639,ls),
(39,639,o),
(34,620,o),
(34,597,cs),
(34,590,o),
(37,588,o),
(42,588,cs),
(53,588,o),
(104,596,o),
(247,596,c),
(253,596,l),
(248,358,o),
(221,24,o),
(221,14,cs),
(221,-4,o),
(251,-13,o),
(273,-13,cs)
);
}
);
width = 527;
},
{
anchors = (
{
name = bottom;
pos = (262,0);
},
{
name = center;
pos = (281,326);
},
{
name = top;
pos = (303,652);
}
);
layerId = "63F4CE79-9D5F-46D3-B41C-385689F27F0A";
shapes = (
{
closed = 1;
nodes = (
(376,-13,o),
(381,-4,o),
(381,21,c),
(381,157,o),
(395,401,o),
(402,514,c),
(405,514,l),
(418,514,o),
(531,505,o),
(540,505,c),
(550,505,o),
(556,570,o),
(556,599,c),
(556,624,o),
(552,639,o),
(536,639,c),
(55,639,l),
(41,639,o),
(28,603,o),
(28,550,c),
(28,526,o),
(32,505,o),
(40,505,c),
(49,505,o),
(150,514,o),
(179,514,c),
(183,514,l),
(178,327,o),
(161,74,o),
(161,59,c),
(161,9,o),
(268,-13,o),
(332,-13,c)
);
}
);
width = 541;
}
);
note = T;
unicode = 84;
},
{
color = 6;
glyphname = Tbar;
lastChange = "2023-02-09 03:34:07 +0000";
layers = (
{
layerId = "220B7CD1-1E4F-4884-BA06-A44A5DCE8B14";
shapes = (
{
closed = 1;
nodes = (
(282,-13,o),
(284,-10,o),
(284,-5,cs),
(284,264,o),
(306,514,o),
(314,596,c),
(321,596,l),
(452,596,o),
(514,588,o),
(524,588,cs),
(534,588,o),
(539,607,o),
(539,630,cs),
(539,638,o),
(537,639,o),
(532,639,cs),
(49,639,ls),
(39,639,o),
(34,620,o),
(34,597,cs),
(34,590,o),
(37,588,o),
(42,588,cs),
(53,588,o),
(104,596,o),
(245,596,c),
(253,596,l),
(248,358,o),
(221,24,o),
(221,14,cs),
(221,-4,o),
(251,-13,o),
(273,-13,cs)
);
},
{
closed = 1;
nodes = (
(80,341,o),
(176,341,o),
(273,342,cs),
(370,342,o),
(467,342,o),
(469,342,cs),
(478,342,o),
(483,356,o),
(483,374,cs),
(483,380,o),
(480,384,o),
(475,384,c),
(86,384,l),
(77,384,o),
(71,369,o),
(71,351,cs),
(71,345,o),
(73,341,o),
(78,341,cs)
);
}
);
width = 527;
},
{
layerId = "63F4CE79-9D5F-46D3-B41C-385689F27F0A";
shapes = (
{
closed = 1;
nodes = (
(376,-13,o),
(381,-4,o),
(381,21,c),
(381,157,o),
(395,401,o),
(402,514,c),
(405,514,l),
(418,514,o),
(531,505,o),
(540,505,c),
(550,505,o),
(556,570,o),
(556,599,c),
(556,624,o),
(552,639,o),
(536,639,c),
(55,639,l),
(41,639,o),
(28,603,o),
(28,550,c),
(28,526,o),
(32,505,o),
(40,505,c),
(49,505,o),
(150,514,o),
(179,514,c),
(183,514,l),
(178,327,o),
(161,74,o),
(161,59,c),
(161,9,o),
(268,-13,o),
(332,-13,c)
);
},
{
closed = 1;
nodes = (
(202,276,o),
(263,280,o),
(294,280,cs),
(333,280,o),
(371,276,o),
(500,276,cs),
(515,276,o),
(526,298,o),
(526,334,cs),
(526,357,o),
(523,360,o),
(513,360,cs),
(84,360,ls),
(69,360,o),
(58,338,o),
(58,302,cs),
(58,279,o),
(61,276,o),
(71,276,cs)
);
}
);
width = 541;
}
);
metricLeft = T;
metricRight = T;
unicode = 358;
},
{
color = 6;
glyphname = Tdiagonalstroke;
lastChange = "2023-02-16 15:45:18 +0000";
layers = (
{
anchors = (
{
name = bottom;
pos = (250,0);
},
{
name = center;
pos = (290,326);
},
{
name = top;
pos = (287,652);
}
);
layerId = "220B7CD1-1E4F-4884-BA06-A44A5DCE8B14";
shapes = (
{
closed = 1;
nodes = (
(282,-13,o),
(284,-10,o),
(284,-5,cs),
(284,264,o),
(306,514,o),
(314,596,c),
(320,596,l),
(452,596,o),
(514,588,o),
(524,588,cs),
(534,588,o),
(539,607,o),
(539,630,cs),
(539,638,o),
(537,639,o),
(532,639,cs),
(49,639,ls),
(39,639,o),
(34,620,o),
(34,597,cs),
(34,590,o),
(37,588,o),
(42,588,cs),
(53,588,o),
(104,596,o),
(247,596,c),
(253,596,l),
(248,358,o),
(221,24,o),
(221,14,cs),
(221,-4,o),
(251,-13,o),
(273,-13,cs)
);
},
{
closed = 1;
nodes = (
(464,676,l),
(467,684,o),
(468,689,o),
(467,694,cs),
(459,718,o),
(441,725,o),
(434,726,cs),
(431,726,o),
(429,720,o),
(426,711,c),
(186,-35,l),
(183,-43,o),
(182,-48,o),
(183,-53,cs),
(191,-77,o),
(210,-84,o),
(217,-85,cs),
(220,-85,o),
(222,-79,o),
(225,-70,c)
);
}
);
width = 527;
},
{
anchors = (
{
name = bottom;
pos = (262,0);
},
{
name = center;
pos = (281,326);
},
{
name = top;
pos = (303,652);
}
);
layerId = "63F4CE79-9D5F-46D3-B41C-385689F27F0A";
shapes = (
{
closed = 1;
nodes = (
(376,-13,o),
(381,-4,o),
(381,21,c),
(381,157,o),
(395,401,o),
(402,514,c),
(405,514,l),
(418,514,o),
(531,505,o),
(540,505,c),
(550,505,o),
(556,570,o),
(556,599,c),
(556,624,o),
(552,639,o),
(536,639,c),
(55,639,l),
(41,639,o),
(28,603,o),
(28,550,c),
(28,526,o),
(32,505,o),
(40,505,c),
(49,505,o),
(150,514,o),
(179,514,c),
(183,514,l),
(178,327,o),
(161,74,o),
(161,59,c),
(161,9,o),
(268,-13,o),
(332,-13,c)
);
},
{
closed = 1;
nodes = (
(511,684,l),
(514,692,o),
(515,697,o),
(514,702,cs),
(506,726,o),
(462,725,o),
(455,726,cs),
(452,726,o),
(450,720,o),
(447,711,c),
(227,-35,l),
(224,-43,o),
(223,-48,o),
(224,-53,cs),
(232,-77,o),
(276,-86,o),
(283,-87,cs),
(286,-87,o),
(288,-81,o),
(291,-72,c)
);
}
);
width = 541;
}
);
unicode = 574;
},
{
color = 6;
glyphname = Thook;
lastChange = "2023-02-10 03:17:23 +0000";
layers = (
{
anchors = (
{
name = bottom;
pos = (289,0);
},
{
name = center;
pos = (329,326);
},
{
name = top;
pos = (326,652);
}
);
layerId = "220B7CD1-1E4F-4884-BA06-A44A5DCE8B14";
shapes = (
{
closed = 1;
nodes = (
(321,-13,o),
(323,-10,o),
(323,-5,cs),
(323,264,o),
(345,514,o),
(353,596,c),
(359,596,ls),
(491,596,o),
(553,588,o),
(563,588,cs),
(573,588,o),
(578,607,o),
(578,630,cs),
(578,638,o),
(576,639,o),
(571,639,cs),
(290,639,ls),
(184,639,o),
(128,618,o),
(87,574,cs),
(54,539,o),
(34,501,o),
(34,460,cs),
(34,418,o),
(56,367,o),
(73,342,cs),
(77,337,o),
(81,336,o),
(87,336,cs),
(99,336,o),
(112,340,o),
(112,346,cs),
(112,351,o),
(106,364,o),
(105,367,cs),
(103,373,o),
(86,422,o),
(86,484,cs),
(86,531,o),
(150,596,o),
(292,596,c),
(287,358,o),
(260,24,o),
(260,14,cs),
(260,-4,o),
(290,-13,o),
(312,-13,cs)
);
}
);
width = 566;
},
{
anchors = (
{
name = bottom;
pos = (322,0);
},
{
name = center;
pos = (341,326);
},
{
name = top;
pos = (363,652);
}
);
layerId = "63F4CE79-9D5F-46D3-B41C-385689F27F0A";
shapes = (
{
closed = 1;
nodes = (
(436,-13,o),
(441,-4,o),
(441,21,cs),
(441,157,o),
(455,401,o),
(462,514,c),
(465,514,ls),
(478,514,o),
(591,505,o),
(600,505,cs),
(610,505,o),
(616,570,o),
(616,599,cs),
(616,624,o),
(612,639,o),
(596,639,cs),
(244,639,ls),
(180,639,o),
(122,627,o),
(80,580,cs),
(33,527,o),
(28,463,o),
(28,414,cs),
(28,367,o),
(38,326,o),
(46,311,cs),
(54,296,o),
(71,292,o),
(94,292,cs),
(110,292,o),
(127,300,o),
(127,310,cs),
(127,313,o),
(126,317,o),
(125,325,cs),
(124,335,o),
(123,345,o),
(123,359,cs),
(123,492,o),
(143,522,o),
(244,525,c),
(243,327,o),
(221,74,o),
(221,59,cs),
(221,9,o),
(328,-13,o),
(392,-13,cs)
);
}
);
width = 601;
}
);
metricLeft = Dhook;
metricRight = T;
unicode = 428;
},
{
color = 6;
glyphname = Tretroflexhook;
lastChange = "2023-02-10 03:44:34 +0000";
layers = (
{
layerId = "220B7CD1-1E4F-4884-BA06-A44A5DCE8B14";
shapes = (
{
closed = 1;
nodes = (
(401,-163,o),
(427,-160,o),
(445,-151,cs),
(457,-145,o),
(460,-138,o),
(460,-119,cs),
(460,-108,o),
(456,-101,o),
(451,-101,cs),
(440,-101,o),
(393,-124,o),
(350,-124,cs),
(318,-124,o),
(305,-107,o),
(294,-92,cs),
(287,-82,o),
(283,-61,o),
(283,-10,c),
(286,179,o),
(312,574,o),
(314,596,c),
(320,596,ls),
(452,596,o),
(514,588,o),
(524,588,cs),
(534,588,o),
(539,607,o),
(539,630,cs),
(539,638,o),
(537,639,o),
(532,639,cs),
(49,639,ls),
(39,639,o),
(34,620,o),
(34,597,cs),
(34,590,o),
(37,588,o),
(42,588,cs),
(114,588,o),
(155,596,o),
(253,596,c),
(248,358,o),
(221,24,o),
(221,13,cs),
(221,-30,o),
(215,-78,o),
(243,-111,cs),
(268,-140,o),
(305,-163,o),
(359,-163,cs)
);
}
);
width = 527;
},
{
layerId = "63F4CE79-9D5F-46D3-B41C-385689F27F0A";
shapes = (
{
closed = 1;
nodes = (
(429,-188,o),
(472,-184,o),
(494,-175,cs),
(515,-166,o),
(518,-147,o),
(518,-121,cs),
(518,-105,o),
(509,-89,o),
(500,-89,cs),
(493,-89,o),
(454,-95,o),
(440,-95,cs),
(418,-95,o),
(407,-88,o),
(396,-81,cs),
(380,-71,o),
(381,-16,o),
(381,21,cs),
(381,157,o),
(395,401,o),
(402,514,c),
(405,514,ls),
(418,514,o),
(531,505,o),
(540,505,cs),
(550,505,o),
(556,570,o),
(556,599,cs),
(556,624,o),
(552,639,o),
(536,639,cs),
(55,639,ls),
(41,639,o),
(28,603,o),
(28,550,cs),
(28,526,o),
(32,505,o),
(40,505,cs),
(49,505,o),
(150,514,o),
(183,514,c),
(176,327,o),
(161,74,o),
(161,59,cs),
(159,-15,o),
(162,-104,o),
(191,-134,cs),
(237,-183,o),
(350,-188,o),
(400,-188,cs)
);
}
);
width = 541;
}
);
metricLeft = T;
metricRight = T;
unicode = 430;
},
{
color = 1;
glyphname = U;
kernLeft = KO_U;
kernRight = KO_U;
lastChange = "2023-02-08 06:41:56 +0000";
layers = (
{
anchors = (
{
name = bottom;
pos = (348,0);
},
{
name = ogonek;
pos = (385,0);
},
{
name = top;
pos = (384,652);
},
{
name = topright;
pos = (636,608);
}
);
layerId = "220B7CD1-1E4F-4884-BA06-A44A5DCE8B14";
shapes = (
{
closed = 1;
nodes = (
(421,-13,o),
(483,6,o),
(529,48,cs),
(624,135,o),
(653,317,o),
(653,626,cs),
(653,644,o),
(631,652,o),
(610,652,cs),
(601,652,o),
(600,650,o),
(600,645,cs),
(600,293,o),
(567,144,o),
(501,79,cs),
(466,45,o),
(408,27,o),
(359,27,cs),
(298,27,o),
(243,42,o),
(207,80,cs),
(164,125,o),
(148,212,o),
(148,307,cs),
(148,411,o),
(166,589,o),
(166,626,cs),
(166,644,o),
(136,652,o),
(113,652,cs),
(104,652,o),
(103,650,o),
(103,645,cs),
(103,635,o),
(87,456,o),
(87,298,cs),
(87,195,o),
(101,104,o),
(151,53,cs),
(193,10,o),
(267,-13,o),
(340,-13,cs)
);
}
);
width = 708;
},
{
anchors = (
{
name = bottom;
pos = (374,0);
},
{
name = ogonek;
pos = (617,10);
},
{
name = top;
pos = (403,652);
},
{
name = topright;
pos = (658,608);
}
);
layerId = "63F4CE79-9D5F-46D3-B41C-385689F27F0A";
shapes = (
{
closed = 1;
nodes = (
(453,-13,o),
(529,13,o),
(583,64,cs),
(679,155,o),
(708,327,o),
(708,580,cs),
(708,630,o),
(642,652,o),
(603,652,cs),
(576,652,o),
(573,643,o),
(573,618,cs),
(573,343,o),
(548,201,o),
(506,145,cs),
(484,116,o),
(450,99,o),
(420,99,cs),
(384,99,o),
(350,112,o),
(328,146,cs),
(302,186,o),
(295,264,o),
(295,347,cs),
(295,420,o),
(310,569,o),
(310,580,cs),
(310,630,o),
(203,652,o),
(139,652,cs),
(95,652,o),
(93,643,o),
(90,618,cs),
(89,608,o),
(74,447,o),
(72,298,cs),
(71,195,o),
(84,105,o),
(139,55,cs),
(187,12,o),
(266,-13,o),
(348,-13,cs)
);
}
);
width = 700;
}
);
note = U;
unicode = 85;
},
{
color = 7;
glyphname = Ubar;
lastChange = "2022-10-09 04:12:53 +0000";
layers = (
{
anchors = (
{
name = bottom;
pos = (354,0);
},
{
name = ogonek;
pos = (391,0);
},
{
name = top;
pos = (390,652);
},
{
name = topright;
pos = (690,652);
}
);
layerId = "220B7CD1-1E4F-4884-BA06-A44A5DCE8B14";
shapes = (
{
closed = 1;
nodes = (
(427,-13,o),
(489,6,o),
(535,48,cs),
(630,135,o),
(659,317,o),
(659,626,cs),
(659,644,o),
(637,652,o),
(616,652,cs),
(607,652,o),
(606,650,o),
(606,645,cs),
(606,293,o),
(573,144,o),
(507,79,cs),
(472,45,o),
(414,27,o),
(365,27,cs),
(304,27,o),
(249,42,o),
(213,80,cs),
(170,125,o),
(154,212,o),
(154,307,cs),
(154,411,o),
(172,589,o),
(172,626,cs),
(172,644,o),
(142,652,o),
(119,652,cs),
(110,652,o),
(109,650,o),
(109,645,cs),
(109,635,o),
(93,456,o),
(93,298,cs),
(93,195,o),
(107,104,o),
(157,53,cs),
(199,10,o),
(273,-13,o),
(346,-13,cs)
);
},
{
closed = 1;
nodes = (
(36,455,o),
(213,458,o),
(389,459,cs),
(562,459,o),
(715,456,o),
(717,456,c),
(726,456,o),
(731,475,o),
(731,489,cs),
(731,495,o),
(728,499,o),
(723,499,c),
(42,499,l),
(33,499,o),
(27,483,o),
(27,465,cs),
(27,459,o),
(29,455,o),
(34,455,c)
);
}
);
width = 720;
},
{
anchors = (
{
name = bottom;
pos = (379,0);
},
{
name = ogonek;
pos = (622,10);
},
{
name = top;
pos = (413,652);
},
{
name = topright;
pos = (705,652);
}
);
layerId = "63F4CE79-9D5F-46D3-B41C-385689F27F0A";
shapes = (
{
closed = 1;
nodes = (
(458,-13,o),
(534,13,o),
(588,64,cs),
(684,155,o),
(713,327,o),
(713,580,cs),
(713,630,o),
(647,652,o),
(608,652,cs),
(581,652,o),
(578,643,o),
(578,618,cs),
(578,343,o),
(553,201,o),
(511,145,cs),
(489,116,o),
(455,99,o),
(425,99,cs),
(389,99,o),
(355,112,o),
(333,146,cs),
(307,186,o),
(300,264,o),
(300,347,cs),
(300,420,o),
(315,569,o),
(315,580,cs),
(315,630,o),
(208,652,o),
(144,652,cs),
(100,652,o),
(98,643,o),
(95,618,cs),
(94,608,o),
(79,447,o),
(77,298,cs),
(76,195,o),
(89,105,o),
(144,55,cs),
(192,12,o),
(271,-13,o),
(353,-13,cs)
);
},
{
closed = 1;
nodes = (
(172,415,o),
(303,419,o),
(434,419,cs),
(563,419,o),
(621,415,o),
(750,415,cs),
(765,415,o),
(776,437,o),
(776,473,cs),
(776,496,o),
(773,499,o),
(763,499,cs),
(54,499,l),
(39,499,o),
(28,477,o),
(28,441,cs),
(28,418,o),
(31,415,o),
(41,415,c)
);
}
);
width = 756;
}
);
unicode = 580;
},
{
color = 9;
glyphname = "Upsilon-latin";
lastChange = "2023-02-11 05:11:34 +0000";
layers = (
{
anchors = (
{
name = bottom;
pos = (381,0);
},
{
name = top;
pos = (401,652);
}
);
layerId = "220B7CD1-1E4F-4884-BA06-A44A5DCE8B14";
shapes = (
{
closed = 1;
nodes = (
(460,639,ls),
(453,639,o),
(444,624,o),
(444,608,cs),
(444,597,o),
(446,589,o),
(451,585,cs),
(559,503,o),
(621,401,o),
(621,280,cs),
(621,135,o),
(523,23,o),
(354,23,cs),
(178,23,o),
(121,127,o),
(121,245,cs),
(121,382,o),
(218,503,o),
(338,585,cs),
(343,589,o),
(346,597,o),
(346,608,cs),
(346,624,o),
(337,639,o),
(329,639,cs),
(94,639,ls),
(80,639,o),
(75,616,o),
(75,594,cs),
(75,585,o),
(77,584,o),
(81,584,cs),
(84,584,o),
(148,599,o),
(247,599,cs),
(291,599,l),
(102,467,o),
(60,332,o),
(60,239,cs),
(60,124,o),
(116,-13,o),
(348,-13,cs),
(580,-13,o),
(682,138,o),
(682,282,cs),
(682,418,o),
(613,508,o),
(500,599,c),
(534,599,ls),
(612,599,o),
(699,584,o),
(702,584,cs),
(713,584,o),
(721,606,o),
(721,629,cs),
(721,638,o),
(718,639,o),
(714,639,cs)
);
}
);
width = 781;
},
{
anchors = (
{
name = bottom;
pos = (378,0);
},
{
name = top;
pos = (394,652);
}
);
layerId = "63F4CE79-9D5F-46D3-B41C-385689F27F0A";
shapes = (
{
closed = 1;
nodes = (
(470,639,ls),
(441,639,o),
(421,593,o),
(416,555,cs),
(414,539,o),
(416,534,o),
(424,522,cs),
(462,469,o),
(485,395,o),
(485,308,cs),
(485,224,o),
(468,58,o),
(382,58,cs),
(305,58,o),
(253,112,o),
(253,253,cs),
(253,367,o),
(292,460,o),
(342,520,cs),
(352,532,o),
(355,536,o),
(355,552,cs),
(355,588,o),
(343,639,o),
(314,639,cs),
(72,639,ls),
(43,639,o),
(38,567,o),
(38,549,cs),
(38,526,o),
(38,520,o),
(44,520,cs),
(51,520,o),
(123,533,o),
(164,533,c),
(204,533,l),
(121,467,o),
(25,380,o),
(25,223,cs),
(25,13,o),
(186,-13,o),
(368,-13,cs),
(557,-13,o),
(713,50,o),
(713,263,cs),
(713,413,o),
(602,492,o),
(546,528,c),
(591,528,l),
(640,528,o),
(725,520,o),
(735,520,cs),
(741,520,o),
(744,527,o),
(744,549,cs),
(744,567,o),
(745,639,o),
(723,639,cs)
);
}
);
width = 769;
}
);
metricLeft = "=|O";
metricRight = O;
unicode = 433;
},
{
color = 1;
glyphname = V;
kernLeft = KO_V;
kernRight = KO_V;
lastChange = "2023-02-09 04:17:22 +0000";
layers = (
{
anchors = (
{
name = bottom;
pos = (280,0);
},
{
name = top;
pos = (337,652);
}
);
layerId = "220B7CD1-1E4F-4884-BA06-A44A5DCE8B14";
shapes = (
{
closed = 1;
nodes = (
(300,-13,o),
(302,-11,o),
(305,-6,cs),
(365,107,o),
(583,558,o),
(608,613,cs),
(610,617,o),
(613,623,o),
(613,626,cs),
(613,641,o),
(590,652,o),
(569,652,cs),
(564,652,o),
(561,651,o),
(559,644,cs),
(528,548,o),
(326,121,o),
(290,64,c),
(251,151,o),
(115,593,o),
(103,628,cs),
(100,637,o),
(85,652,o),
(46,652,cs),
(36,652,o),
(35,650,o),
(35,645,cs),
(35,641,o),
(36,639,o),
(39,630,cs),
(66,538,o),
(221,77,o),
(245,6,cs),
(248,-3,o),
(268,-13,o),
(292,-13,cs)
);
}
);
width = 618;
},
{
anchors = (
{
name = bottom;
pos = (302,0);
},
{
name = top;
pos = (373,652);
}
);
layerId = "63F4CE79-9D5F-46D3-B41C-385689F27F0A";
shapes = (
{
closed = 1;
nodes = (
(385,-13,o),
(394,-6,o),
(400,8,cs),
(420,59,o),
(537,327,o),
(633,540,cs),
(641,557,o),
(646,569,o),
(646,579,cs),
(646,630,o),
(594,652,o),
(562,652,cs),
(550,652,o),
(544,649,o),
(541,641,cs),
(501,532,o),
(398,267,o),
(354,185,c),
(336,248,o),
(293,545,o),
(290,579,cs),
(286,625,o),
(181,652,o),
(93,652,cs),
(55,652,o),
(40,646,o),
(40,632,cs),
(40,626,o),
(43,618,o),
(46,607,cs),
(49,596,o),
(130,236,o),
(163,66,cs),
(173,15,o),
(259,-13,o),
(350,-13,cs)
);
}
);
width = 626;
}
);
note = V;
unicode = 86;
},
{
color = 9;
glyphname = "Gamma-latin";
lastChange = "2023-02-19 07:06:38 +0000";
layers = (
{
layerId = "220B7CD1-1E4F-4884-BA06-A44A5DCE8B14";
shapes = (
{
closed = 1;
nodes = (
(354,-251,o),
(412,-179,o),
(412,-106,cs),
(412,-37,o),
(369,39,o),
(319,120,c),
(385,242,o),
(570,560,o),
(608,613,cs),
(611,617,o),
(613,623,o),
(613,626,cs),
(613,641,o),
(590,652,o),
(569,652,cs),
(564,652,o),
(562,651,o),
(559,644,cs),
(514,548,o),
(323,228,o),
(287,160,c),
(248,258,o),
(115,593,o),
(103,628,cs),
(100,637,o),
(85,652,o),
(46,652,cs),
(36,652,o),
(35,650,o),
(35,645,cs),
(35,641,o),
(36,639,o),
(39,630,cs),
(65,541,o),
(211,207,o),
(251,122,c),
(199,69,o),
(104,-16,o),
(104,-101,cs),
(104,-194,o),
(155,-251,o),
(245,-251,cs)
);
},
{
closed = 1;
nodes = (
(197,-215,o),
(171,-154,o),
(171,-95,cs),
(171,-27,o),
(236,31,o),
(273,76,c),
(300,36,o),
(345,-54,o),
(345,-115,cs),
(345,-181,o),
(296,-215,o),
(256,-215,cs)
);
}
);
width = 618;
},
{
layerId = "63F4CE79-9D5F-46D3-B41C-385689F27F0A";
shapes = (
{
closed = 1;
nodes = (
(404,-256,o),
(477,-192,o),
(477,-68,cs),
(477,-19,o),
(437,57,o),
(402,144,c),
(449,222,o),
(555,417,o),
(633,540,cs),
(644,557,o),
(646,569,o),
(646,579,cs),
(646,630,o),
(594,652,o),
(562,652,cs),
(550,652,o),
(545,649,o),
(541,641,cs),
(478,524,o),
(395,359,o),
(351,292,c),
(345,340,o),
(293,545,o),
(290,579,cs),
(286,625,o),
(181,652,o),
(93,652,cs),
(55,652,o),
(40,646,o),
(40,632,cs),
(40,626,o),
(43,618,o),
(46,607,cs),
(49,597,o),
(150,314,o),
(214,135,c),
(143,70,o),
(49,-19,o),
(49,-117,cs),
(49,-170,o),
(84,-256,o),
(250,-256,cs)
);
},
{
closed = 1;
nodes = (
(223,-178,o),
(195,-149,o),
(202,-95,cs),
(206,-61,o),
(234,-15,o),
(267,17,c),
(301,-39,o),
(323,-89,o),
(318,-124,cs),
(314,-159,o),
(289,-178,o),
(250,-178,cs)
);
}
);
width = 626;
}
);
metricLeft = V;
metricRight = V;
unicode = 404;
},
{
color = 9;
glyphname = Vhook;
kernLeft = KO_U;
lastChange = "2023-02-11 05:08:44 +0000";
layers = (
{
anchors = (
{
name = bottom;
pos = (348,0);
},
{
name = ogonek;
pos = (385,0);
},
{
name = top;
pos = (385,652);
},
{
name = topright;
pos = (636,608);
}
);
layerId = "220B7CD1-1E4F-4884-BA06-A44A5DCE8B14";
shapes = (
{
closed = 1;
nodes = (
(552,-11,o),
(674,179,o),
(674,399,cs),
(674,553,o),
(601,653,o),
(469,653,cs),
(440,653,o),
(374,654,o),
(319,595,cs),
(313,589,o),
(312,586,o),
(312,580,cs),
(312,569,o),
(318,537,o),
(321,537,cs),
(322,537,o),
(323,537,o),
(334,548,cs),
(377,591,o),
(428,595,o),
(449,595,cs),
(554,595,o),
(612,523,o),
(612,393,cs),
(612,198,o),
(483,27,o),
(359,27,cs),
(298,27,o),
(243,42,o),
(207,80,cs),
(164,125,o),
(148,212,o),
(148,307,cs),
(148,411,o),
(166,589,o),
(166,626,cs),
(166,644,o),
(136,652,o),
(113,652,cs),
(104,652,o),
(103,650,o),
(103,645,cs),
(103,635,o),
(87,456,o),
(87,298,cs),
(87,195,o),
(101,104,o),
(151,53,cs),
(193,10,o),
(267,-14,o),
(340,-13,cs)
);
}
);
width = 734;
},
{
anchors = (
{
name = bottom;
pos = (424,0);
},
{
name = ogonek;
pos = (667,10);
},
{
name = top;
pos = (453,652);
},
{
name = topright;
pos = (708,608);
}
);
layerId = "63F4CE79-9D5F-46D3-B41C-385689F27F0A";
shapes = (
{
closed = 1;
nodes = (
(552,-12,o),
(787,148,o),
(787,391,cs),
(787,584,o),
(674,654,o),
(535,654,cs),
(504,654,o),
(443,652,o),
(415,639,cs),
(375,619,o),
(373,603,o),
(373,594,cs),
(373,536,o),
(381,507,o),
(404,507,cs),
(412,507,o),
(423,510,o),
(434,516,cs),
(447,523,o),
(470,529,o),
(489,529,cs),
(507,529,o),
(558,504,o),
(558,391,cs),
(558,252,o),
(478,99,o),
(418,99,cs),
(375,99,o),
(350,112,o),
(328,146,cs),
(302,186,o),
(295,264,o),
(295,347,cs),
(295,420,o),
(310,569,o),
(310,580,cs),
(310,630,o),
(203,652,o),
(139,652,cs),
(95,652,o),
(93,643,o),
(90,618,cs),
(89,608,o),
(74,447,o),
(72,298,cs),
(71,195,o),
(97,95,o),
(152,45,cs),
(212,-9,o),
(310,-12,o),
(394,-12,cs)
);
}
);
width = 812;
}
);
metricLeft = U;
metricRight = O;
unicode = 434;
},
{
color = 7;
glyphname = Vturned;
lastChange = "2023-02-08 06:43:02 +0000";
layers = (
{
anchors = (
{
name = bottom;
pos = (276,-8);
},
{
name = top;
pos = (333,644);
}
);
layerId = "220B7CD1-1E4F-4884-BA06-A44A5DCE8B14";
shapes = (
{
closed = 1;
nodes = (
(313,657,o),
(311,655,o),
(308,650,cs),
(248,537,o),
(30,86,o),
(5,31,cs),
(3,27,o),
(0,21,o),
(0,18,cs),
(0,3,o),
(23,-8,o),
(44,-8,cs),
(49,-8,o),
(52,-7,o),
(54,0,cs),
(85,96,o),
(287,523,o),
(323,580,c),
(362,493,o),
(498,51,o),
(510,16,cs),
(513,7,o),
(528,-8,o),
(567,-8,cs),
(577,-8,o),
(578,-6,o),
(578,-1,cs),
(578,3,o),
(577,5,o),
(574,14,cs),
(547,106,o),
(392,567,o),
(368,638,cs),
(365,647,o),
(345,657,o),
(321,657,cs)
);
}
);
width = 618;
},
{
anchors = (
{
name = bottom;
pos = (288,-8);
},
{
name = top;
pos = (359,644);
}
);
layerId = "63F4CE79-9D5F-46D3-B41C-385689F27F0A";
shapes = (
{
closed = 1;
nodes = (
(276,657,o),
(267,650,o),
(261,636,cs),
(241,585,o),
(124,317,o),
(28,104,cs),
(20,87,o),
(15,75,o),
(15,65,cs),
(15,14,o),
(67,-8,o),
(99,-8,cs),
(111,-8,o),
(117,-5,o),
(120,3,cs),
(160,112,o),
(263,377,o),
(307,459,c),
(325,396,o),
(368,99,o),
(371,65,cs),
(375,19,o),
(480,-8,o),
(568,-8,cs),
(606,-8,o),
(621,-2,o),
(621,12,cs),
(621,18,o),
(618,26,o),
(615,37,cs),
(612,48,o),
(531,408,o),
(498,578,cs),
(488,629,o),
(402,657,o),
(311,657,cs)
);
}
);
width = 627;
}
);
metricLeft = A;
metricRight = A;
unicode = 581;
},
{
color = 1;
glyphname = W;
kernLeft = KO_W;
kernRight = KO_W;
lastChange = "2023-02-09 04:17:22 +0000";
layers = (
{
anchors = (
{
name = bottom;
pos = (473,0);
},
{
name = top;
pos = (507,652);
}
);
layerId = "220B7CD1-1E4F-4884-BA06-A44A5DCE8B14";
shapes = (
{
closed = 1;
nodes = (
(210,-13,o),
(213,-12,o),
(217,-4,cs),
(226,14,o),
(389,341,o),
(481,550,c),
(528,420,o),
(684,50,o),
(695,11,cs),
(699,-4,o),
(725,-13,o),
(755,-13,cs),
(765,-13,o),
(768,-10,o),
(769,3,cs),
(774,50,o),
(933,616,o),
(933,626,cs),
(933,644,o),
(906,652,o),
(886,652,cs),
(878,652,o),
(878,650,o),
(878,645,cs),
(878,591,o),
(784,248,o),
(736,69,c),
(676,194,o),
(563,506,o),
(509,635,cs),
(505,644,o),
(492,652,o),
(477,652,cs),
(472,652,o),
(468,647,o),
(467,644,cs),
(400,476,o),
(304,256,o),
(201,69,c),
(172,204,o),
(124,612,o),
(124,626,cs),
(124,644,o),
(92,652,o),
(72,652,cs),
(63,652,o),
(60,650,o),
(60,642,cs),
(60,638,o),
(60,631,o),
(61,623,cs),
(71,530,o),
(124,210,o),
(147,15,cs),
(149,-5,o),
(181,-13,o),
(202,-13,cs)
);
}
);
width = 958;
},
{
anchors = (
{
name = bottom;
pos = (498,0);
},
{
name = top;
pos = (582,652);
}
);
layerId = "63F4CE79-9D5F-46D3-B41C-385689F27F0A";
shapes = (
{
closed = 1;
nodes = (
(334,-13,o),
(341,-9,o),
(348,11,cs),
(366,64,o),
(484,333,o),
(526,422,c),
(550,336,o),
(603,119,o),
(616,59,cs),
(626,14,o),
(723,-13,o),
(796,-13,cs),
(828,-13,o),
(859,-8,o),
(864,15,cs),
(894,152,o),
(1027,533,o),
(1027,580,cs),
(1027,630,o),
(973,652,o),
(940,652,cs),
(927,652,o),
(918,650,o),
(916,626,cs),
(911,567,o),
(816,251,o),
(799,193,c),
(776,282,o),
(719,519,o),
(708,587,cs),
(702,626,o),
(617,652,o),
(543,652,cs),
(512,652,o),
(504,650,o),
(496,627,cs),
(472,556,o),
(326,216,o),
(319,194,c),
(291,377,o),
(273,536,o),
(271,573,cs),
(268,621,o),
(158,652,o),
(94,652,cs),
(62,652,o),
(40,648,o),
(40,633,cs),
(40,628,o),
(43,614,o),
(45,602,cs),
(51,566,o),
(116,117,o),
(121,59,cs),
(125,9,o),
(226,-13,o),
(302,-13,cs)
);
}
);
width = 1017;
}
);
note = W;
unicode = 87;
},
{
color = 6;
glyphname = Whook;
lastChange = "2023-02-16 14:27:49 +0000";
layers = (
{
anchors = (
{
name = bottom;
pos = (473,0);
},
{
name = top;
pos = (507,652);
}
);
layerId = "220B7CD1-1E4F-4884-BA06-A44A5DCE8B14";
shapes = (
{
closed = 1;
nodes = (
(210,-13,o),
(213,-12,o),
(217,-4,cs),
(226,14,o),
(389,341,o),
(481,550,c),
(528,420,o),
(684,50,o),
(695,11,cs),
(699,-4,o),
(725,-13,o),
(755,-13,cs),
(765,-13,o),
(768,-10,o),
(769,3,c),
(782,70,o),
(825,284,o),
(848,402,cs),
(875,542,o),
(896,601,o),
(953,601,cs),
(990,601,o),
(1003,595,o),
(1009,593,cs),
(1012,592,o),
(1025,586,o),
(1030,586,cs),
(1036,586,o),
(1040,599,o),
(1040,611,cs),
(1040,617,o),
(1039,621,o),
(1034,625,cs),
(1009,642,o),
(994,653,o),
(977,653,cs),
(930,653,o),
(901,636,o),
(866,603,cs),
(811,552,o),
(804,474,o),
(795,413,cs),
(779,297,o),
(739,84,o),
(738,57,c),
(676,194,o),
(563,506,o),
(509,635,cs),
(505,644,o),
(492,652,o),
(477,652,cs),
(472,652,o),
(468,647,o),
(467,644,cs),
(400,476,o),
(304,256,o),
(201,69,c),
(172,204,o),
(124,612,o),
(124,626,cs),
(124,644,o),
(92,652,o),
(72,652,cs),
(63,652,o),
(60,650,o),
(60,642,cs),
(60,638,o),
(60,631,o),
(61,623,cs),
(71,530,o),
(124,210,o),
(147,15,cs),
(149,-5,o),
(181,-13,o),
(202,-13,cs)
);
}
);
width = 1028;
},
{
anchors = (
{
name = bottom;
pos = (498,0);
},
{
name = top;
pos = (582,652);
}
);
layerId = "63F4CE79-9D5F-46D3-B41C-385689F27F0A";
shapes = (
{
closed = 1;
nodes = (
(334,-11,o),
(341,-7,o),
(348,13,cs),
(366,66,o),
(484,333,o),
(526,422,c),
(550,336,o),
(603,121,o),
(616,61,cs),
(626,16,o),
(723,-11,o),
(796,-11,cs),
(828,-11,o),
(859,-6,o),
(864,17,c),
(930,139,o),
(976,328,o),
(1009,445,cs),
(1031,522,o),
(1049,557,o),
(1067,557,cs),
(1080,557,o),
(1090,556,o),
(1100,555,cs),
(1108,554,o),
(1112,553,o),
(1115,553,cs),
(1125,553,o),
(1133,570,o),
(1133,586,cs),
(1133,609,o),
(1129,626,o),
(1114,634,cs),
(1099,642,o),
(1064,652,o),
(1001,652,cs),
(968,652,o),
(925,629,o),
(909,609,cs),
(882,575,o),
(859,550,o),
(849,488,cs),
(839,425,o),
(810,241,o),
(799,193,c),
(776,282,o),
(719,519,o),
(708,587,cs),
(702,626,o),
(617,652,o),
(543,652,cs),
(512,652,o),
(504,650,o),
(496,627,cs),
(472,556,o),
(326,216,o),
(319,194,c),
(291,377,o),
(273,536,o),
(271,573,cs),
(268,621,o),
(158,652,o),
(94,652,cs),
(62,652,o),
(40,648,o),
(40,633,cs),
(40,628,o),
(43,614,o),
(45,602,cs),
(51,566,o),
(116,119,o),
(121,61,cs),
(125,11,o),
(226,-11,o),
(302,-11,cs)
);
}
);
width = 1118;
}
);
metricLeft = W;
metricRight = T;
unicode = 11378;
},
{
color = 1;
glyphname = X;
kernLeft = KO_X;
kernRight = KO_X;
lastChange = "2023-02-09 04:17:22 +0000";
layers = (
{
anchors = (
{
name = bottom;
pos = (291,0);
},
{
name = top;
pos = (335,645);
}
);
layerId = "220B7CD1-1E4F-4884-BA06-A44A5DCE8B14";
shapes = (
{
closed = 1;
nodes = (
(54,-13,o),
(56,-13,o),
(66,1,cs),
(127,86,o),
(200,174,o),
(300,297,c),
(350,224,o),
(478,28,o),
(501,0,cs),
(509,-10,o),
(511,-13,o),
(518,-13,cs),
(530,-13,o),
(550,-4,o),
(562,6,cs),
(567,10,o),
(568,13,o),
(568,14,cs),
(568,15,o),
(564,21,o),
(557,31,cs),
(525,75,o),
(430,200,o),
(346,331,c),
(408,409,o),
(463,484,o),
(529,577,cs),
(534,585,o),
(536,590,o),
(536,598,cs),
(536,622,o),
(523,652,o),
(510,652,cs),
(507,652,o),
(506,650,o),
(503,644,cs),
(481,592,o),
(400,465,o),
(324,366,c),
(248,474,o),
(181,581,o),
(141,645,cs),
(137,651,o),
(132,652,o),
(123,652,cs),
(102,652,o),
(76,636,o),
(76,628,cs),
(76,625,o),
(77,623,o),
(83,614,cs),
(104,583,o),
(175,493,o),
(277,334,c),
(203,243,o),
(127,155,o),
(34,52,cs),
(28,46,o),
(26,43,o),
(26,38,cs),
(26,20,o),
(35,-13,o),
(50,-13,cs)
);
}
);
width = 598;
},
{
anchors = (
{
name = bottom;
pos = (233,0);
},
{
name = top;
pos = (383,646);
}
);
layerId = "63F4CE79-9D5F-46D3-B41C-385689F27F0A";
shapes = (
{
closed = 1;
nodes = (
(87,-13,o),
(93,-8,o),
(109,15,cs),
(133,49,o),
(219,166,o),
(251,203,c),
(298,102,o),
(339,16,o),
(343,8,cs),
(351,-7,o),
(370,-13,o),
(392,-13,cs),
(435,-13,o),
(492,7,o),
(528,27,cs),
(553,41,o),
(562,49,o),
(562,60,cs),
(562,66,o),
(558,72,o),
(554,80,cs),
(519,146,o),
(472,242,o),
(428,333,c),
(508,424,o),
(555,469,o),
(574,509,cs),
(580,522,o),
(583,535,o),
(583,547,cs),
(583,594,o),
(537,652,o),
(526,652,cs),
(521,652,o),
(515,647,o),
(499,624,cs),
(475,590,o),
(396,481,o),
(364,444,c),
(319,540,o),
(281,623,o),
(277,630,cs),
(268,646,o),
(249,652,o),
(226,652,cs),
(177,652,o),
(58,612,o),
(58,579,cs),
(58,573,o),
(61,566,o),
(65,558,cs),
(100,494,o),
(144,398,o),
(188,312,c),
(104,217,o),
(52,168,o),
(33,125,cs),
(28,114,o),
(25,102,o),
(25,91,cs),
(25,36,o),
(76,-13,o),
(82,-13,cs)
);
}
);
width = 593;
}
);
note = X;
unicode = 88;
},
{
color = 1;
glyphname = Y;
kernLeft = KO_Y;
kernRight = KO_Y;
lastChange = "2023-02-09 04:17:22 +0000";
layers = (
{
anchors = (
{
name = bottom;
pos = (279,0);
},
{
name = top;
pos = (313,642);
},
{
name = topleft;
pos = (95,652);
}
);
layerId = "220B7CD1-1E4F-4884-BA06-A44A5DCE8B14";
shapes = (
{
closed = 1;
nodes = (
(310,-13,o),
(311,-10,o),
(311,-5,cs),
(314,85,o),
(317,174,o),
(320,264,c),
(375,363,o),
(487,531,o),
(521,590,cs),
(529,604,o),
(531,610,o),
(531,614,cs),
(531,626,o),
(520,652,o),
(506,652,cs),
(502,652,o),
(499,650,o),
(497,646,cs),
(484,621,o),
(363,418,o),
(301,320,c),
(267,378,o),
(204,504,o),
(123,630,cs),
(110,651,o),
(76,652,o),
(62,652,cs),
(48,652,o),
(45,650,o),
(45,643,cs),
(45,638,o),
(53,626,o),
(58,618,cs),
(77,590,o),
(145,502,o),
(266,275,c),
(259,188,o),
(248,25,o),
(248,14,cs),
(248,-4,o),
(278,-13,o),
(301,-13,cs)
);
}
);
width = 566;
},
{
anchors = (
{
name = bottom;
pos = (253,0);
},
{
name = top;
pos = (307,642);
},
{
name = topleft;
pos = (69,652);
}
);
layerId = "63F4CE79-9D5F-46D3-B41C-385689F27F0A";
shapes = (
{
closed = 1;
nodes = (
(363,-13,o),
(368,-4,o),
(368,21,cs),
(368,81,o),
(371,149,o),
(374,232,c),
(402,277,o),
(512,453,o),
(531,483,cs),
(546,506,o),
(553,535,o),
(553,559,cs),
(553,610,o),
(508,652,o),
(493,652,cs),
(483,652,o),
(478,642,o),
(463,614,cs),
(439,568,o),
(377,447,o),
(334,381,c),
(314,446,o),
(297,509,o),
(284,576,cs),
(273,633,o),
(155,652,o),
(77,652,cs),
(30,652,o),
(19,641,o),
(19,626,cs),
(19,622,o),
(20,618,o),
(22,613,cs),
(63,530,o),
(131,336,o),
(159,261,c),
(153,153,o),
(148,68,o),
(148,59,cs),
(148,9,o),
(255,-13,o),
(319,-13,cs)
);
}
);
width = 540;
}
);
note = Y;
unicode = 89;
},
{
color = 6;
glyphname = Yhook;
kernLeft = KO_Y;
lastChange = "2023-02-16 14:34:36 +0000";
layers = (
{
anchors = (
{
name = bottom;
pos = (279,0);
},
{
name = top;
pos = (313,642);
},
{
name = topleft;
pos = (95,652);
}
);
layerId = "220B7CD1-1E4F-4884-BA06-A44A5DCE8B14";
shapes = (
{
closed = 1;
nodes = (
(310,-13,o),
(311,-10,o),
(311,-5,cs),
(314,80,o),
(317,164,o),
(320,249,c),
(333,322,o),
(354,363,o),
(370,402,cs),
(426,542,o),
(450,601,o),
(507,601,cs),
(544,601,o),
(557,595,o),
(563,593,cs),
(566,592,o),
(579,586,o),
(584,586,cs),
(590,586,o),
(594,599,o),
(594,611,cs),
(594,617,o),
(593,621,o),
(588,625,cs),
(563,642,o),
(548,653,o),
(531,653,cs),
(484,653,o),
(455,636,o),
(420,603,cs),
(365,552,o),
(343,475,o),
(323,413,cs),
(315,388,o),
(294,335,o),
(294,320,c),
(260,379,o),
(204,504,o),
(123,630,cs),
(110,651,o),
(76,652,o),
(62,652,cs),
(48,652,o),
(45,650,o),
(45,643,cs),
(45,638,o),
(53,626,o),
(58,618,cs),
(77,590,o),
(145,502,o),
(266,275,c),
(259,188,o),
(248,25,o),
(248,14,cs),
(248,-4,o),
(278,-13,o),
(301,-13,cs)
);
}
);
width = 582;
},
{
anchors = (
{
name = bottom;
pos = (253,0);
},
{
name = top;
pos = (307,642);
},
{
name = topleft;
pos = (69,652);
}
);
layerId = "63F4CE79-9D5F-46D3-B41C-385689F27F0A";
shapes = (
{
closed = 1;
nodes = (
(363,-13,o),
(368,-4,o),
(368,21,cs),
(368,81,o),
(371,149,o),
(374,232,cs),
(380,301,o),
(424,388,o),
(448,445,cs),
(480,518,o),
(510,557,o),
(573,557,cs),
(586,557,o),
(596,556,o),
(606,555,cs),
(614,554,o),
(618,553,o),
(621,553,cs),
(631,553,o),
(639,570,o),
(639,586,cs),
(639,609,o),
(635,626,o),
(620,634,cs),
(605,642,o),
(570,652,o),
(521,652,cs),
(488,652,o),
(438,629,o),
(422,609,cs),
(395,575,o),
(381,549,o),
(365,488,cs),
(357,458,o),
(348,424,o),
(334,381,c),
(314,446,o),
(297,509,o),
(284,576,cs),
(273,633,o),
(155,652,o),
(77,652,cs),
(30,652,o),
(19,641,o),
(19,626,cs),
(19,622,o),
(20,618,o),
(22,613,cs),
(63,530,o),
(131,336,o),
(159,261,c),
(153,153,o),
(148,68,o),
(148,59,cs),
(148,9,o),
(255,-13,o),
(319,-13,cs)
);
}
);
width = 624;
}
);
metricLeft = Y;
metricRight = T;
unicode = 435;
},
{
color = 6;
glyphname = Ystroke;
lastChange = "2023-02-09 04:10:35 +0000";
layers = (
{
anchors = (
{
name = bottom;
pos = (279,0);
},
{
name = top;
pos = (313,642);
},
{
name = topleft;
pos = (95,652);
}
);
layerId = "220B7CD1-1E4F-4884-BA06-A44A5DCE8B14";
shapes = (
{
closed = 1;
nodes = (
(310,-13,o),
(311,-10,o),
(311,-5,cs),
(314,85,o),
(317,174,o),
(320,264,c),
(375,363,o),
(487,531,o),
(521,590,cs),
(529,604,o),
(531,610,o),
(531,614,cs),
(531,626,o),
(520,652,o),
(506,652,cs),
(502,652,o),
(499,650,o),
(497,646,cs),
(484,621,o),
(363,418,o),
(301,320,c),
(267,378,o),
(204,504,o),
(123,630,cs),
(110,651,o),
(76,652,o),
(62,652,cs),
(48,652,o),
(45,650,o),
(45,643,cs),
(45,638,o),
(53,626,o),
(58,618,cs),
(77,590,o),
(145,502,o),
(266,275,c),
(259,188,o),
(248,25,o),
(248,14,cs),
(248,-4,o),
(278,-13,o),
(301,-13,cs)
);
},
{
closed = 1;
nodes = (
(100,261,o),
(196,261,o),
(293,262,cs),
(390,262,o),
(487,262,o),
(489,262,cs),
(498,262,o),
(503,276,o),
(503,294,cs),
(503,300,o),
(500,304,o),
(495,304,c),
(106,304,l),
(97,304,o),
(91,289,o),
(91,271,cs),
(91,265,o),
(93,261,o),
(98,261,cs)
);
}
);
width = 566;
},
{
anchors = (
{
name = bottom;
pos = (253,0);
},
{
name = top;
pos = (307,642);
},
{
name = topleft;
pos = (69,652);
}
);
layerId = "63F4CE79-9D5F-46D3-B41C-385689F27F0A";
shapes = (
{
closed = 1;
nodes = (
(363,-13,o),
(368,-4,o),
(368,21,cs),
(368,81,o),
(371,149,o),
(374,232,c),
(402,277,o),
(512,453,o),
(531,483,cs),
(546,506,o),
(553,535,o),
(553,559,cs),
(553,610,o),
(508,652,o),
(493,652,cs),
(483,652,o),
(478,642,o),
(463,614,cs),
(439,568,o),
(377,447,o),
(334,381,c),
(314,446,o),
(297,509,o),
(284,576,cs),
(273,633,o),
(155,652,o),
(77,652,cs),
(30,652,o),
(19,641,o),
(19,626,cs),
(19,622,o),
(20,618,o),
(22,613,cs),
(63,530,o),
(131,336,o),
(159,261,c),
(153,153,o),
(148,68,o),
(148,59,cs),
(148,9,o),
(255,-13,o),
(319,-13,cs)
);
},
{
closed = 1;
nodes = (
(187,216,o),
(248,220,o),
(279,220,cs),
(318,220,o),
(356,216,o),
(485,216,cs),
(500,216,o),
(511,238,o),
(511,274,cs),
(511,297,o),
(508,300,o),
(498,300,cs),
(69,300,ls),
(54,300,o),
(43,278,o),
(43,242,cs),
(43,219,o),
(46,216,o),
(56,216,cs)
);
}
);
width = 540;
}
);
unicode = 590;
},
{
color = 1;
glyphname = Z;
kernLeft = KO_Z;
kernRight = KO_Z;
lastChange = "2023-02-07 08:07:54 +0000";
layers = (
{
anchors = (
{
name = bottom;
pos = (289,0);
},
{
name = center;
pos = (276,326);
},
{
name = top;
pos = (313,652);
}
);
layerId = "220B7CD1-1E4F-4884-BA06-A44A5DCE8B14";
shapes = (
{
closed = 1;
nodes = (
(484,0,ls),
(490,0,o),
(501,23,o),
(501,43,cs),
(501,53,o),
(499,61,o),
(494,61,cs),
(487,61,o),
(461,46,o),
(206,46,cs),
(112,46,l),
(125,72,o),
(470,551,o),
(490,578,cs),
(498,588,o),
(499,598,o),
(499,605,cs),
(499,619,o),
(490,639,o),
(481,639,cs),
(109,639,ls),
(100,639,o),
(91,616,o),
(91,594,cs),
(91,584,o),
(92,578,o),
(97,578,cs),
(110,578,o),
(122,594,o),
(338,594,cs),
(431,594,l),
(368,482,o),
(143,179,o),
(52,58,cs),
(44,48,o),
(44,44,o),
(44,38,cs),
(44,24,o),
(52,0,o),
(61,0,cs)
);
}
);
width = 539;
},
{
anchors = (
{
name = bottom;
pos = (287,0);
},
{
name = center;
pos = (244,326);
},
{
name = top;
pos = (301,652);
}
);
layerId = "63F4CE79-9D5F-46D3-B41C-385689F27F0A";
shapes = (
{
closed = 1;
nodes = (
(512,0,ls),
(526,0,o),
(546,20,o),
(546,73,cs),
(546,115,o),
(544,133,o),
(537,133,cs),
(529,133,o),
(440,120,o),
(384,120,cs),
(285,120,l),
(293,140,o),
(527,460,o),
(546,491,cs),
(554,503,o),
(554,511,o),
(554,523,cs),
(554,544,o),
(521,639,o),
(490,639,cs),
(96,639,ls),
(82,639,o),
(62,622,o),
(62,561,cs),
(62,524,o),
(64,506,o),
(71,506,cs),
(79,506,o),
(168,519,o),
(224,519,cs),
(306,519,l),
(278,477,o),
(67,180,o),
(47,148,cs),
(40,136,o),
(40,128,o),
(40,116,cs),
(40,95,o),
(73,0,o),
(104,0,cs)
);
}
);
width = 579;
}
);
note = Z;
unicode = 90;
},
{
color = 6;
glyphname = Zstroke;
lastChange = "2023-02-09 04:10:55 +0000";
layers = (
{
anchors = (
{
name = bottom;
pos = (289,0);
},
{
name = center;
pos = (276,326);
},
{
name = top;
pos = (313,652);
}
);
layerId = "220B7CD1-1E4F-4884-BA06-A44A5DCE8B14";
shapes = (
{
closed = 1;
nodes = (
(484,0,ls),
(490,0,o),
(501,23,o),
(501,43,cs),
(501,53,o),
(499,61,o),
(494,61,cs),
(487,61,o),
(461,46,o),
(206,46,cs),
(112,46,l),
(125,72,o),
(470,551,o),
(490,578,cs),
(498,588,o),
(499,598,o),
(499,605,cs),
(499,619,o),
(490,639,o),
(481,639,cs),
(109,639,ls),
(100,639,o),
(91,616,o),
(91,594,cs),
(91,584,o),
(92,578,o),
(97,578,cs),
(110,578,o),
(122,594,o),
(338,594,cs),
(431,594,l),
(368,482,o),
(143,179,o),
(52,58,cs),
(44,48,o),
(44,44,o),
(44,38,cs),
(44,24,o),
(52,0,o),
(61,0,cs)
);
},
{
closed = 1;
nodes = (
(80,301,o),
(176,301,o),
(273,302,cs),
(370,302,o),
(467,302,o),
(469,302,cs),
(478,302,o),
(483,316,o),
(483,334,cs),
(483,340,o),
(480,344,o),
(475,344,c),
(86,344,l),
(77,344,o),
(71,329,o),
(71,311,cs),
(71,305,o),
(73,301,o),
(78,301,cs)
);
}
);
width = 539;
},
{
anchors = (
{
name = bottom;
pos = (287,0);
},
{
name = center;
pos = (244,326);
},
{
name = top;
pos = (301,652);
}
);
layerId = "63F4CE79-9D5F-46D3-B41C-385689F27F0A";
shapes = (
{
closed = 1;
nodes = (
(512,0,ls),
(526,0,o),
(546,20,o),
(546,73,cs),
(546,115,o),
(544,133,o),
(537,133,cs),
(529,133,o),
(440,120,o),
(384,120,cs),
(285,120,l),
(293,140,o),
(527,460,o),
(546,491,cs),
(554,503,o),
(554,511,o),
(554,523,cs),
(554,544,o),
(521,639,o),
(490,639,cs),
(96,639,ls),
(82,639,o),
(62,622,o),
(62,561,cs),
(62,524,o),
(64,506,o),
(71,506,cs),
(79,506,o),
(168,519,o),
(224,519,cs),
(306,519,l),
(278,477,o),
(67,180,o),
(47,148,cs),
(40,136,o),
(40,128,o),
(40,116,cs),
(40,95,o),
(73,0,o),
(104,0,cs)
);
},
{
closed = 1;
nodes = (
(195,286,o),
(256,290,o),
(287,290,cs),
(326,290,o),
(364,286,o),
(493,286,cs),
(508,286,o),
(519,308,o),
(519,344,cs),
(519,367,o),
(516,370,o),
(506,370,cs),
(77,370,ls),
(62,370,o),
(51,348,o),
(51,312,cs),
(51,289,o),
(54,286,o),
(64,286,cs)
);
}
);
width = 579;
}
);
unicode = 437;
},
{
color = 1;
glyphname = Saltillo;
lastChange = "2023-02-01 05:49:35 +0000";
layers = (
{
layerId = "220B7CD1-1E4F-4884-BA06-A44A5DCE8B14";
shapes = (
{
closed = 1;
nodes = (
(160,203,o),
(162,206,o),
(162,211,cs),
(169,533,o),
(190,612,o),
(190,626,cs),
(190,644,o),
(160,652,o),
(137,652,cs),
(128,652,o),
(127,650,o),
(127,645,cs),
(124,537,o),
(103,242,o),
(103,230,cs),
(103,212,o),
(131,203,o),
(153,203,cs)
);
}
);
width = 279;
},
{
layerId = "63F4CE79-9D5F-46D3-B41C-385689F27F0A";
shapes = (
{
closed = 1;
nodes = (
(259,197,o),
(263,206,o),
(263,231,cs),
(263,409,o),
(298,562,o),
(298,579,cs),
(298,630,o),
(191,652,o),
(127,652,cs),
(83,652,o),
(78,643,o),
(78,618,cs),
(78,440,o),
(65,287,o),
(65,269,cs),
(65,219,o),
(161,197,o),
(219,197,cs)
);
}
);
width = 333;
}
);
metricLeft = I;
metricRight = I;
unicode = 42891;
},
{
color = 6;
glyphname = Esh.localGAD;
lastChange = "2023-02-20 03:54:39 +0000";
layers = (
{
layerId = "220B7CD1-1E4F-4884-BA06-A44A5DCE8B14";
shapes = (
{
closed = 1;
nodes = (
(455,0,ls),
(461,0,o),
(473,29,o),
(473,50,cs),
(473,59,o),
(471,67,o),
(466,67,cs),
(459,67,o),
(421,38,o),
(172,38,cs),
(99,38,l),
(122,87,o),
(235,237,o),
(294,314,cs),
(301,324,o),
(308,332,o),
(308,336,cs),
(308,354,o),
(306,357,o),
(298,368,cs),
(243,447,o),
(158,561,o),
(133,602,c),
(221,602,ls),
(379,602,o),
(448,585,o),
(451,585,cs),
(456,585,o),
(457,591,o),
(457,601,cs),
(457,622,o),
(446,639,o),
(440,639,cs),
(77,639,ls),
(71,639,o),
(63,621,o),
(63,612,cs),
(63,603,o),
(67,595,o),
(80,575,cs),
(88,563,o),
(178,446,o),
(252,341,c),
(218,294,o),
(88,118,o),
(44,58,cs),
(37,48,o),
(36,44,o),
(36,38,cs),
(36,24,o),
(44,0,o),
(53,0,cs)
);
}
);
width = 527;
},
{
layerId = "63F4CE79-9D5F-46D3-B41C-385689F27F0A";
shapes = (
{
closed = 1;
nodes = (
(468,0,ls),
(497,0,o),
(503,67,o),
(503,86,cs),
(503,112,o),
(503,119,o),
(496,119,cs),
(486,119,o),
(414,106,o),
(338,106,c),
(248,106,l),
(266,138,o),
(371,255,o),
(393,283,cs),
(413,307,o),
(433,318,o),
(433,330,cs),
(433,345,o),
(431,349,o),
(421,361,cs),
(400,387,o),
(288,511,o),
(269,541,c),
(354,541,ls),
(416,541,o),
(479,537,o),
(488,537,cs),
(498,537,o),
(504,577,o),
(504,606,cs),
(504,631,o),
(499,639,o),
(483,639,cs),
(118,639,ls),
(103,639,o),
(78,593,o),
(78,524,cs),
(78,510,o),
(80,497,o),
(96,481,cs),
(137,438,o),
(167,394,o),
(208,349,c),
(157,285,o),
(106,221,o),
(54,156,cs),
(39,137,o),
(40,128,o),
(40,116,cs),
(40,56,o),
(60,0,o),
(91,0,cs)
);
}
);
width = 516;
}
);
metricRight = E;
},
{
color = 7;
glyphname = Eng.loclNSM;
kernLeft = KO_N;
lastChange = "2023-02-20 03:54:59 +0000";
layers = (
{
layerId = "220B7CD1-1E4F-4884-BA06-A44A5DCE8B14";
shapes = (
{
closed = 1;
nodes = (
(584,-244,o),
(627,-225,o),
(664,-190,cs),
(701,-155,o),
(725,-99,o),
(729,-28,cs),
(730,-14,o),
(765,613,o),
(765,626,cs),
(765,644,o),
(739,652,o),
(716,652,cs),
(707,652,o),
(706,651,o),
(706,642,cs),
(706,290,o),
(686,72,o),
(685,68,c),
(607,143,o),
(243,564,o),
(187,641,cs),
(183,646,o),
(176,652,o),
(172,652,cs),
(162,652,o),
(132,630,o),
(132,621,cs),
(132,508,o),
(98,26,o),
(98,14,cs),
(98,-4,o),
(123,-13,o),
(146,-13,cs),
(154,-13,o),
(156,-11,o),
(156,-3,cs),
(156,160,o),
(175,553,o),
(176,572,c),
(200,536,o),
(518,168,o),
(680,-6,c),
(654,-176,o),
(629,-193,o),
(554,-193,cs),
(484,-193,o),
(403,-161,o),
(370,-147,cs),
(364,-145,o),
(357,-141,o),
(355,-141,cs),
(352,-141,o),
(348,-146,o),
(348,-164,cs),
(348,-174,o),
(352,-185,o),
(358,-189,cs),
(370,-198,o),
(462,-244,o),
(551,-244,cs)
);
}
);
width = 854;
},
{
layerId = "63F4CE79-9D5F-46D3-B41C-385689F27F0A";
shapes = (
{
closed = 1;
nodes = (
(511,-222,o),
(575,-217,o),
(628,-170,cs),
(669,-135,o),
(682,-80,o),
(686,7,cs),
(689,77,o),
(711,546,o),
(711,580,cs),
(711,630,o),
(654,652,o),
(620,652,cs),
(596,652,o),
(593,643,o),
(593,618,cs),
(593,527,o),
(586,322,o),
(582,280,c),
(540,319,o),
(245,631,o),
(238,639,cs),
(231,648,o),
(221,652,o),
(211,652,cs),
(179,652,o),
(85,586,o),
(85,553,cs),
(85,483,o),
(63,93,o),
(63,59,cs),
(63,9,o),
(120,-13,o),
(155,-13,cs),
(178,-13,o),
(181,-4,o),
(181,21,cs),
(181,112,o),
(188,317,o),
(192,361,c),
(228,325,o),
(456,85,o),
(520,18,c),
(513,-40,o),
(501,-57,o),
(494,-72,cs),
(480,-99,o),
(451,-127,o),
(407,-127,cs),
(395,-127,o),
(356,-123,o),
(358,-123,cs),
(348,-123,o),
(340,-140,o),
(340,-156,cs),
(340,-179,o),
(344,-196,o),
(359,-204,cs),
(374,-212,o),
(415,-222,o),
(462,-222,cs)
);
}
);
width = 744;
}
);
metricLeft = H;
metricRight = H;
},
{
color = 6;
glyphname = Bhook.loclXPE;
lastChange = "2023-02-09 06:17:28 +0000";
layers = (
{
layerId = "220B7CD1-1E4F-4884-BA06-A44A5DCE8B14";
shapes = (
{
closed = 1;
nodes = (
(399,0,o),
(477,102,o),
(477,196,cs),
(477,272,o),
(428,342,o),
(322,350,cs),
(273,354,o),
(223,355,o),
(174,356,c),
(193,596,l),
(317,596,o),
(380,588,o),
(463,588,cs),
(473,588,o),
(478,607,o),
(478,630,cs),
(478,638,o),
(476,639,o),
(471,639,cs),
(147,639,ls),
(137,639,o),
(132,620,o),
(132,597,cs),
(131,555,o),
(98,43,o),
(98,14,cs),
(98,-4,o),
(221,0,o),
(251,0,cs)
);
},
{
closed = 1;
nodes = (
(188,37,o),
(168,41,o),
(161,60,c),
(163,153,o),
(167,241,o),
(171,320,c),
(199,320,o),
(226,320,o),
(254,320,cs),
(316,320,o),
(417,305,o),
(417,199,cs),
(417,91,o),
(350,37,o),
(248,37,cs)
);
}
);
width = 557;
},
{
layerId = "63F4CE79-9D5F-46D3-B41C-385689F27F0A";
shapes = (
{
closed = 1;
nodes = (
(579,0,o),
(678,85,o),
(678,205,cs),
(678,294,o),
(611,337,o),
(523,351,cs),
(442,363,o),
(365,367,o),
(295,368,c),
(303,514,l),
(405,511,o),
(506,508,o),
(608,505,c),
(618,505,o),
(624,570,o),
(624,599,cs),
(624,624,o),
(620,639,o),
(604,639,cs),
(103,639,ls),
(87,639,o),
(77,619,o),
(77,579,cs),
(77,425,o),
(71,224,o),
(63,59,cs),
(60,0,o),
(250,0,o),
(384,0,cs)
);
},
{
closed = 1;
nodes = (
(300,88,o),
(283,100,o),
(285,135,cs),
(288,193,o),
(290,250,o),
(293,308,c),
(302,308,o),
(312,308,o),
(325,306,cs),
(391,296,o),
(450,265,o),
(450,185,cs),
(450,140,o),
(414,88,o),
(341,88,cs)
);
}
);
width = 711;
}
);
metricLeft = H;
metricRight = B;
},
{
color = 1;
glyphname = a;
kernLeft = KO_a;
kernRight = KO_a;
lastChange = "2023-02-19 21:01:10 +0000";
layers = (
{
anchors = (
{
name = bottom;
pos = (303,0);
},
{
name = ogonek;
pos = (529,10);
},
{
name = top;
pos = (339,524);
}
);
layerId = "220B7CD1-1E4F-4884-BA06-A44A5DCE8B14";
shapes = (
{
closed = 1;
nodes = (
(205,-13,o),
(379,210,o),
(451,355,c),
(445,262,o),
(438,121,o),
(438,63,cs),
(438,40,o),
(438,26,o),
(441,20,cs),
(446,9,o),
(480,-13,o),
(491,-13,cs),
(533,-13,o),
(618,88,o),
(651,131,cs),
(653,133,o),
(654,137,o),
(654,141,cs),
(654,154,o),
(644,170,o),
(640,170,cs),
(637,170,o),
(636,167,o),
(633,164,c),
(612,136,o),
(530,41,o),
(511,41,cs),
(499,41,o),
(495,48,o),
(495,89,cs),
(495,237,o),
(511,451,o),
(511,460,c),
(516,460,o),
(523,472,o),
(523,490,cs),
(523,495,o),
(520,496,o),
(519,496,cs),
(442,513,o),
(338,524,o),
(320,524,cs),
(253,524,o),
(191,484,o),
(142,417,cs),
(91,348,o),
(88,141,o),
(88,63,cs),
(88,40,o),
(89,26,o),
(92,20,cs),
(97,9,o),
(131,-13,o),
(142,-13,cs)
);
},
{
closed = 1;
nodes = (
(149,41,o),
(145,48,o),
(145,89,cs),
(145,339,o),
(199,481,o),
(282,481,cs),
(320,481,o),
(377,476,o),
(460,460,c),
(418,319,o),
(194,41,o),
(161,41,cs)
);
}
);
width = 645;
},
{
anchors = (
{
name = bottom;
pos = (314,0);
},
{
name = ogonek;
pos = (548,10);
},
{
name = top;
pos = (368,524);
}
);
layerId = "63F4CE79-9D5F-46D3-B41C-385689F27F0A";
shapes = (
{
closed = 1;
nodes = (
(226,-13,o),
(368,160,o),
(384,224,cs),
(382,200,o),
(379,144,o),
(379,112,cs),
(379,97,o),
(380,84,o),
(382,69,cs),
(389,18,o),
(492,-13,o),
(510,-13,cs),
(544,-13,o),
(646,89,o),
(676,143,cs),
(681,153,o),
(684,161,o),
(684,167,cs),
(684,187,o),
(670,208,o),
(659,208,cs),
(655,208,o),
(654,204,o),
(649,198,cs),
(640,187,o),
(623,168,o),
(612,168,cs),
(602,168,o),
(599,173,o),
(599,226,cs),
(599,263,o),
(609,424,o),
(609,433,c),
(615,433,o),
(626,455,o),
(626,482,cs),
(626,494,o),
(623,495,o),
(618,496,cs),
(464,519,o),
(383,524,o),
(300,524,cs),
(199,524,o),
(144,482,o),
(96,417,cs),
(45,348,o),
(42,142,o),
(42,112,cs),
(42,97,o),
(43,84,o),
(45,69,cs),
(52,18,o),
(155,-13,o),
(173,-13,cs)
);
},
{
closed = 1;
nodes = (
(265,167,o),
(262,172,o),
(262,224,cs),
(262,368,o),
(284,454,o),
(339,454,cs),
(356,454,o),
(376,452,o),
(393,446,cs),
(393,297,o),
(290,167,o),
(273,167,cs)
);
}
);
width = 684;
}
);
note = a;
unicode = 97;
},
{
color = 5;
glyphname = aacute;
kernLeft = KO_a;
kernRight = KO_a;
lastChange = "2023-02-16 03:27:23 +0000";
layers = (
{
background = {
shapes = (
{
closed = 1;
nodes = (
(205,-13,o),
(379,210,o),
(451,355,c),
(445,262,o),
(438,121,o),
(438,63,cs),
(438,40,o),
(438,26,o),
(441,20,cs),
(446,9,o),
(480,-13,o),
(491,-13,cs),
(533,-13,o),
(618,88,o),
(651,131,cs),
(653,133,o),
(654,137,o),
(654,141,cs),
(654,154,o),
(644,170,o),
(640,170,cs),
(637,170,o),
(636,167,o),
(633,164,c),
(612,136,o),
(530,41,o),
(511,41,cs),
(499,41,o),
(495,48,o),
(495,89,cs),
(495,237,o),
(511,451,o),
(511,460,c),
(516,460,o),
(523,472,o),
(523,490,cs),
(523,495,o),
(520,496,o),
(519,496,cs),
(442,513,o),
(338,524,o),
(320,524,cs),
(253,524,o),
(191,484,o),
(142,417,cs),
(91,348,o),
(88,141,o),
(88,63,cs),
(88,40,o),
(89,26,o),
(92,20,cs),
(97,9,o),
(131,-13,o),
(142,-13,cs)
);
},
{
closed = 1;
nodes = (
(149,41,o),
(145,48,o),
(145,89,cs),
(145,339,o),
(199,481,o),
(282,481,cs),
(320,481,o),
(377,476,o),
(460,460,c),
(418,319,o),
(194,41,o),
(161,41,cs)
);
},
{
closed = 1;
nodes = (
(296,614,o),
(411,722,o),
(463,759,cs),
(466,761,o),
(466,766,o),
(466,771,cs),
(466,783,o),
(455,806,o),
(443,806,cs),
(439,806,o),
(435,805,o),
(430,800,cs),
(413,783,o),
(293,673,o),
(280,652,cs),
(277,647,o),
(275,641,o),
(275,636,cs),
(275,622,o),
(288,610,o),
(290,607,c)
);
}
);
};
layerId = "220B7CD1-1E4F-4884-BA06-A44A5DCE8B14";
shapes = (
{
ref = a;
},
{
pos = (277,0);
ref = acutecomb;
}
);
width = 645;
},
{
layerId = "63F4CE79-9D5F-46D3-B41C-385689F27F0A";
shapes = (
{
ref = a;
},
{
pos = (306,0);
ref = acutecomb;
}
);
width = 684;
}
);
note = aacute;
unicode = 225;
},
{
color = 5;
glyphname = acircumflex;
kernLeft = KO_amacron;
kernRight = KO_a;
lastChange = "2023-02-16 14:45:54 +0000";
layers = (
{
background = {
shapes = (
{
closed = 1;
nodes = (
(205,-13,o),
(379,210,o),
(451,355,c),
(445,262,o),
(438,121,o),
(438,63,cs),
(438,40,o),
(438,26,o),
(441,20,cs),
(446,9,o),
(480,-13,o),
(491,-13,cs),
(533,-13,o),
(618,88,o),
(651,131,cs),
(653,133,o),
(654,137,o),
(654,141,cs),
(654,154,o),
(644,170,o),
(640,170,cs),
(637,170,o),
(636,167,o),
(633,164,c),
(612,136,o),
(530,41,o),
(511,41,cs),
(499,41,o),
(495,48,o),
(495,89,cs),
(495,237,o),
(511,451,o),
(511,460,c),
(516,460,o),
(523,472,o),
(523,490,cs),
(523,495,o),
(520,496,o),
(519,496,cs),
(442,513,o),
(338,524,o),
(320,524,cs),
(253,524,o),
(191,484,o),
(142,417,cs),
(91,348,o),
(88,141,o),
(88,63,cs),
(88,40,o),
(89,26,o),
(92,20,cs),
(97,9,o),
(131,-13,o),
(142,-13,cs)
);
},
{
closed = 1;
nodes = (
(149,41,o),
(145,48,o),
(145,89,cs),
(145,339,o),
(199,481,o),
(282,481,cs),
(320,481,o),
(377,476,o),
(460,460,c),
(418,319,o),
(194,41,o),
(161,41,cs)
);
},
{
closed = 1;
nodes = (
(220,612,o),
(308,696,o),
(366,744,c),
(401,700,o),
(463,612,o),
(464,607,c),
(466,608,o),
(485,621,o),
(485,631,cs),
(485,640,o),
(480,652,o),
(475,660,cs),
(454,696,o),
(410,761,o),
(380,800,cs),
(376,805,o),
(371,806,o),
(368,806,cs),
(364,806,o),
(361,805,o),
(356,800,cs),
(338,785,o),
(220,673,o),
(207,652,cs),
(204,647,o),
(202,641,o),
(202,636,cs),
(202,622,o),
(215,610,o),
(217,607,c)
);
}
);
};
layerId = "220B7CD1-1E4F-4884-BA06-A44A5DCE8B14";
shapes = (
{
ref = a;
},
{
pos = (204,0);
ref = circumflexcomb;
}
);
width = 645;
},
{
layerId = "63F4CE79-9D5F-46D3-B41C-385689F27F0A";
shapes = (
{
ref = a;
},
{
pos = (232,0);
ref = circumflexcomb;
}
);
width = 684;
}
);
note = acircumflex;
unicode = 226;
},
{
color = 5;
glyphname = adieresis;
kernLeft = KO_a;
kernRight = KO_mu;
lastChange = "2023-02-16 03:27:23 +0000";
layers = (
{
background = {
shapes = (
{
closed = 1;
nodes = (
(205,-13,o),
(379,210,o),
(451,355,c),
(445,262,o),
(438,121,o),
(438,63,cs),
(438,40,o),
(438,26,o),
(441,20,cs),
(446,9,o),
(480,-13,o),
(491,-13,cs),
(533,-13,o),
(618,88,o),
(651,131,cs),
(653,133,o),
(654,137,o),
(654,141,cs),
(654,154,o),
(644,170,o),
(640,170,cs),
(637,170,o),
(636,167,o),
(633,164,c),
(612,136,o),
(530,41,o),
(511,41,cs),
(499,41,o),
(495,48,o),
(495,89,cs),
(495,237,o),
(511,451,o),
(511,460,c),
(516,460,o),
(523,472,o),
(523,490,cs),
(523,495,o),
(520,496,o),
(519,496,cs),
(442,513,o),
(338,524,o),
(320,524,cs),
(253,524,o),
(191,484,o),
(142,417,cs),
(91,348,o),
(88,141,o),
(88,63,cs),
(88,40,o),
(89,26,o),
(92,20,cs),
(97,9,o),
(131,-13,o),
(142,-13,cs)
);
},
{
closed = 1;
nodes = (
(149,41,o),
(145,48,o),
(145,89,cs),
(145,339,o),
(199,481,o),
(282,481,cs),
(320,481,o),
(377,476,o),
(460,460,c),
(418,319,o),
(194,41,o),
(161,41,cs)
);
},
{
closed = 1;
nodes = (
(271,664,o),
(290,689,o),
(290,710,cs),
(290,744,o),
(276,756,o),
(261,756,cs),
(240,756,o),
(217,732,o),
(217,699,cs),
(217,675,o),
(231,664,o),
(251,664,cs)
);
},
{
closed = 1;
nodes = (
(471,664,o),
(490,689,o),
(490,710,cs),
(490,744,o),
(476,756,o),
(461,756,cs),
(440,756,o),
(417,732,o),
(417,699,cs),
(417,675,o),
(431,664,o),
(451,664,cs)
);
}
);
};
layerId = "220B7CD1-1E4F-4884-BA06-A44A5DCE8B14";
shapes = (
{
ref = a;
},
{
pos = (194,0);
ref = dieresiscomb;
}
);
width = 645;
},
{
layerId = "63F4CE79-9D5F-46D3-B41C-385689F27F0A";
shapes = (
{
ref = a;
},
{
pos = (181,0);
ref = dieresiscomb;
}
);
width = 684;
}
);
note = adieresis;
unicode = 228;
},
{
color = 7;
glyphname = "alpha-latin";
kernLeft = KO_o;
kernRight = KO_n;
lastChange = "2023-02-16 14:15:24 +0000";
layers = (
{
background = {
shapes = (
{
ref = o;
}
);
};
layerId = "220B7CD1-1E4F-4884-BA06-A44A5DCE8B14";
shapes = (
{
closed = 1;
nodes = (
(338,-13,o),
(395,28,o),
(433,99,c),
(433,57,o),
(433,25,o),
(436,20,cs),
(441,9,o),
(476,-13,o),
(487,-13,cs),
(529,-13,o),
(614,88,o),
(647,131,cs),
(649,133,o),
(650,137,o),
(650,141,cs),
(650,154,o),
(640,170,o),
(636,170,cs),
(633,170,o),
(632,167,o),
(629,164,c),
(608,136,o),
(526,41,o),
(507,41,cs),
(494,41,o),
(490,48,o),
(490,89,cs),
(490,113,o),
(494,230,o),
(497,273,cs),
(504,362,o),
(522,430,o),
(529,479,cs),
(530,488,o),
(531,495,o),
(531,501,cs),
(531,513,o),
(527,519,o),
(512,519,cs),
(486,519,o),
(469,519,o),
(466,460,c),
(434,510,o),
(389,524,o),
(323,524,cs),
(170,524,o),
(66,383,o),
(66,217,cs),
(66,33,o),
(159,-13,o),
(265,-13,cs)
);
},
{
closed = 1;
nodes = (
(169,22,o),
(126,86,o),
(126,224,cs),
(126,395,o),
(228,489,o),
(316,489,cs),
(397,489,o),
(440,443,o),
(440,326,cs),
(440,116,o),
(380,22,o),
(270,22,cs)
);
}
);
width = 641;
},
{
layerId = "63F4CE79-9D5F-46D3-B41C-385689F27F0A";
shapes = (
{
closed = 1;
nodes = (
(315,-9,o),
(356,20,o),
(382,89,c),
(382,41,o),
(379,20,o),
(393,9,cs),
(408,-3,o),
(443,-8,o),
(451,-8,cs),
(495,-8,o),
(592,103,o),
(614,136,cs),
(621,146,o),
(625,156,o),
(625,166,cs),
(625,186,o),
(608,210,o),
(597,210,cs),
(593,210,o),
(591,208,o),
(585,200,cs),
(578,191,o),
(559,167,o),
(551,167,cs),
(545,167,o),
(538,172,o),
(538,186,cs),
(538,213,o),
(537,256,o),
(539,297,cs),
(540,329,o),
(545,374,o),
(549,416,cs),
(551,441,o),
(553,465,o),
(555,484,cs),
(557,509,o),
(548,524,o),
(523,524,cs),
(493,524,o),
(457,524,o),
(442,479,c),
(420,509,o),
(373,524,o),
(315,524,cs),
(93,524,o),
(36,349,o),
(35,181,cs),
(34,0,o),
(161,-9,o),
(239,-9,cs)
);
},
{
closed = 1;
nodes = (
(244,55,o),
(239,71,o),
(239,162,cs),
(239,372,o),
(271,454,o),
(303,454,cs),
(331,454,o),
(337,438,o),
(337,335,cs),
(337,137,o),
(304,55,o),
(273,55,cs)
);
}
);
width = 632;
}
);
metricLeft = o;
metricRight = n;
unicode = 593;
},
{
color = 1;
glyphname = aogonek;
kernLeft = KO_a;
kernRight = KO_aogonek;
lastChange = "2022-09-26 01:35:25 +0000";
layers = (
{
layerId = "220B7CD1-1E4F-4884-BA06-A44A5DCE8B14";
shapes = (
{
closed = 1;
nodes = (
(205,-13,o),
(379,210,o),
(451,355,cs),
(445,262,o),
(438,121,o),
(438,63,cs),
(438,40,o),
(438,26,o),
(441,20,cs),
(446,9,o),
(480,-13,o),
(491,-13,cs),
(533,-13,o),
(618,88,o),
(651,131,cs),
(653,133,o),
(654,137,o),
(654,141,cs),
(654,154,o),
(644,170,o),
(640,170,cs),
(637,170,o),
(636,167,o),
(633,164,cs),
(612,136,o),
(530,41,o),
(511,41,cs),
(499,41,o),
(495,48,o),
(495,89,cs),
(495,237,o),
(511,451,o),
(511,460,cs),
(516,460,o),
(523,472,o),
(523,490,cs),
(523,495,o),
(520,496,o),
(519,496,cs),
(442,513,o),
(338,524,o),
(320,524,cs),
(253,524,o),
(191,484,o),
(142,417,cs),
(91,348,o),
(88,141,o),
(88,63,cs),
(88,40,o),
(89,26,o),
(92,20,cs),
(97,9,o),
(131,-13,o),
(142,-13,cs)
);
},
{
closed = 1;
nodes = (
(149,41,o),
(145,48,o),
(145,89,cs),
(145,339,o),
(199,481,o),
(282,481,cs),
(320,481,o),
(377,476,o),
(460,460,cs),
(418,319,o),
(194,41,o),
(161,41,cs)
);
},
{
closed = 1;
nodes = (
(538,-188,o),
(603,-137,o),
(636,-94,cs),
(638,-92,o),
(639,-88,o),
(639,-84,cs),
(639,-71,o),
(629,-55,o),
(625,-55,cs),
(622,-55,o),
(621,-58,o),
(618,-61,cs),
(597,-89,o),
(535,-134,o),
(516,-134,cs),
(504,-134,o),
(500,-127,o),
(500,-99,cs),
(500,-40,o),
(603,69,o),
(603,78,cs),
(509,32,o),
(443,-54,o),
(443,-112,cs),
(443,-135,o),
(443,-149,o),
(446,-155,cs),
(451,-166,o),
(485,-188,o),
(496,-188,cs)
);
}
);
width = 645;
},
{
layerId = "63F4CE79-9D5F-46D3-B41C-385689F27F0A";
shapes = (
{
closed = 1;
nodes = (
(228,-13,o),
(370,160,o),
(386,224,c),
(384,200,o),
(381,144,o),
(381,112,c),
(381,97,o),
(382,84,o),
(384,69,c),
(391,18,o),
(494,-13,o),
(512,-13,c),
(556,-13,o),
(653,104,o),
(675,137,c),
(682,147,o),
(686,157,o),
(686,167,c),
(686,187,o),
(669,211,o),
(658,211,c),
(654,211,o),
(652,209,o),
(646,201,c),
(639,192,o),
(620,168,o),
(612,168,c),
(604,168,o),
(601,173,o),
(601,226,c),
(601,263,o),
(611,424,o),
(611,433,c),
(617,433,o),
(628,455,o),
(628,482,c),
(628,494,o),
(625,495,o),
(620,496,c),
(466,519,o),
(385,524,o),
(302,524,c),
(201,524,o),
(146,482,o),
(98,417,c),
(47,348,o),
(44,142,o),
(44,112,c),
(44,97,o),
(45,84,o),
(47,69,c),
(54,18,o),
(157,-13,o),
(175,-13,c)
);
},
{
closed = 1;
nodes = (
(267,167,o),
(264,172,o),
(264,224,c),
(264,368,o),
(286,454,o),
(341,454,c),
(358,454,o),
(378,452,o),
(395,446,c),
(395,297,o),
(292,167,o),
(275,167,c)
);
},
{
closed = 1;
nodes = (
(559,-224,o),
(656,-107,o),
(678,-74,cs),
(685,-64,o),
(689,-54,o),
(689,-44,cs),
(689,-24,o),
(672,0,o),
(661,0,cs),
(657,0,o),
(655,-2,o),
(649,-10,c),
(642,-19,o),
(587,-77,o),
(560,-77,c),
(546,-77,o),
(527,-71,o),
(527,-44,cs),
(527,25,o),
(692,81,o),
(561,69,cs),
(494,65,o),
(384,-29,o),
(384,-99,cs),
(384,-114,o),
(385,-127,o),
(387,-142,cs),
(394,-193,o),
(497,-224,o),
(515,-224,c)
);
}
);
width = 686;
}
);
unicode = 261;
},
{
color = 6;
glyphname = astroke;
lastChange = "2023-02-07 15:58:39 +0000";
layers = (
{
anchors = (
{
name = bottom;
pos = (303,0);
},
{
name = ogonek;
pos = (529,10);
},
{
name = top;
pos = (339,524);
}
);
layerId = "220B7CD1-1E4F-4884-BA06-A44A5DCE8B14";
shapes = (
{
closed = 1;
nodes = (
(205,-13,o),
(379,210,o),
(451,355,c),
(445,262,o),
(438,121,o),
(438,63,cs),
(438,40,o),
(438,26,o),
(441,20,cs),
(446,9,o),
(480,-13,o),
(491,-13,cs),
(533,-13,o),
(618,88,o),
(651,131,cs),
(653,133,o),
(654,137,o),
(654,141,cs),
(654,154,o),
(644,170,o),
(640,170,cs),
(637,170,o),
(636,167,o),
(633,164,c),
(612,136,o),
(530,41,o),
(511,41,cs),
(499,41,o),
(495,48,o),
(495,89,cs),
(495,237,o),
(511,451,o),
(511,460,c),
(516,460,o),
(523,472,o),
(523,490,cs),
(523,495,o),
(520,496,o),
(519,496,cs),
(442,513,o),
(338,524,o),
(320,524,cs),
(253,524,o),
(191,484,o),
(142,417,cs),
(91,348,o),
(88,141,o),
(88,63,cs),
(88,40,o),
(89,26,o),
(92,20,cs),
(97,9,o),
(131,-13,o),
(142,-13,cs)
);
},
{
closed = 1;
nodes = (
(149,41,o),
(145,48,o),
(145,89,cs),
(145,339,o),
(199,481,o),
(282,481,cs),
(320,481,o),
(377,476,o),
(460,460,c),
(418,319,o),
(194,41,o),
(161,41,cs)
);
},
{
closed = 1;
nodes = (
(300,275,l),
(465,564,l),
(469,570,o),
(470,573,o),
(470,577,cs),
(470,588,o),
(457,601,o),
(447,601,cs),
(442,601,o),
(438,597,o),
(434,590,c),
(273,294,l),
(76,-54,l),
(73,-60,o),
(71,-63,o),
(71,-67,cs),
(71,-78,o),
(85,-90,o),
(95,-90,cs),
(100,-90,o),
(105,-86,o),
(108,-79,c)
);
}
);
width = 645;
},
{
anchors = (
{
name = bottom;
pos = (303,0);
},
{
name = ogonek;
pos = (550,10);
},
{
name = top;
pos = (370,524);
}
);
layerId = "63F4CE79-9D5F-46D3-B41C-385689F27F0A";
shapes = (
{
closed = 1;
nodes = (
(228,-13,o),
(370,160,o),
(386,224,cs),
(384,200,o),
(381,144,o),
(381,112,cs),
(381,97,o),
(382,84,o),
(384,69,cs),
(391,18,o),
(494,-13,o),
(512,-13,cs),
(556,-13,o),
(653,104,o),
(675,137,cs),
(682,147,o),
(686,157,o),
(686,167,cs),
(686,187,o),
(669,211,o),
(658,211,cs),
(654,211,o),
(652,209,o),
(646,201,cs),
(639,192,o),
(620,168,o),
(612,168,cs),
(604,168,o),
(601,173,o),
(601,226,cs),
(601,263,o),
(611,424,o),
(611,433,cs),
(617,433,o),
(628,455,o),
(628,482,cs),
(628,494,o),
(625,495,o),
(620,496,cs),
(466,519,o),
(385,524,o),
(302,524,cs),
(201,524,o),
(146,482,o),
(98,417,cs),
(47,348,o),
(44,142,o),
(44,112,cs),
(44,97,o),
(45,84,o),
(47,69,cs),
(54,18,o),
(157,-13,o),
(175,-13,cs)
);
},
{
closed = 1;
nodes = (
(267,167,o),
(264,172,o),
(264,224,cs),
(264,368,o),
(286,454,o),
(341,454,cs),
(358,454,o),
(378,452,o),
(395,446,cs),
(395,297,o),
(292,167,o),
(275,167,cs)
);
},
{
closed = 1;
nodes = (
(300,269,l),
(461,540,ls),
(469,553,o),
(474,555,o),
(474,561,cs),
(474,582,o),
(447,601,o),
(441,601,cs),
(436,601,o),
(430,596,o),
(422,582,cs),
(260,295,l),
(67,-35,ls),
(59,-49,o),
(54,-52,o),
(54,-58,cs),
(54,-79,o),
(87,-92,o),
(93,-92,cs),
(96,-92,o),
(103,-86,o),
(110,-73,cs)
);
}
);
width = 686;
}
);
unicode = 11365;
},
{
color = 5;
glyphname = atilde;
kernLeft = KO_a;
kernRight = KO_a;
lastChange = "2023-02-16 03:27:23 +0000";
layers = (
{
background = {
shapes = (
{
closed = 1;
nodes = (
(205,-13,o),
(379,210,o),
(451,355,c),
(445,262,o),
(438,121,o),
(438,63,cs),
(438,40,o),
(438,26,o),
(441,20,cs),
(446,9,o),
(480,-13,o),
(491,-13,cs),
(533,-13,o),
(618,88,o),
(651,131,cs),
(653,133,o),
(654,137,o),
(654,141,cs),
(654,154,o),
(644,170,o),
(640,170,cs),
(637,170,o),
(636,167,o),
(633,164,c),
(612,136,o),
(530,41,o),
(511,41,cs),
(499,41,o),
(495,48,o),
(495,89,cs),
(495,237,o),
(511,451,o),
(511,460,c),
(516,460,o),
(523,472,o),
(523,490,cs),
(523,495,o),
(520,496,o),
(519,496,cs),
(442,513,o),
(338,524,o),
(320,524,cs),
(253,524,o),
(191,484,o),
(142,417,cs),
(91,348,o),
(88,141,o),
(88,63,cs),
(88,40,o),
(89,26,o),
(92,20,cs),
(97,9,o),
(131,-13,o),
(142,-13,cs)
);
},
{
closed = 1;
nodes = (
(149,41,o),
(145,48,o),
(145,89,cs),
(145,339,o),
(199,481,o),
(282,481,cs),
(320,481,o),
(377,476,o),
(460,460,c),
(418,319,o),
(194,41,o),
(161,41,cs)
);
},
{
closed = 1;
nodes = (
(453,626,o),
(466,631,o),
(481,654,cs),
(492,671,o),
(505,712,o),
(505,737,cs),
(505,742,o),
(495,746,o),
(486,746,cs),
(482,746,o),
(481,744,o),
(480,739,cs),
(468,691,o),
(460,675,o),
(439,675,cs),
(409,675,o),
(287,756,o),
(253,756,cs),
(232,756,o),
(218,751,o),
(204,728,cs),
(193,710,o),
(180,670,o),
(180,645,cs),
(180,640,o),
(190,636,o),
(199,636,cs),
(203,636,o),
(204,637,o),
(205,642,cs),
(217,690,o),
(225,707,o),
(245,707,cs),
(276,707,o),
(398,626,o),
(432,626,cs)
);
}
);
};
layerId = "220B7CD1-1E4F-4884-BA06-A44A5DCE8B14";
shapes = (
{
ref = a;
},
{
pos = (189,0);
ref = tildecomb;
}
);
width = 645;
},
{
layerId = "63F4CE79-9D5F-46D3-B41C-385689F27F0A";
shapes = (
{
ref = a;
},
{
pos = (207,0);
ref = tildecomb;
}
);
width = 684;
}
);
note = atilde;
unicode = 227;
},
{
color = 1;
glyphname = ae;
kernLeft = KO_a;
kernRight = KO_e;
lastChange = "2023-02-16 14:08:08 +0000";
layers = (
{
anchors = (
{
name = bottom;
pos = (387,0);
},
{
name = top;
pos = (501,524);
}
);
layerId = "220B7CD1-1E4F-4884-BA06-A44A5DCE8B14";
shapes = (
{
closed = 1;
nodes = (
(204,-13,o),
(365,200,o),
(407,277,c),
(406,271,o),
(404,236,o),
(404,222,cs),
(404,53,o),
(480,-13,o),
(578,-13,cs),
(652,-13,o),
(709,16,o),
(752,62,cs),
(758,68,o),
(759,71,o),
(759,77,cs),
(759,89,o),
(753,103,o),
(747,103,cs),
(743,103,o),
(741,101,o),
(728,88,cs),
(708,69,o),
(660,30,o),
(599,30,cs),
(504,30,o),
(465,112,o),
(465,227,cs),
(465,246,o),
(465,275,o),
(466,282,c),
(492,276,o),
(533,271,o),
(574,271,cs),
(656,271,o),
(757,311,o),
(757,413,cs),
(757,472,o),
(719,524,o),
(621,524,cs),
(581,524,o),
(542,514,o),
(516,496,c),
(446,513,o),
(338,524,o),
(320,524,cs),
(253,524,o),
(191,484,o),
(142,417,cs),
(91,348,o),
(88,141,o),
(88,63,cs),
(88,40,o),
(89,26,o),
(92,20,cs),
(97,9,o),
(131,-13,o),
(142,-13,cs)
);
},
{
closed = 1;
nodes = (
(149,42,o),
(145,48,o),
(145,89,cs),
(145,339,o),
(199,481,o),
(282,481,cs),
(320,481,o),
(377,476,o),
(460,460,c),
(418,319,o),
(194,42,o),
(161,42,cs)
);
},
{
closed = 1;
nodes = (
(527,310,o),
(483,325,o),
(478,333,c),
(497,441,o),
(550,492,o),
(609,492,cs),
(668,492,o),
(693,456,o),
(693,416,cs),
(693,348,o),
(650,310,o),
(573,310,cs)
);
}
);
width = 803;
},
{
anchors = (
{
name = bottom;
pos = (385,0);
},
{
name = top;
pos = (499,524);
}
);
layerId = "63F4CE79-9D5F-46D3-B41C-385689F27F0A";
shapes = (
{
closed = 1;
nodes = (
(226,-13,o),
(368,160,o),
(384,224,c),
(384,206,o),
(384,190,o),
(386,174,cs),
(401,19,o),
(488,-13,o),
(596,-13,cs),
(657,-13,o),
(728,16,o),
(772,60,cs),
(784,72,o),
(787,82,o),
(787,88,cs),
(787,111,o),
(783,129,o),
(774,129,cs),
(770,129,o),
(763,125,o),
(753,119,cs),
(728,104,o),
(690,87,o),
(662,87,cs),
(611,87,o),
(566,110,o),
(566,207,cs),
(566,217,o),
(566,228,o),
(566,239,c),
(576,239,o),
(586,239,o),
(596,239,cs),
(699,239,o),
(820,285,o),
(820,392,cs),
(820,487,o),
(755,524,o),
(605,524,cs),
(572,524,o),
(539,516,o),
(511,507,c),
(447,518,o),
(361,524,o),
(300,524,cs),
(199,524,o),
(144,482,o),
(96,417,cs),
(45,348,o),
(42,142,o),
(42,112,cs),
(42,97,o),
(43,84,o),
(45,69,cs),
(52,18,o),
(155,-13,o),
(173,-13,cs)
);
},
{
closed = 1;
nodes = (
(265,168,o),
(262,173,o),
(262,226,cs),
(262,369,o),
(284,455,o),
(339,455,cs),
(356,455,o),
(376,453,o),
(393,447,c),
(393,298,o),
(290,168,o),
(273,168,cs)
);
},
{
closed = 1;
nodes = (
(578,289,o),
(570,289,o),
(567,289,c),
(572,425,o),
(600,454,o),
(630,454,cs),
(649,454,o),
(664,434,o),
(664,401,cs),
(664,315,o),
(629,296,o),
(593,291,cs)
);
}
);
width = 825;
}
);
metricLeft = a;
metricRight = e;
note = ae;
unicode = 230;
},
